<svg width="115" height="115" viewBox="0 0 115 115" fill="none" xmlns="http://www.w3.org/2000/svg">
<g id="From Recycled to Remakable patch 1" clip-path="url(#clip0_1_157)">
<g id="Group">
<g id="Layer_1">
<path id="Vector" d="M57.5 115C89.2564 115 115 89.2564 115 57.5C115 25.7436 89.2564 0 57.5 0C25.7436 0 0 25.7436 0 57.5C0 89.2564 25.7436 115 57.5 115Z" fill="white"/>
<g id="Group_2">
<path id="Vector_2" d="M56.5568 66.4968C56.9196 66.3155 57.1373 65.9164 57.0647 65.5173C56.9921 65.1183 56.6294 64.8281 56.194 64.7555L44.948 63.0505C43.3518 62.7965 41.8281 63.6309 41.2477 65.0095L37.2571 74.8044C37.112 75.1672 37.2571 75.6025 37.5473 75.8565C37.8738 76.1104 38.3455 76.1467 38.7082 75.9653L42.082 74.1877L46.653 81.4432C47.8139 83.2571 49.918 84.3817 52.2035 84.3454H59.2051V77.9968L53.1104 68.3107L56.4843 66.5331L56.5568 66.4968Z" fill="#B9A950"/>
<path id="Vector_3" d="M47.6686 46.9432V50.5347C47.6686 50.9338 47.9589 51.2603 48.3579 51.4054C48.757 51.5505 49.2286 51.4054 49.4825 51.1151L56.7018 43.0252C57.7175 41.9006 57.7175 40.2319 56.7018 39.1073L49.4463 31.0536C49.156 30.7271 48.7207 30.6183 48.3216 30.7634C47.9226 30.9085 47.6324 31.2713 47.6324 31.6704V35.2618H38.5267C36.2412 35.2618 34.1371 36.4227 33.0125 38.2366L28.1876 46C27.9699 46.3265 27.8248 46.653 27.6797 47.0158H47.6686V46.9432Z" fill="#B9A950"/>
<path id="Vector_4" d="M37.3297 62.9054L45.1657 58.5883C46.0363 58.1167 46.2903 57.1009 45.7824 56.3028L42.1184 50.4984H27.571C27.7162 50.97 27.9338 51.4054 28.1878 51.8407L34.8266 62.3612C35.3345 63.1593 36.4591 63.4132 37.2934 62.9416L37.3297 62.9054Z" fill="#B9A950"/>
<path id="Vector_5" d="M87.3565 50.5347C87.284 50.2082 87.1751 49.918 87.03 49.6278L77.7067 36.1325C77.2714 35.5158 76.5821 35.1167 75.8203 35.1167H58.2256L63.1231 44.3312L65.989 49.8454H53.5095L51.7319 52.0221H60.2209H66.4244L60.2209 78.2871V84.164C60.2934 84.164 60.3297 84.164 60.4023 84.1278H60.4748C60.5474 84.1278 60.5837 84.0552 60.6562 84.0552C61.2004 83.9464 61.672 83.6562 61.9985 83.2571L86.9575 52.2398C87.1751 51.9495 87.284 51.6956 87.3565 51.4054C87.4291 51.224 87.4654 51.0789 87.4654 50.8975C87.4654 50.7887 87.3928 50.6073 87.3928 50.4984L87.3565 50.5347ZM62.1436 79.6293L68.7098 52.0584H84.2367L62.1436 79.6293ZM68.4922 49.8817L61.9622 37.3659H75.8203C75.8565 37.3659 75.9291 37.3659 75.9291 37.4022L84.4543 49.8454H68.4922V49.8817Z" fill="#B9A950"/>
</g>
<g id="Group_3">
<path id="Vector_6" d="M112.569 57.0284C112.569 56.9196 112.569 56.8107 112.569 56.7382C112.569 55.795 112.533 54.8517 112.461 53.9085L106.801 56.7382H101.976L95.7003 53.836C95.8091 54.888 95.8454 55.9401 95.8454 56.9921C95.7003 78.0331 78.541 95.1199 57.4637 95.1199C36.3864 95.1199 19.082 77.888 19.082 56.7382L10.7744 52.6025L2.39429 56.7382C2.39429 87.1025 27.0993 111.808 57.4637 111.808C87.828 111.808 112.243 87.3927 112.533 57.2823C112.533 57.2098 112.533 57.1372 112.533 57.0284H112.569Z" fill="#76926D"/>
<path id="Vector_7" d="M112.352 52.6751C110.03 24.4511 86.3045 2.17665 57.5001 2.17665C28.6957 2.17665 2.43066 26.8817 2.43066 57.2461L10.4843 52.8565L19.1184 57.2461C19.1184 36.0962 36.3502 18.8643 57.5001 18.8643C78.6499 18.8643 93.2335 33.5568 95.5915 52.4574L104.48 56.5931L112.388 52.6388L112.352 52.6751Z" fill="#219CBB"/>
<path id="Vector_8" d="M95.2651 52.3486L94.7935 53.3643L95.7004 53.7997C95.6641 53.3643 95.6278 52.929 95.5553 52.4937L95.2651 52.3486Z" fill="white"/>
<path id="Vector_9" d="M113.476 53.3643L112.969 52.3486L112.352 52.6388C112.352 53.0378 112.424 53.4732 112.424 53.8722L113.44 53.3643H113.476Z" fill="white"/>
<path id="Vector_10" d="M112.461 53.8722C112.461 53.4732 112.424 53.0379 112.388 52.6388L104.48 56.5931L95.5916 52.4574C95.6278 52.8927 95.7004 53.3281 95.7367 53.7634L104.516 57.8265L112.497 53.836L112.461 53.8722Z" fill="white"/>
</g>
<g id="Group_4" filter="url(#filter0_d_1_157)">
<path id="Vector_11" d="M18.4652 28.9132L19.5535 29.7114L21.186 27.4984L22.6371 28.623L21.0046 30.7997L23.3627 32.541L22.0204 34.3549L15.563 29.53L18.8642 25.1041L20.4605 26.2287L18.4652 28.877V28.9132Z" fill="white"/>
<path id="Vector_12" d="M26.3737 21.1861C26.7365 21.5852 26.9904 21.9842 27.1356 22.3833C27.2444 22.8186 27.2444 23.2177 27.063 23.5804L30.5819 24.6688L28.6955 26.5189L25.9021 25.358L25.3217 25.9385L27.2807 27.9338L25.6845 29.4937L20.0251 23.7255L22.2018 21.5852C22.9636 20.8233 23.6892 20.388 24.3785 20.3155C25.0677 20.2429 25.7207 20.5331 26.3374 21.1498L26.3737 21.1861ZM24.7775 22.8912C24.5236 22.6372 24.3059 22.4921 24.1245 22.5284C23.9431 22.5284 23.7255 22.6372 23.5078 22.8912L22.8911 23.4716L24.1971 24.7776L24.7775 24.1972C24.8863 24.0883 24.9952 23.9795 25.0677 23.8707C25.1403 23.7618 25.1766 23.653 25.1766 23.5804C25.1766 23.4716 25.1766 23.3628 25.0677 23.2539C24.9952 23.1451 24.8863 23 24.7775 22.8912Z" fill="white"/>
<path id="Vector_13" d="M34.2097 17.3044C34.6088 17.8849 34.9353 18.4653 35.1167 18.9732C35.2981 19.4811 35.3706 19.9527 35.2981 20.4243C35.2618 20.8596 35.0804 21.2949 34.7902 21.694C34.5 22.0931 34.1009 22.4921 33.5568 22.8549C32.5047 23.5804 31.5252 23.8344 30.6545 23.6167C29.7839 23.399 28.9495 22.6735 28.1514 21.5126C27.7523 20.9322 27.4621 20.388 27.2807 19.8801C27.0993 19.3722 27.0268 18.9006 27.0993 18.429C27.1719 17.9574 27.317 17.5584 27.6072 17.1593C27.8974 16.7602 28.2965 16.3612 28.8407 15.9984C29.3848 15.6356 29.8927 15.3817 30.3643 15.2729C30.8359 15.164 31.3075 15.1278 31.7429 15.2729C32.1782 15.3817 32.6135 15.5994 33.0126 15.9621C33.4116 16.3249 33.847 16.7965 34.246 17.377L34.2097 17.3044ZM32.287 18.6467C32.0331 18.2839 31.7791 17.9937 31.5978 17.776C31.4164 17.5584 31.1987 17.4132 31.0536 17.3407C30.8722 17.2681 30.6908 17.2319 30.5094 17.3044C30.328 17.3407 30.1467 17.4495 29.929 17.5946C29.7113 17.7397 29.5662 17.8849 29.4574 18.03C29.3485 18.1751 29.3123 18.3565 29.3123 18.5378C29.3123 18.7192 29.3848 18.9732 29.5299 19.2271C29.675 19.4811 29.8564 19.8076 30.1104 20.1703C30.3643 20.5331 30.6183 20.8596 30.7997 21.041C31.0173 21.2587 31.1987 21.4038 31.3801 21.4763C31.5615 21.5489 31.7429 21.5852 31.9243 21.5126C32.1056 21.4763 32.287 21.3675 32.5047 21.2224C32.7224 21.0773 32.8675 20.9322 32.9763 20.7871C33.0851 20.642 33.1214 20.4606 33.1214 20.2792C33.1214 20.0978 33.0489 19.8438 32.9038 19.5899C32.7586 19.336 32.5773 19.0095 32.3233 18.6467H32.287Z" fill="white"/>
<path id="Vector_14" d="M36.1324 11.8991L39.216 15.0552L39.7964 15.6719L39.7601 14.8013L39.6513 10.3754L41.9005 9.43217L45.0567 16.8691L43.1702 17.6672L41.8642 14.5473L41.5377 13.7492L41.574 14.6199L41.6828 18.3202L40.3406 18.9006L37.7649 16.2161L37.1844 15.5631L37.5472 16.3612L38.8895 19.5173L37.0756 20.2792L33.9194 12.8423L36.1686 11.8991H36.1324Z" fill="white"/>
<path id="Vector_15" d="M53.8721 9.83122C53.9446 10.3754 53.9083 10.847 53.7632 11.246C53.6181 11.6451 53.3642 11.9716 53.0014 12.1893L55.178 15.164L52.5661 15.5268L51.0061 12.9148L50.208 13.0236L50.6071 15.817L48.3941 16.1435L47.2695 8.16245L50.3168 7.72712C51.4052 7.58201 52.2396 7.65456 52.82 7.98106C53.4004 8.30756 53.7632 8.92428 53.9083 9.83122H53.8721ZM51.5503 10.2303C51.514 9.8675 51.4052 9.64983 51.2601 9.541C51.115 9.43217 50.861 9.39589 50.5345 9.46844L49.7001 9.57728L49.9541 11.3912L50.7885 11.2823C50.9336 11.2823 51.0787 11.2098 51.1875 11.1735C51.2963 11.1372 51.4052 11.0647 51.4415 10.9921C51.514 10.9195 51.5503 10.8107 51.5503 10.6656C51.5503 10.5205 51.5503 10.3754 51.5503 10.194V10.2303Z" fill="white"/>
<path id="Vector_16" d="M61.2003 13.4227L61.1277 15.3091L55.4321 15.2003L55.5772 7.14668L61.1277 7.21924V9.10567L57.7902 9.0694V10.2666L60.511 10.3028V12.0079L57.7176 11.9716V13.3502L61.164 13.4227H61.2003Z" fill="white"/>
<path id="Vector_17" d="M67.8027 10.2303C67.6214 10.1214 67.4037 10.0489 67.1497 9.94005C66.8958 9.8675 66.6419 9.79494 66.3516 9.75866C66.0251 9.72239 65.7712 9.68611 65.5173 9.75866C65.2996 9.79494 65.1182 9.90377 64.9731 10.0489C64.828 10.194 64.7191 10.4117 64.6103 10.6656C64.5378 10.9558 64.4289 11.2823 64.3926 11.7177C64.3201 12.153 64.2838 12.552 64.2838 12.8423C64.2838 13.1325 64.3564 13.3864 64.4289 13.5678C64.5378 13.7492 64.6829 13.9306 64.8643 14.0031C65.0819 14.112 65.3359 14.1845 65.6624 14.2208C65.9163 14.2571 66.2065 14.2934 66.4605 14.2571C66.7144 14.2208 66.9684 14.2208 67.186 14.1483V15.9259C66.8232 15.9984 66.4967 16.071 66.134 16.071C65.7712 16.071 65.4084 16.071 65.0456 16.0347C63.8122 15.8533 62.9415 15.3454 62.4699 14.5836C61.962 13.8218 61.8169 12.6971 62.0709 11.2823C62.1797 10.6293 62.3248 10.0489 62.5788 9.57728C62.7964 9.10567 63.1229 8.70661 63.4857 8.41639C63.8485 8.12617 64.2838 7.90851 64.7917 7.79967C65.2996 7.69084 65.88 7.69084 66.533 7.79967C66.8595 7.83595 67.186 7.94478 67.5125 8.05362C67.839 8.16245 68.1292 8.27128 68.3469 8.41639L67.839 10.194L67.8027 10.2303Z" fill="white"/>
<path id="Vector_18" d="M72.0472 9.28706L72.2285 12.2255V13.0962C72.2648 13.0962 72.3011 13.0962 72.3011 13.0962L72.8453 12.4069L74.6954 10.1577L77.0172 10.9196L72.7001 15.3454L71.902 17.7035L69.7254 16.9779L70.5235 14.6199L69.6528 8.48895L72.0472 9.28706Z" fill="white"/>
<path id="Vector_19" d="M81.6609 15.5994C81.5158 15.4542 81.3344 15.3091 81.1167 15.1277C80.8991 14.9826 80.6814 14.8375 80.4274 14.6924C80.1372 14.5473 79.8833 14.4385 79.6656 14.4385C79.448 14.4385 79.2303 14.4385 79.0489 14.5473C78.8675 14.6561 78.6861 14.8012 78.5047 15.0552C78.3233 15.3091 78.142 15.5994 77.9606 15.9621C77.7429 16.3612 77.5978 16.724 77.5252 16.9779C77.4527 17.2318 77.4164 17.5221 77.4527 17.7397C77.4527 17.9574 77.5978 18.1388 77.7429 18.3202C77.888 18.5016 78.142 18.6467 78.4322 18.7918C78.6861 18.9006 78.9038 19.0095 79.1577 19.082C79.4117 19.1546 79.6656 19.1908 79.8833 19.1908L79.3028 20.8596C79.0126 20.8596 78.6498 20.7871 78.2871 20.7145C77.9243 20.6419 77.5978 20.4968 77.2713 20.3517C76.183 19.8076 75.4937 19.082 75.2397 18.1751C74.9858 17.2681 75.2035 16.1798 75.8565 14.9101C76.1467 14.3296 76.4732 13.8218 76.836 13.4227C77.1987 13.0236 77.5978 12.7334 78.0331 12.5883C78.4685 12.4069 78.9401 12.3707 79.4842 12.4069C79.9921 12.4795 80.5726 12.6246 81.153 12.9511C81.4432 13.0962 81.7334 13.2776 81.9874 13.4953C82.2776 13.7129 82.4953 13.8943 82.6767 14.112L81.6246 15.6719L81.6609 15.5994Z" fill="white"/>
<path id="Vector_20" d="M85.1072 22.8549L83.9826 24.4148L79.6655 21.4038L84.2728 14.8013L86.1229 16.1072L82.604 21.1136L85.1072 22.8549Z" fill="white"/>
<path id="Vector_21" d="M89.8596 27.317L88.5536 28.6593L84.418 24.7776L89.9322 18.9006L93.9953 22.6735L92.7255 24.0883L90.2949 21.8028L89.4968 22.6735L91.4921 24.5599L90.3312 25.8296L88.336 23.9432L87.3927 24.959L89.9322 27.3533L89.8596 27.317Z" fill="white"/>
<path id="Vector_22" d="M96.3896 32.1057C95.8091 32.541 95.2649 32.8675 94.7571 33.0489C94.2492 33.2303 93.7776 33.3028 93.3422 33.2665C92.9069 33.2303 92.4716 33.0489 92.0725 32.7949C91.6735 32.5047 91.2744 32.1419 90.9116 31.6703L88.9526 29.1309L95.3375 24.2334L97.2602 26.7366C97.6593 27.2445 97.9495 27.7524 98.0946 28.224C98.2397 28.6956 98.3123 29.1309 98.2397 29.5662C98.1671 30.0016 97.9858 30.4369 97.6593 30.836C97.3328 31.235 96.9337 31.6703 96.3896 32.1057ZM94.9747 30.2192C95.3012 29.9653 95.5552 29.7476 95.7365 29.53C95.9179 29.3123 96.0268 29.1309 96.0993 28.9858C96.1356 28.8044 96.1356 28.623 96.0993 28.4779C96.0268 28.2965 95.9179 28.1151 95.7728 27.8975L95.2287 27.1719L91.8911 29.7476L92.4353 30.4732C92.5804 30.6908 92.7618 30.836 92.9069 30.9448C93.052 31.0536 93.2334 31.0899 93.4148 31.0899C93.5962 31.0899 93.8138 31.0173 94.0678 30.8722C94.3217 30.7271 94.6482 30.5095 95.011 30.2555L94.9747 30.2192Z" fill="white"/>
</g>
<g id="Group_5" filter="url(#filter1_d_1_157)">
<path id="Vector_23" d="M22.3108 84.2003L17.3408 87.7918L15.9985 85.9416L20.9686 82.3502L19.8077 80.7177L21.4039 79.6293L25.0317 84.6719L23.4717 85.8328L22.2746 84.2003H22.3108Z" fill="white"/>
<path id="Vector_24" d="M27.1721 92.5804C26.6643 93.0883 26.1564 93.4874 25.6848 93.7413C25.2132 93.9953 24.7415 94.1767 24.3062 94.1767C23.8709 94.1767 23.3993 94.1041 22.9639 93.8864C22.5286 93.6688 22.057 93.3423 21.6217 92.8707C20.7147 91.9637 20.3157 91.0568 20.3882 90.1498C20.4608 89.2429 21.005 88.2997 22.0207 87.3202C22.5286 86.8123 23.0002 86.4495 23.4718 86.1593C23.9434 85.9054 24.4151 85.7602 24.8504 85.724C25.2857 85.724 25.7573 85.7965 26.1927 86.0142C26.628 86.2319 27.0996 86.5584 27.5349 87.03C27.9703 87.5016 28.333 87.9369 28.5144 88.4085C28.6958 88.8801 28.8046 89.3154 28.7684 89.7508C28.7321 90.1861 28.587 90.6577 28.2968 91.1293C28.0065 91.6009 27.6438 92.0725 27.1359 92.5804H27.1721ZM25.5397 90.9117C25.8662 90.5852 26.1201 90.2949 26.3015 90.0773C26.4829 89.8596 26.5917 89.642 26.628 89.4606C26.6643 89.2792 26.628 89.0978 26.5917 88.9164C26.5192 88.735 26.374 88.5899 26.1927 88.4085C26.0113 88.2271 25.8299 88.1183 25.6848 88.0095C25.5397 87.9369 25.3583 87.9006 25.1769 87.9732C24.9955 88.0095 24.7778 88.1183 24.5239 88.2997C24.2699 88.4811 24.016 88.735 23.6895 89.0252C23.363 89.3517 23.1091 89.6419 22.9277 89.8596C22.7463 90.0773 22.6374 90.2949 22.6012 90.5126C22.5649 90.694 22.6012 90.8754 22.6374 91.0568C22.71 91.2382 22.8551 91.3833 23.0002 91.5647C23.1816 91.746 23.363 91.8549 23.5081 91.9274C23.6895 92 23.8346 92 24.0523 91.9637C24.2337 91.9274 24.4513 91.8186 24.7053 91.6372C24.9592 91.4558 25.2132 91.2019 25.5397 90.9117Z" fill="white"/>
<path id="Vector_25" d="M36.2777 97.1151C35.9875 97.5867 35.661 97.9132 35.262 98.1309C34.8629 98.3486 34.4639 98.4211 34.0648 98.3486L33.8109 102.013L31.5979 100.598L32.1058 97.5867L31.4165 97.1514L29.9292 99.5094L28.0427 98.3123L32.3598 91.4921L34.9717 93.1246C35.8787 93.705 36.4591 94.3217 36.7131 94.9747C36.9307 95.6277 36.8219 96.317 36.3503 97.0789L36.2777 97.1151ZM34.2462 95.918C34.4276 95.6277 34.5001 95.3738 34.4639 95.1924C34.4276 95.011 34.2462 94.8296 33.956 94.6482L33.2304 94.1766L32.2509 95.7366L32.9402 96.1719C33.0853 96.2445 33.1941 96.317 33.303 96.3533C33.4118 96.3896 33.5206 96.3896 33.6295 96.3533C33.7383 96.3533 33.8109 96.2807 33.9197 96.2082C34.0285 96.1356 34.1011 95.9905 34.2099 95.8454L34.2462 95.918Z" fill="white"/>
<path id="Vector_26" d="M41.0301 103.101L40.232 104.806L35.0081 102.557L38.2005 95.1561L43.2794 97.3691L42.5538 99.1104L39.5065 97.7681L39.0349 98.8564L41.5743 99.9448L40.885 101.505L38.3456 100.416L37.8014 101.686L40.9939 103.065L41.0301 103.101Z" fill="white"/>
<path id="Vector_27" d="M46.1453 98.2035L46.7983 102.557L46.9071 103.427L47.3788 102.702L49.8819 99.0378L52.2762 99.582L50.4624 107.418L48.4671 106.946L49.2289 103.645L49.4466 102.811L48.975 103.536L46.9071 106.62L45.456 106.293L44.9482 102.629L44.8393 101.759L44.6579 102.629L43.8961 105.967L41.9734 105.532L43.7873 97.6956L46.1816 98.2397L46.1453 98.2035Z" fill="white"/>
<path id="Vector_28" d="M57.2825 106.366L54.7793 106.293L54.3803 107.672L52.0222 107.599L54.9244 99.6183L57.609 99.6908L60.1121 107.817L57.609 107.744L57.2825 106.366ZM55.9402 102.267L55.2872 104.516H56.8834C56.8834 104.552 56.3755 102.303 56.3755 102.303L56.1941 101.432L55.9765 102.267H55.9402Z" fill="white"/>
<path id="Vector_29" d="M67.0049 101.396C67.0774 101.94 67.0049 102.412 66.896 102.811C66.7872 103.21 66.497 103.536 66.1342 103.754L68.3109 106.729L65.6989 107.091L64.1389 104.48L63.3408 104.588L63.7399 107.382L61.527 107.708L60.4023 99.7271L63.4497 99.2918C64.538 99.1467 65.3724 99.2193 65.9528 99.582C66.5333 99.9448 66.896 100.525 67.0411 101.432L67.0049 101.396ZM64.6831 101.831C64.6468 101.468 64.538 101.251 64.3929 101.142C64.2478 101.033 63.9938 100.997 63.6673 101.069L62.8329 101.178L63.0869 102.992L63.9213 102.883C64.1027 102.883 64.2115 102.811 64.3203 102.774C64.4292 102.738 64.538 102.666 64.5743 102.593C64.6468 102.521 64.6831 102.412 64.6831 102.267C64.6831 102.121 64.6831 101.976 64.6831 101.795V101.831Z" fill="white"/>
<path id="Vector_30" d="M73.9338 105.024L71.3581 102.448L70.7777 102.629L71.7572 105.713L69.6168 106.402L67.1499 98.7114L69.2903 98.0221L70.2335 100.961L70.8502 100.779L71.5032 97.3328L73.9338 96.571L73.0269 100.888L76.4732 104.226L73.8975 105.06L73.9338 105.024Z" fill="white"/>
<path id="Vector_31" d="M81.2619 100.199L79.049 101.36L79.3755 102.738L77.2714 103.826L75.8928 95.4464L78.2871 94.2129L84.4543 100.09L82.2414 101.251L81.2982 100.199H81.2619ZM78.1058 97.2965L78.6499 99.5457L80.0647 98.8202L78.5048 97.1151L77.9244 96.4621L78.142 97.3328L78.1058 97.2965Z" fill="white"/>
<path id="Vector_32" d="M89.3155 93.4148C89.5331 93.705 89.6782 93.9953 89.7871 94.3218C89.8596 94.612 89.8959 94.9385 89.7871 95.265C89.6782 95.5915 89.5694 95.8817 89.3155 96.2082C89.0615 96.5347 88.735 96.8612 88.2997 97.1877L85.5789 99.2918L80.6814 92.9069L83.4385 90.8028C83.8013 90.5126 84.164 90.295 84.4905 90.1861C84.817 90.041 85.1435 90.0047 85.4338 90.0047C85.724 90.0047 86.0142 90.0773 86.2319 90.2224C86.4495 90.3675 86.7035 90.5489 86.8849 90.8028C87.1388 91.1656 87.2839 91.4921 87.3202 91.8186C87.3202 92.1451 87.2476 92.4716 87.1025 92.7981C87.9732 92.5079 88.6988 92.7256 89.2792 93.4874L89.3155 93.4148ZM85.4338 92.3628C85.2887 92.1814 85.1435 92.0726 84.9984 92.0363C84.8533 92.0363 84.6719 92.1088 84.4543 92.2539L83.4748 92.9795L84.3092 94.0678L85.2887 93.306C85.5063 93.1609 85.6152 92.9795 85.6152 92.8344C85.6152 92.6893 85.5789 92.5079 85.3975 92.2902L85.4338 92.3628ZM87.429 94.6483C87.2476 94.4306 87.1025 94.3218 86.9211 94.2855C86.7398 94.2855 86.5584 94.358 86.3044 94.5394L85.2887 95.3375L86.1956 96.5347L87.2476 95.7366C87.4653 95.5552 87.6104 95.4101 87.6467 95.2287C87.6467 95.0836 87.6104 94.8659 87.429 94.6483Z" fill="white"/>
<path id="Vector_33" d="M94.2493 88.989L95.6279 90.3675L91.9638 94.1404L86.1594 88.5536L87.7194 86.9211L92.1089 91.1656L94.2131 88.989H94.2493Z" fill="white"/>
<path id="Vector_34" d="M98.385 83.511L99.8724 84.6356L96.5349 89.2429L90.0049 84.4905L93.2699 79.9921L94.8298 81.0804L92.8708 83.765L93.814 84.4542L95.4465 82.2413L96.8251 83.2571L95.1926 85.47L96.3172 86.2681L98.3487 83.4385L98.385 83.511Z" fill="white"/>
</g>
<path id="Vector_35" d="M1.70508 57.2461L10.448 52.8565L19.8802 57.2461" stroke="white" stroke-width="3.1" stroke-miterlimit="10"/>
</g>
</g>
</g>
<defs>
<filter id="filter0_d_1_157" x="12.563" y="4.14668" width="90.7051" height="35.2082" filterUnits="userSpaceOnUse" color-interpolation-filters="sRGB">
<feFlood flood-opacity="0" result="BackgroundImageFix"/>
<feColorMatrix in="SourceAlpha" type="matrix" values="0 0 0 0 0 0 0 0 0 0 0 0 0 0 0 0 0 0 127 0" result="hardAlpha"/>
<feOffset dx="1" dy="1"/>
<feGaussianBlur stdDeviation="2"/>
<feColorMatrix type="matrix" values="0 0 0 0 0 0 0 0 0 0 0 0 0 0 0 0 0 0 0.3 0"/>
<feBlend mode="normal" in2="BackgroundImageFix" result="effect1_dropShadow_1_157"/>
<feBlend mode="normal" in="SourceGraphic" in2="effect1_dropShadow_1_157" result="shape"/>
</filter>
<filter id="filter1_d_1_157" x="12.9985" y="76.6293" width="91.8738" height="36.1877" filterUnits="userSpaceOnUse" color-interpolation-filters="sRGB">
<feFlood flood-opacity="0" result="BackgroundImageFix"/>
<feColorMatrix in="SourceAlpha" type="matrix" values="0 0 0 0 0 0 0 0 0 0 0 0 0 0 0 0 0 0 127 0" result="hardAlpha"/>
<feOffset dx="1" dy="1"/>
<feGaussianBlur stdDeviation="2"/>
<feColorMatrix type="matrix" values="0 0 0 0 0 0 0 0 0 0 0 0 0 0 0 0 0 0 0.3 0"/>
<feBlend mode="normal" in2="BackgroundImageFix" result="effect1_dropShadow_1_157"/>
<feBlend mode="normal" in="SourceGraphic" in2="effect1_dropShadow_1_157" result="shape"/>
</filter>
<clipPath id="clip0_1_157">
<rect width="115" height="115" fill="white"/>
</clipPath>
</defs>
</svg>
