<svg width="80" height="80" viewBox="0 0 80 80" fill="none" xmlns="http://www.w3.org/2000/svg">
<g id="Vector">
<path id="Vector_2" fill-rule="evenodd" clip-rule="evenodd" d="M19.6734 52.0089C19.4351 52.0181 19.1968 52.0917 18.9938 52.2297C18.3495 52.6528 18.1642 53.5451 18.579 54.2165C23.248 61.842 31.3151 66.4596 40 66.4596C48.6849 66.4596 56.7696 61.842 61.4298 54.2165C61.624 53.8946 61.6946 53.5083 61.6152 53.1311C61.5357 52.7632 61.3151 52.4412 61.0062 52.2297C60.6972 52.0273 60.3265 51.9537 59.9647 52.0365C59.6028 52.1193 59.2939 52.3493 59.0997 52.6712C54.9426 59.4688 47.7405 63.5713 40 63.5713C32.2595 63.5713 25.0574 59.4688 20.9003 52.6712C20.6355 52.2389 20.1677 51.9813 19.6734 51.9997V52.0089ZM39.9912 28.7738L42.6566 34.8263C42.8596 35.2771 43.2745 35.599 43.7423 35.6542L50.0618 36.4453L45.3927 40.9709C45.0485 41.3112 44.8897 41.8171 44.9779 42.3046L46.2224 48.8447L40.6708 45.5884C40.2559 45.3401 39.744 45.3401 39.3204 45.5884L33.7687 48.8447L35.0044 42.3046C35.1015 41.8079 34.9426 41.302 34.5896 40.9709L29.9206 36.4453L36.2312 35.6634C36.7078 35.599 37.1227 35.2863 37.3168 34.8263L39.9823 28.783L39.9912 28.7738ZM39.9912 23.8895C39.4528 23.8895 38.9673 24.2206 38.7467 24.7265L35.1544 32.8763L26.6372 33.9341C26.0988 33.9985 25.6575 34.3848 25.4898 34.9183C25.3221 35.4518 25.4722 36.0405 25.8694 36.4269L32.1712 42.5162L30.5031 51.3282C30.3972 51.8801 30.609 52.4412 31.0415 52.7724C31.4739 53.1035 32.0565 53.1403 32.5243 52.8644L40.0088 48.4767L47.4934 52.8644C47.9611 53.1403 48.5437 53.1035 48.9762 52.7724C49.4086 52.4412 49.6205 51.8801 49.5145 51.3282L47.8376 42.5162L54.1306 36.4177C54.5278 36.0405 54.669 35.4518 54.5013 34.9183C54.3336 34.3848 53.8835 33.9985 53.3539 33.9341L44.8455 32.8763L41.2533 24.7265C41.0326 24.2114 40.5384 23.8895 40 23.8895H39.9912ZM39.9912 13.5413C31.3151 13.5413 23.2392 18.1589 18.5702 25.7843C18.1642 26.4558 18.3495 27.3389 18.985 27.7712C19.6293 28.1943 20.4766 28.0011 20.8914 27.3389C25.0485 20.5412 32.2506 16.4204 39.9912 16.4204C47.7317 16.4204 54.9426 20.532 59.0997 27.3389C59.5057 28.0103 60.3618 28.2127 61.0062 27.7804C61.6505 27.3572 61.8358 26.465 61.421 25.7935C56.7608 18.1681 48.6672 13.5413 39.9912 13.5413ZM50.2824 2.87115C50.6619 2.87115 51.0591 2.93553 51.4475 3.07351C53.0362 3.60702 53.8482 4.94078 54.8014 6.85405C55.7546 8.76731 56.7167 11.1681 58.8967 12.8054C61.0679 14.4519 63.5657 14.6543 65.6046 15.0038C67.6434 15.3534 69.1085 15.7397 70.0971 17.147C71.0856 18.5544 70.9797 20.1273 70.6796 22.2521C70.3707 24.377 69.797 26.9157 70.6355 29.5741C71.4739 32.2324 73.3716 33.9341 74.8279 35.461C76.2842 36.988 77.2462 38.2021 77.255 39.9498C77.255 41.6883 76.293 42.9025 74.8455 44.4387C73.398 45.9748 71.5004 47.6765 70.6796 50.3348C69.8499 53.0023 70.4325 55.5319 70.7502 57.6567C71.0679 59.7816 71.165 61.3545 70.1853 62.771C69.2056 64.1876 67.7405 64.5739 65.7017 64.9235C63.6628 65.273 61.1738 65.4846 59.0026 67.1403C56.8314 68.7868 55.8694 71.1968 54.925 73.11C53.9806 75.0233 53.1774 76.3662 51.5799 76.8997C49.9912 77.4425 48.5878 76.8538 46.7431 75.8971C44.8985 74.9313 42.7537 73.5791 40.0706 73.5883C37.3875 73.5883 35.2515 74.9497 33.4069 75.9247C31.5622 76.8906 30.1589 77.4792 28.5702 76.9457C26.9815 76.4122 26.1783 75.0693 25.2251 73.1652C24.2718 71.2519 23.3098 68.8512 21.1297 67.2139C18.9585 65.5673 16.4607 65.3558 14.4219 65.0154C12.383 64.6659 10.9179 64.2888 9.92939 62.8814C8.94086 61.4649 9.04677 59.9011 9.34686 57.7763C9.65578 55.6515 10.2295 53.1127 9.39099 50.4544C8.55251 47.7961 6.66372 46.0944 5.20741 44.5674C3.7511 43.0405 2.78023 41.8355 2.78023 40.0878C2.78023 38.3493 3.74228 37.1351 5.18976 35.599C6.63724 34.0721 8.53486 32.3704 9.35569 29.7028C10.1765 27.0353 9.60282 24.5057 9.29391 22.3809C8.97617 20.2561 8.87908 18.6832 9.85878 17.2666C10.8385 15.8501 12.3036 15.4637 14.3424 15.1142C16.3813 14.7647 18.8702 14.5439 21.0415 12.8974C23.2127 11.2509 24.1747 8.8409 25.1191 6.92763C26.0635 5.01437 26.8667 3.6806 28.4642 3.1379C30.0529 2.59519 31.4563 3.17469 33.301 4.14052C35.1456 5.10635 37.2904 6.45852 39.9735 6.44932C42.6566 6.44932 44.7926 5.08796 46.6372 4.11293C48.0229 3.38626 49.1527 2.88034 50.3089 2.88954L50.2824 2.87115ZM50.3795 0.00124979C48.5172 -0.0355438 46.8314 0.746319 45.3663 1.51898C43.4157 2.5492 41.6946 3.54263 39.9382 3.54263C38.1818 3.54263 36.4607 2.5584 34.5101 1.53738C32.5596 0.516359 30.2118 -0.532257 27.5816 0.369185C24.9514 1.26143 23.6452 3.55183 22.6478 5.57547C21.6417 7.59912 20.8208 9.45719 19.3998 10.5334C17.9788 11.6096 16.0282 11.8672 13.8747 12.2351C11.7123 12.6122 9.23212 13.2009 7.60812 15.5373C5.98411 17.8737 6.22242 20.5136 6.54898 22.7673C6.88438 25.0209 7.25507 27.0353 6.71668 28.7738C6.17829 30.5123 4.74845 31.9196 3.20388 33.5386C1.66814 35.1759 0 37.1719 0 40.0602C0 42.9485 1.68579 44.9446 3.23036 46.5635C4.77493 48.1824 6.20476 49.5805 6.75198 51.319C7.2992 53.0575 6.92851 55.072 6.59311 57.3256C6.26655 59.5792 6.04589 62.2191 7.6699 64.5555C9.30273 66.8919 11.7829 67.4714 13.9453 67.8393C16.1077 68.2073 18.0582 68.4556 19.4792 69.5318C20.9003 70.6081 21.7387 72.4569 22.7449 74.4806C23.7511 76.5042 25.0574 78.7854 27.6964 79.6685C30.3266 80.5515 32.6743 79.5029 34.6249 78.4819C36.5754 77.4517 38.2965 76.4582 40.0441 76.4582C41.8005 76.4582 43.5216 77.4425 45.481 78.4635C47.4316 79.4845 49.7793 80.5239 52.4095 79.6317C55.0397 78.7394 56.3371 76.4582 57.3433 74.4254C58.3495 72.4017 59.1791 70.5437 60.6002 69.4675C62.0212 68.3912 63.9717 68.1337 66.1253 67.7658C68.2877 67.3886 70.7678 66.7999 72.3918 64.4635C74.0159 62.1271 73.7775 59.4872 73.451 57.2336C73.1156 54.98 72.7449 52.9656 73.2833 51.2271C73.8305 49.4886 75.2603 48.0812 76.7961 46.4623C78.3318 44.8342 80.0088 42.8381 80 39.959C80 37.0707 78.3142 35.0747 76.7784 33.4558C75.2339 31.8369 73.7952 30.4387 73.2568 28.7094C72.7096 26.9709 73.0803 24.9565 73.4069 22.7029C73.7334 20.4493 73.9629 17.8093 72.3301 15.4729C70.6972 13.1365 68.2171 12.557 66.0547 12.1891C63.8923 11.8212 61.9417 11.5728 60.5207 10.4966C59.0997 9.42959 58.2701 7.57152 57.2551 5.53868C56.2489 3.51503 54.9338 1.24303 52.3036 0.350788C51.6416 0.130027 51.0062 0.0288449 50.3883 0.0196466L50.3795 0.00124979Z" fill="white"/>
</g>
</svg>
