<svg width="39" height="53" viewBox="0 0 39 53" fill="none" xmlns="http://www.w3.org/2000/svg">
<g id="Group 20">
<path id="Vector" fill-rule="evenodd" clip-rule="evenodd" d="M18.4373 39.8737C17.8016 39.8737 17.3883 39.9319 17.1499 39.9849V48.2288C17.3936 48.2871 17.7857 48.2871 18.1407 48.2871C20.7208 48.3083 22.4003 46.8884 22.4003 43.879C22.4215 41.2618 20.8851 39.879 18.4373 39.879V39.8737Z" fill="#DD3D3D"/>
<path id="Vector_2" fill-rule="evenodd" clip-rule="evenodd" d="M7.42814 39.8365C6.85064 39.8365 6.45328 39.8948 6.25195 39.9478V43.6671C6.49567 43.7254 6.79236 43.7413 7.20561 43.7413C8.72088 43.7413 9.65335 42.973 9.65335 41.6856C9.65335 40.5306 8.84803 39.8365 7.42814 39.8365Z" fill="#DD3D3D"/>
<path id="Vector_3" d="M2.07686 35.2643V2.07686H26.1356V12.7049C26.1356 13.2771 26.6019 13.7433 27.1741 13.7433H36.3504V35.2643H2.07686ZM34.9994 40.1174H30.1569V42.9942H34.6815V45.3148H30.1569V50.3798H27.2959V37.7809H34.9994V40.1174ZM23.3329 48.8857C22.0084 49.9878 19.9898 50.5123 17.5209 50.5123C16.0427 50.5123 14.999 50.4169 14.2837 50.3268V37.9504C15.3328 37.7809 16.6944 37.6908 18.1355 37.6908C20.5302 37.6908 22.0826 38.12 23.2958 39.0365C24.6045 40.0061 25.4257 41.5584 25.4257 43.7837C25.4257 46.1943 24.5462 47.8579 23.3276 48.8857H23.3329ZM11.3168 44.6049C10.3472 45.5214 8.90614 45.9294 7.22134 45.9294C6.85047 45.9294 6.51139 45.9082 6.25178 45.8711V50.3745H3.42788V37.9451C4.30737 37.7968 5.54183 37.6855 7.27962 37.6855C9.0174 37.6855 10.2889 38.0193 11.1313 38.6922C11.9367 39.3279 12.4771 40.377 12.4771 41.6061C12.4771 42.8353 12.0691 43.8843 11.3168 44.5943V44.6049ZM38.4114 12.689C38.4114 12.4453 38.3319 12.2069 38.1677 12.0161L27.9582 0.354974C27.9582 0.354974 27.9529 0.354974 27.9476 0.344378C27.884 0.275502 27.8151 0.222521 27.741 0.16954C27.7198 0.153645 27.6933 0.143049 27.6721 0.132453C27.6085 0.0953661 27.5396 0.0688756 27.4655 0.0476831C27.4443 0.0476831 27.4284 0.0370868 27.4072 0.0264906C27.333 0.00529812 27.2482 0 27.1688 0H2.07686C0.932469 0 0 0.932469 0 2.07686V50.8831C0 52.0275 0.932469 52.96 2.07686 52.96H36.3451C37.4895 52.96 38.422 52.0275 38.422 50.8831V12.8109C38.422 12.7738 38.4167 12.7314 38.4114 12.6943V12.689Z" fill="#DD3D3D"/>
<path id="Vector_4" d="M32.0006 25.4946C31.7622 26.374 31.3013 26.4959 30.8774 26.4959C30.3847 26.4959 29.9132 26.2893 29.8072 26.2416C28.5833 25.4734 27.3277 24.6363 26.0614 23.7462H26.0932C28.2601 23.7462 29.7065 23.8786 29.7595 23.8786C30.1198 23.8945 31.2695 24.0588 31.7622 24.6416C31.9529 24.8694 32.0271 25.1396 31.9953 25.4946H32.0006ZM11.3591 24.6204L11.3803 24.5303C12.0585 21.8812 13.0334 17.9924 13.595 15.497L13.6161 15.5182V15.5076C15.4334 17.2189 18.2202 19.7249 21.558 22.3263H21.5209L21.5792 22.3687C18.4374 22.6336 14.6811 23.2535 11.3644 24.6204H11.3591ZM12.0585 11.7989C10.7075 10.2943 10.7234 9.54722 10.7975 9.29291C10.9194 8.87436 11.4545 8.71542 11.4598 8.71012C11.73 8.63595 11.8943 8.65184 12.0426 8.81078C12.3764 9.17635 12.6572 10.2784 12.5459 12.2916C12.228 11.9685 12.0532 11.7936 12.0532 11.7936L12.0585 11.7989ZM6.46369 30.745C6.46369 30.745 6.45309 30.7238 6.44779 30.7185C6.36302 30.5119 6.46898 30.0086 6.61733 29.6377C7.269 28.9065 8.05312 28.239 8.9591 27.635C8.07961 30.4854 6.79747 30.7344 6.46369 30.7503V30.745ZM29.8655 22.321C29.8072 22.3157 28.3396 22.1832 26.0985 22.1832C25.3939 22.1832 24.6839 22.1991 23.9846 22.2203C19.5447 18.8931 15.9155 15.5606 13.9711 13.6957C14.0082 13.489 14.0294 13.3248 14.04 13.2029C14.2943 10.4956 14.0135 8.66774 13.1976 7.76705C12.6625 7.17896 11.8784 6.98293 11.0572 7.21075C10.5485 7.34321 9.61077 7.83593 9.30878 8.84257C8.97499 9.94988 9.5101 11.2956 10.9141 12.8585C10.9353 12.8797 11.4121 13.3778 12.2757 14.2255C11.7141 16.9116 10.2412 22.7025 9.526 25.484C7.84649 26.3793 6.44779 27.4602 5.36168 28.6999L5.2928 28.7794L5.24512 28.8748C5.13386 29.1079 4.59875 30.3264 5.00141 31.3013C5.18154 31.7463 5.52592 32.0695 5.99215 32.2391L6.11931 32.2709C6.11931 32.2709 6.23057 32.2973 6.4319 32.2973C7.29549 32.2973 9.43593 31.8417 10.5856 27.6138L10.8611 26.5436C14.8665 24.5939 19.8679 23.9687 23.4971 23.7939C25.3621 25.1767 27.2164 26.4482 29.0178 27.5714L29.0761 27.6085C29.1608 27.6509 29.9555 28.043 30.8774 28.043C32.1967 28.043 33.1609 27.2323 33.5212 25.8177L33.5424 25.7224C33.643 24.9171 33.4417 24.1912 32.9543 23.619C31.937 22.4217 30.0403 22.3157 29.8655 22.3104V22.321Z" fill="#DD3D3D"/>
</g>
</svg>
