<svg width="50" height="51" viewBox="0 0 50 51" fill="none" xmlns="http://www.w3.org/2000/svg">
<path d="M46.5585 37.444L46.5584 37.4442C44.7829 40.5252 42.3542 43.163 39.507 45.2267C35.4328 48.1517 30.4188 49.9012 25.0131 49.9012C19.6072 49.9012 14.6195 48.1778 10.5192 45.2266L10.5191 45.2266C7.64652 43.1635 5.24371 40.4996 3.46765 37.4438C1.35231 33.7875 0.125 29.5309 0.125 25.0131C0.125 20.4948 1.32635 16.2384 3.46744 12.5829L3.46788 12.5821C5.24366 9.50061 7.64621 6.86296 10.5191 4.7997C14.5933 1.87462 19.6074 0.125 25.0131 0.125C30.4191 0.125 35.4068 1.84849 39.507 4.79962L39.5071 4.79969C42.3797 6.86274 44.7825 9.52663 46.5586 12.5825C48.6737 16.2383 49.875 20.4949 49.875 25.0131C49.875 29.5315 48.6736 33.7881 46.5585 37.444Z" fill="white" stroke="black" stroke-width="0.25"/>
<path d="M46.6667 12.5459H3.35962C5.1444 9.44884 7.55909 6.79792 10.4462 4.72443H39.5538C42.441 6.79792 44.8557 9.47508 46.6405 12.5459H46.6667Z" fill="#0527A9"/>
<path d="M46.6667 37.5066C44.8819 40.6037 42.441 43.2546 39.5801 45.3281H10.4462C7.55909 43.2546 5.1444 40.5775 3.35962 37.5066H46.6667Z" fill="#0527A9"/>
<path d="M34.3307 19.6063H28.0578L24.9869 14.2782L21.916 19.6063H15.6431L18.7664 25.0394L15.6431 30.4724H21.916L24.9869 35.8005L28.0578 30.4724H34.3307L31.2074 25.0394L34.3307 19.6063ZM31.3649 21.3123L30.21 23.2808L29.0551 21.3123H31.3386H31.3649ZM25.0131 17.7165L26.1155 19.6063H23.937L25.0394 17.7165H25.0131ZM18.6352 21.3123H20.9187L19.7638 23.2808L18.6089 21.3123H18.6352ZM18.6352 28.7401L19.79 26.7454L20.9449 28.7401H18.6614H18.6352ZM25.0131 32.3359L23.9108 30.4462H26.0893L24.9869 32.3359H25.0131ZM27.0866 28.7401H22.9134L20.7874 25.0394L22.9134 21.3386H27.0866L29.2126 25.0394L27.0866 28.7401ZM31.3649 28.7401H29.0814L30.2362 26.7454L31.3911 28.7401H31.3649Z" fill="#0527A9"/>
</svg>
