<svg width="58" height="58" viewBox="0 0 58 58" fill="none" xmlns="http://www.w3.org/2000/svg">
<g id="Group 156" filter="url(#filter0_d_201_6772)">
<path id="Vector" d="M29.0044 0C18.1348 0 8.87242 6.97006 5.42969 16.6638H52.5706C49.1363 6.97006 39.8655 0 29.0044 0Z" fill="black"/>
<path id="Vector_2" d="M54 25.0043C54 22.086 53.4925 19.2777 52.5705 16.6724H5.42954C4.50753 19.2777 4 22.086 4 25.0043C4 27.9226 4.50753 30.7309 5.42954 33.3362H52.5705C53.4925 30.7309 54 27.9226 54 25.0043Z" fill="#CB0000"/>
<path id="Vector_3" d="M5.42969 33.3362C8.87242 43.0384 18.1348 50 29.0044 50C39.8739 50 49.1363 43.03 52.5791 33.3362H5.42969Z" fill="#FAC100"/>
</g>
<defs>
<filter id="filter0_d_201_6772" x="0" y="0" width="58" height="58" filterUnits="userSpaceOnUse" color-interpolation-filters="sRGB">
<feFlood flood-opacity="0" result="BackgroundImageFix"/>
<feColorMatrix in="SourceAlpha" type="matrix" values="0 0 0 0 0 0 0 0 0 0 0 0 0 0 0 0 0 0 127 0" result="hardAlpha"/>
<feOffset dy="4"/>
<feGaussianBlur stdDeviation="2"/>
<feComposite in2="hardAlpha" operator="out"/>
<feColorMatrix type="matrix" values="0 0 0 0 0 0 0 0 0 0 0 0 0 0 0 0 0 0 0.25 0"/>
<feBlend mode="normal" in2="BackgroundImageFix" result="effect1_dropShadow_201_6772"/>
<feBlend mode="normal" in="SourceGraphic" in2="effect1_dropShadow_201_6772" result="shape"/>
</filter>
</defs>
</svg>
