<svg width="50" height="50" viewBox="0 0 50 50" fill="none" xmlns="http://www.w3.org/2000/svg">
<rect width="50" height="50"/>
<g clip-path="url(#clip0_0_1)">
<rect width="375" height="3927" transform="translate(-40 -1422)"/>
<rect width="335" height="338" transform="translate(-20 -20)"/>
<path d="M25.0044 0C14.1348 0 4.87242 6.97006 1.42969 16.6638H48.5706C45.1363 6.97006 35.8655 0 25.0044 0Z" fill="black"/>
<path d="M50 25.0043C50 22.086 49.4925 19.2777 48.5705 16.6724H1.42954C0.507528 19.2777 0 22.086 0 25.0043C0 27.9226 0.507528 30.7309 1.42954 33.3362H48.5705C49.4925 30.7309 50 27.9226 50 25.0043Z" fill="#CB0000"/>
<path d="M1.42969 33.3362C4.87242 43.0384 14.1348 50 25.0044 50C35.8739 50 45.1363 43.03 48.5791 33.3362H1.42969Z" fill="#FAC100"/>
</g>
<defs>
<clipPath id="clip0_0_1">
<rect width="375" height="3927" transform="translate(-40 -1422)"/>
</clipPath>
</defs>
</svg>
