<svg width="50" height="50" viewBox="0 0 50 50" fill="none" xmlns="http://www.w3.org/2000/svg">
<path d="M49.9999 25.004C49.9999 14.1372 43.032 4.8735 33.3333 1.43384V48.5742C43.032 45.1345 49.9999 35.8708 49.9999 25.004Z" fill="#BB142A"/>
<path d="M25.0041 50C27.9282 50 30.7315 49.4925 33.3334 48.5742V1.43386C30.7235 0.507491 27.9202 0 25.0041 0C22.088 0 19.2767 0.507491 16.6748 1.43386V48.5742C19.2848 49.5006 22.088 50 25.0041 50Z" fill="white"/>
<path d="M16.6667 1.43384C6.96794 4.8735 0 14.1372 0 25.004C0 35.8708 6.96794 45.1345 16.6667 48.5742V1.43384Z" fill="#1E8132"/>
</svg>
