<svg width="58" height="58" viewBox="0 0 58 58" fill="none" xmlns="http://www.w3.org/2000/svg">
<g id="Group 158" filter="url(#filter0_d_201_6824)">
<path id="Vector" d="M53.9999 25.004C53.9999 14.1372 47.032 4.8735 37.3333 1.43384V48.5742C47.032 45.1345 53.9999 35.8708 53.9999 25.004Z" fill="#BB142A"/>
<path id="Vector_2" d="M29.0041 50C31.9282 50 34.7315 49.4925 37.3334 48.5742V1.43386C34.7235 0.507491 31.9202 0 29.0041 0C26.088 0 23.2767 0.507491 20.6748 1.43386V48.5742C23.2848 49.5006 26.088 50 29.0041 50Z" fill="white"/>
<path id="Vector_3" d="M20.6667 1.43384C10.9679 4.8735 4 14.1372 4 25.004C4 35.8708 10.9679 45.1345 20.6667 48.5742V1.43384Z" fill="#1E8132"/>
</g>
<defs>
<filter id="filter0_d_201_6824" x="0" y="0" width="58" height="58" filterUnits="userSpaceOnUse" color-interpolation-filters="sRGB">
<feFlood flood-opacity="0" result="BackgroundImageFix"/>
<feColorMatrix in="SourceAlpha" type="matrix" values="0 0 0 0 0 0 0 0 0 0 0 0 0 0 0 0 0 0 127 0" result="hardAlpha"/>
<feOffset dy="4"/>
<feGaussianBlur stdDeviation="2"/>
<feComposite in2="hardAlpha" operator="out"/>
<feColorMatrix type="matrix" values="0 0 0 0 0 0 0 0 0 0 0 0 0 0 0 0 0 0 0.25 0"/>
<feBlend mode="normal" in2="BackgroundImageFix" result="effect1_dropShadow_201_6824"/>
<feBlend mode="normal" in="SourceGraphic" in2="effect1_dropShadow_201_6824" result="shape"/>
</filter>
</defs>
</svg>
