<svg width="88" height="88" viewBox="0 0 88 88" fill="none" xmlns="http://www.w3.org/2000/svg">
<g clip-path="url(#clip0_184_1932)">
<path d="M61.4682 73.3107C60.1242 72.2278 58.4115 71.2986 56.4378 70.5459C57.9507 67.8042 59.2102 64.5939 60.1626 61.0688H73.5488C70.6304 66.0992 66.4602 70.3232 61.4682 73.3107ZM55.4701 72.1741C57.0906 72.7654 58.519 73.4797 59.6864 74.3091C56.937 75.7376 53.9725 76.8051 50.8544 77.4426C52.5133 76.1446 54.0723 74.3782 55.4701 72.1741ZM28.3136 74.3091C29.481 73.4874 30.9094 72.7654 32.5299 72.1741C33.9354 74.3782 35.4944 76.1523 37.161 77.4426C34.0352 76.8051 31.0707 75.7376 28.3136 74.3091ZM14.4512 61.0688H27.8374C28.7974 64.6016 30.057 67.8195 31.5622 70.5459C29.5885 71.2986 27.8758 72.2278 26.5318 73.3107C21.5398 70.3232 17.3773 66.0992 14.4512 61.0688ZM26.5318 14.6893C27.8758 15.7722 29.5885 16.7014 31.5622 17.4541C30.057 20.1805 28.7974 23.3984 27.8374 26.9312H14.4512C17.3696 21.9008 21.5398 17.6768 26.5318 14.6893ZM43.0669 19.5354V26.9312H29.7805C30.7328 23.5597 31.9462 20.5645 33.367 18.0608C36.2624 18.9363 39.5878 19.4586 43.0669 19.5354ZM32.5299 15.8336C30.9094 15.2422 29.4886 14.528 28.3136 13.6986C31.0707 12.2701 34.0352 11.2026 37.161 10.5651C35.5021 11.863 33.9354 13.6294 32.5299 15.8336ZM52.6362 12.1702C52.0602 11.5635 51.4611 11.0336 50.8544 10.5574C53.9725 11.1949 56.937 12.2624 59.6864 13.6909C58.519 14.5203 57.0906 15.2346 55.4624 15.8259C54.5792 14.4358 53.6346 13.207 52.6362 12.1702ZM44.9331 9.92768C48.0589 10.3117 51.0848 12.608 53.6192 16.425C51.0157 17.1622 48.0512 17.5923 44.9331 17.6691V9.92768ZM43.0669 17.6691C39.9488 17.6 36.9766 17.1622 34.3731 16.425C36.8691 12.6541 39.872 10.3117 43.0669 9.92768V17.6691ZM44.9331 70.3309C48.0512 70.4 51.0234 70.8378 53.6269 71.575C51.0694 75.4381 48.0512 77.6883 44.9331 78.0723V70.3309ZM43.0669 78.0723C39.8797 77.6883 36.8768 75.3459 34.3731 71.575C36.9766 70.8378 39.9488 70.4077 43.0669 70.3309V78.0723ZM73.5488 26.9312H67.4893C66.9747 26.9312 66.5523 27.3459 66.5523 27.8682C66.5523 28.3904 66.967 28.8051 67.4893 28.8051H74.5549C76.713 33.1213 77.9802 37.952 78.1184 43.0669H60.5082C59.9936 43.0669 59.5712 43.4816 59.5712 44.0038C59.5712 44.5261 59.9859 44.9408 60.5082 44.9408H78.1184C77.9802 50.0557 76.713 54.8864 74.5549 59.2026H60.6387C61.4528 55.7312 61.9904 51.9987 62.2131 48.1357C62.2438 47.6211 61.8522 47.1757 61.3376 47.145C60.8307 47.1142 60.3776 47.5059 60.3469 48.0205C60.1242 51.9373 59.5635 55.7158 58.7187 59.1949H49.6717C49.1571 59.1949 48.7347 59.6173 48.7347 60.1318C48.7347 60.6464 49.1494 61.0688 49.6717 61.0688H58.2272C57.3286 64.2637 56.169 67.1667 54.7942 69.6627C54.7405 69.7549 54.6944 69.847 54.6406 69.9392C51.7453 69.0637 48.4198 68.5414 44.9485 68.4646V66.8442C44.9485 66.3296 44.5338 65.9072 44.0115 65.9072C43.4893 65.9072 43.0746 66.3219 43.0746 66.8442V68.4646C39.5955 68.5414 36.2778 69.0637 33.3824 69.9392C31.9616 67.4355 30.7405 64.4403 29.7882 61.0765H38.3667C38.8813 61.0765 39.3037 60.6618 39.3037 60.1395C39.3037 59.6173 38.889 59.2026 38.3667 59.2026H29.2966C28.713 56.7987 28.2598 54.2336 27.9603 51.5302C27.9066 51.0157 27.4381 50.647 26.9312 50.7008C26.4166 50.7546 26.048 51.223 26.1018 51.7299C26.3859 54.3104 26.816 56.8141 27.3766 59.1949H13.4451C11.287 54.8787 10.0198 50.048 9.8816 44.9331H21.7165C22.231 44.9331 22.6534 44.5184 22.6534 43.9962C22.6534 43.4739 22.2387 43.0592 21.7165 43.0592H9.8816C10.0198 37.952 11.287 33.1136 13.4451 28.7974H27.369C26.8006 31.2013 26.3706 33.7357 26.0864 36.3392C26.0326 36.8538 26.4013 37.3146 26.9158 37.3683C26.9466 37.3683 26.985 37.3683 27.0157 37.3683C27.4842 37.3683 27.8912 37.015 27.945 36.5312C28.2445 33.8048 28.6976 31.209 29.289 28.7821H43.0669V32.361C43.0669 32.8755 43.4816 33.2979 44.0038 33.2979C44.5261 33.2979 44.9408 32.8832 44.9408 32.361V28.7821H51.6608C52.1754 28.7821 52.5978 28.3674 52.5978 27.8451C52.5978 27.3229 52.183 26.9082 51.6608 26.9082H44.9408V19.5123C48.4122 19.4355 51.7376 18.9133 54.633 18.0454C55.5469 19.6582 56.3917 21.4784 57.129 23.4982C57.3056 23.9821 57.8432 24.2355 58.327 24.0589C58.8109 23.8822 59.0643 23.3446 58.8877 22.8608C58.1658 20.8947 57.344 19.0746 56.4454 17.4387C58.4192 16.6861 60.1318 15.7568 61.4835 14.6739C66.4755 17.6614 70.6381 21.8854 73.5642 26.9158L73.5488 26.9312ZM80 44.0038C80 38.0902 78.5638 32.5069 76.0294 27.5763C75.9987 27.4765 75.945 27.3843 75.8835 27.2998C72.704 21.2557 67.8579 16.2176 61.9597 12.8077C61.8829 12.7462 61.7984 12.7002 61.7139 12.6694C56.4838 9.69728 50.4397 8 44.0038 8C37.568 8 31.5238 9.69728 26.2861 12.6694C26.2016 12.7002 26.1171 12.7462 26.0403 12.8077C20.1421 16.2176 15.296 21.2557 12.1165 27.2998C12.055 27.3843 12.009 27.4765 11.9706 27.5763C9.43616 32.4992 8 38.0902 8 44.0038C8 49.9174 9.43616 55.5008 11.9706 60.4314C12.0013 60.5312 12.055 60.6234 12.1165 60.7078C15.296 66.752 20.1344 71.7824 26.025 75.1923C26.1094 75.2614 26.2016 75.3152 26.3014 75.3459C31.5238 78.3104 37.5603 80 43.9808 80.0077H44.0115C50.4397 80.0077 56.4762 78.3104 61.7062 75.3382C61.7984 75.3075 61.8752 75.2538 61.952 75.2C67.8502 71.7901 72.6963 66.752 75.8758 60.7078C75.9373 60.6234 75.9834 60.5312 76.0218 60.4314C78.5562 55.5085 79.9923 49.9174 79.9923 44.0038H80ZM47.0221 48.9114C48.5197 43.9731 51.9296 39.5648 57.4208 35.4867C57.8355 35.1795 57.92 34.5958 57.6128 34.1811C57.3056 33.7664 56.7219 33.6819 56.3072 33.9891C51.1002 37.8675 47.6365 42.0531 45.8163 46.7072C45.033 42.0454 45.417 36.9382 49.5872 34.089C51.6531 32.6758 53.7421 31.785 55.7696 30.9248C58.3654 29.8189 60.8461 28.759 62.5818 26.7546C62.4435 36.5926 56.3072 45.4246 47.0221 48.919V48.9114ZM26.048 42.4448C27.6992 43.4202 29.6576 43.712 31.6851 44.0115C33.3824 44.265 35.1411 44.5338 36.9766 45.1942C40.3789 46.4154 41.7075 49.7638 42.1299 53.1661C39.8106 50.2323 36.4621 47.8899 31.9846 46.0774C31.5085 45.8854 30.9632 46.1158 30.7635 46.592C30.5715 47.0682 30.8019 47.6134 31.2781 47.8131C36.0474 49.7485 39.4112 52.2906 41.5232 55.5469C34.2195 54.6022 28.183 49.449 26.048 42.4602V42.4448ZM55.04 29.1891C53.0278 30.0493 50.7546 31.017 48.535 32.5299C43.6813 35.8477 42.3834 42.0992 44.7872 50.5933C45.5936 53.4579 45.6781 56.0077 45.0483 58.2733C44.7872 57.6512 44.4877 57.0214 44.1498 56.384C44.2496 49.4874 41.984 45.0099 37.5987 43.4355C35.5942 42.7136 33.6589 42.4218 31.9539 42.1683C29.0432 41.7306 26.7392 41.385 25.257 39.1885C25.0112 38.8275 24.5504 38.6816 24.1434 38.8429C23.7363 39.0042 23.4906 39.4189 23.552 39.849C24.9267 49.5642 32.9062 56.9139 42.6291 57.5283C43.2128 58.6573 43.6582 59.7632 43.9501 60.8384C43.3357 61.8906 42.5216 62.8659 41.5155 63.7722C41.1315 64.1178 41.1008 64.7091 41.4541 65.0931C41.6384 65.3005 41.8918 65.4003 42.1453 65.4003C42.368 65.4003 42.5984 65.3158 42.775 65.1546C43.9962 64.0486 44.9638 62.8429 45.6934 61.545C45.7549 61.4605 45.801 61.376 45.8394 61.2838C47.4061 58.3194 47.7363 54.871 46.807 50.9773C58.3578 47.0835 65.6691 35.6557 64.279 23.4522C64.2253 23.0221 63.8874 22.6765 63.4573 22.6304C63.0272 22.5766 62.6125 22.8378 62.4666 23.2448C61.2992 26.5242 58.5344 27.7069 55.0246 29.1968L55.04 29.1891Z" fill="white"/>
</g>
<defs>
<clipPath id="clip0_184_1932">
<rect width="72" height="72" fill="white" transform="translate(8 8)"/>
</clipPath>
</defs>
</svg>
