<svg width="88" height="88" viewBox="0 0 88 88" fill="none" xmlns="http://www.w3.org/2000/svg">
<g clip-path="url(#clip0_183_1927)">
<path d="M72.7923 47.3517C71.7564 47.3517 70.7205 46.8747 70.0033 46.0797C69.2861 45.2847 68.9674 44.2513 69.0471 43.1383C69.2065 41.3893 70.6408 40.0378 72.3939 39.7994H72.872C73.8282 39.7994 74.7048 40.1173 75.3423 40.7533C76.1391 41.4688 76.6172 42.5023 76.6172 43.5358C76.5296 45.6027 74.8562 47.3517 72.7923 47.3517ZM54.3849 52.8371C54.3052 52.5191 54.2255 52.2011 54.1459 51.8036C54.1459 51.7241 54.0662 51.6446 54.0662 51.4856C53.9865 51.2471 53.9068 51.0086 53.8271 50.8496C53.7474 50.6906 53.7474 50.6111 53.6677 50.5316C53.5881 50.3726 53.5084 50.1341 53.4287 49.9751C53.349 49.8161 53.2693 49.7367 53.2693 49.6572C53.1896 49.4982 53.0303 49.3392 52.9506 49.1007C52.8709 49.0212 52.7912 48.8622 52.7115 48.7827C52.5521 48.6237 52.4725 48.4647 52.3131 48.3057C52.2334 48.2262 52.1537 48.0672 52.074 47.9877C51.9147 47.8287 51.7553 47.6697 51.5959 47.5107L51.3569 47.2722C51.1178 47.0337 50.8787 46.8747 50.6397 46.6362H50.56C50.3209 46.3977 50.0022 46.2387 49.7631 46.0002C49.6835 45.9207 49.6038 45.9207 49.5241 45.8412C49.3647 45.6822 49.1257 45.6027 48.9663 45.4437C48.8866 45.3642 48.7272 45.2847 48.6475 45.2847C48.4882 45.2052 48.2491 45.1257 48.0897 45.0462C47.9304 44.9667 47.8507 44.9667 47.6913 44.8872H47.6116C48.8069 43.7743 49.5241 42.2638 49.5241 40.5148C49.5241 37.2554 46.8148 34.5525 43.5477 34.5525C40.2805 34.5525 37.5712 37.2554 37.5712 40.5148C37.5712 42.2638 38.2884 43.7743 39.4837 44.8872H39.404C39.2446 44.9667 39.1649 44.9667 39.0056 45.0462C38.8462 45.1257 38.6071 45.2052 38.4478 45.2847C38.3681 45.3642 38.2087 45.3642 38.129 45.4437C37.89 45.5232 37.7306 45.6822 37.5712 45.8412C37.4915 45.9207 37.4119 45.9207 37.3322 46.0002C37.0931 46.1592 36.7744 46.3977 36.5353 46.6362H36.4556C36.2166 46.8747 35.9775 47.0337 35.7385 47.2722L35.0213 47.9877C34.9416 48.0672 34.8619 48.2262 34.7822 48.3057C34.6229 48.4647 34.5432 48.6237 34.3838 48.7827C34.3041 48.8622 34.2244 49.0212 34.1447 49.1007C34.0651 49.2597 33.9057 49.4187 33.826 49.6572C33.7463 49.7367 33.6666 49.8956 33.6666 49.9751C33.5869 50.1341 33.5073 50.3726 33.4276 50.5316C33.3479 50.6111 33.3479 50.7701 33.2682 50.8496C33.1885 51.0881 33.1088 51.3266 33.0291 51.4856C33.0291 51.5651 32.9495 51.6446 32.9495 51.8036C32.8698 52.1216 32.7901 52.4396 32.7104 52.8371C30.3278 50.2136 29.1325 46.9542 29.1325 43.5358C29.1325 35.6654 35.5871 29.2261 43.4759 29.2261C51.3648 29.2261 57.8194 35.6654 57.8194 43.5358C57.8194 46.9542 56.6241 50.2136 54.3929 52.8371H54.3849ZM39.8821 40.3558C39.8821 38.3684 41.4758 36.7784 43.468 36.7784C45.4601 36.7784 47.0538 38.3684 47.0538 40.3558C47.0538 42.3433 45.4601 43.9333 43.468 43.9333C41.4758 43.9333 39.8821 42.3433 39.8821 40.3558ZM43.468 57.8455C40.2805 57.8455 37.2525 56.812 34.7025 54.904V54.1091C34.7025 53.9501 34.7822 53.7911 34.7822 53.6321C34.7822 53.4731 34.8619 53.3936 34.8619 53.2346C34.8619 53.0756 34.9416 52.9166 34.9416 52.8371C34.9416 52.6781 35.0213 52.5986 35.0213 52.4396C35.101 52.2806 35.101 52.1216 35.1807 52.0421C35.2603 51.8831 35.2603 51.8036 35.34 51.6446C35.4197 51.4856 35.4994 51.4061 35.4994 51.2471C35.5791 51.1676 35.5791 51.0086 35.6588 50.9291C35.7385 50.7701 35.8181 50.6906 35.8978 50.5316C35.9775 50.4521 36.0572 50.2931 36.1369 50.2136C36.2166 50.0546 36.2963 49.9751 36.3759 49.8956C36.4556 49.8161 36.5353 49.6572 36.615 49.5777C36.6947 49.4982 36.7744 49.3392 36.9337 49.2597C37.0134 49.1802 37.0931 49.1007 37.1728 48.9417C37.2525 48.8622 37.4119 48.7032 37.4915 48.6237C37.5712 48.5442 37.6509 48.4647 37.8103 48.3852C37.89 48.3057 38.0493 48.2262 38.2087 48.1467C38.2884 48.0672 38.4478 47.9877 38.5275 47.9082C38.6868 47.8287 38.7665 47.7492 38.9259 47.6697C39.0056 47.5902 39.1649 47.5107 39.2446 47.5107C39.404 47.4312 39.5634 47.3517 39.6431 47.2722C39.7227 47.1927 39.8821 47.1927 39.9618 47.1132C40.1212 47.0337 40.2805 47.0337 40.4399 46.9542C40.5196 46.8747 40.679 46.8747 40.7587 46.7952C40.918 46.7157 41.0774 46.7157 41.2368 46.6362C41.3165 46.6362 41.4758 46.5567 41.5555 46.5567C41.7149 46.5567 41.9539 46.4772 42.1133 46.4772C42.193 46.4772 42.3524 46.4772 42.4321 46.3977C42.7508 46.3977 42.9899 46.3182 43.3086 46.3182C43.6273 46.3182 43.8664 46.3182 44.1851 46.3977C44.2648 46.3977 44.4242 46.3977 44.5039 46.4772C44.6633 46.4772 44.9023 46.5567 45.0617 46.5567C45.1414 46.5567 45.3007 46.6362 45.3804 46.6362C45.5398 46.7157 45.6992 46.7157 45.8585 46.7952C45.9382 46.7952 46.0976 46.8747 46.1773 46.9542C46.3367 47.0337 46.496 47.0337 46.6554 47.1132C46.7351 47.1927 46.8945 47.1927 46.9741 47.2722C47.1335 47.3517 47.2929 47.4312 47.3726 47.5107C47.4523 47.5902 47.6116 47.6697 47.6913 47.6697C47.8507 47.7492 47.9304 47.8287 48.0897 47.9082C48.1694 47.9877 48.3288 48.0672 48.4085 48.1467C48.5679 48.2262 48.6475 48.3057 48.8069 48.3852C48.8866 48.4647 48.9663 48.5442 49.1257 48.6237C49.2053 48.7032 49.3647 48.7827 49.4444 48.9417C49.5241 49.0212 49.6038 49.1007 49.6835 49.2597C49.7631 49.3392 49.9225 49.4982 50.0022 49.5777C50.0819 49.6572 50.1616 49.8161 50.2413 49.8956C50.3209 49.9751 50.4006 50.1341 50.4803 50.2136C50.56 50.2931 50.6397 50.4521 50.7194 50.5316C50.7991 50.6906 50.8787 50.7701 50.9584 50.9291C51.0381 51.0086 51.1178 51.1676 51.1178 51.2471C51.1975 51.4061 51.2772 51.4856 51.2772 51.6446C51.3569 51.8036 51.3569 51.8831 51.4365 52.0421C51.5162 52.2011 51.5162 52.2806 51.5959 52.4396C51.6756 52.5986 51.6756 52.6781 51.6756 52.8371C51.6756 52.9961 51.7553 53.1551 51.7553 53.2346C51.7553 53.3936 51.835 53.4731 51.835 53.6321C51.835 53.7911 51.9147 53.9501 51.9147 54.1091V54.904C49.6914 56.812 46.6634 57.8455 43.4759 57.8455H43.468ZM47.2929 72.7912C47.2929 74.8581 45.6195 76.6071 43.468 76.6071C41.3165 76.6071 39.6431 74.9376 39.6431 72.7912C39.6431 70.6447 41.3961 68.9753 43.468 68.9753C45.5398 68.9753 47.2929 70.6447 47.2929 72.7912ZM39.6431 14.2804C39.6431 12.2134 41.3165 10.4644 43.468 10.4644C45.6195 10.4644 47.2929 12.1339 47.2929 14.2804C47.2929 16.4268 45.6195 18.0168 43.468 18.0963C41.3961 18.0963 39.6431 16.4268 39.6431 14.2804ZM61.4769 61.2639C62.1941 60.5484 63.1503 60.1509 64.1863 60.1509C65.2222 60.1509 66.1784 60.5484 66.8956 61.2639C68.3299 62.6949 68.3299 65.1593 66.8956 66.5903C65.4612 68.0213 62.991 68.0213 61.5566 66.5903C60.0426 65.1593 60.0426 62.7744 61.4769 61.2639ZM25.3793 66.5903C24.6621 67.3058 23.6262 67.7033 22.5903 67.7033C21.5544 67.7033 20.5982 67.2263 19.881 66.4313C18.6857 65.0798 18.606 62.9334 19.8013 61.5024C20.5185 60.6279 21.6341 60.0714 22.7497 60.0714C23.7856 60.0714 24.7418 60.4689 25.459 61.1844C26.8933 62.7744 26.8933 65.1593 25.3793 66.5903ZM14.1436 47.3517C12.0718 47.3517 10.3984 45.6822 10.3984 43.5358C10.3984 41.3893 12.0718 39.7199 14.1436 39.7199C16.2154 39.7199 17.9685 41.4688 17.9685 43.5358C17.9685 45.6027 16.2951 47.3517 14.1436 47.3517ZM25.698 24.9411C24.9809 25.8156 24.0246 26.2926 22.909 26.3721C21.8731 26.4516 20.7575 26.0541 20.0404 25.2591C18.606 23.8281 18.606 21.3637 20.0404 19.9327C20.7575 19.2172 21.7138 18.8197 22.7497 18.8197C23.945 18.8197 25.1402 19.3762 25.8574 20.4097C26.8216 21.7612 26.7419 23.5817 25.698 24.9411ZM61.4769 19.9248C62.1941 19.2093 63.1503 18.8118 64.1863 18.8118C65.2222 18.8118 66.1784 19.2093 66.8956 19.9248C68.3299 21.3557 68.3299 23.8202 66.8956 25.2511C65.4612 26.6821 62.991 26.6821 61.5566 25.2511C60.0426 23.7407 60.0426 21.3557 61.4769 19.9248ZM76.8563 38.9249C75.5813 37.7324 73.8282 37.1759 72.0752 37.4144C69.4455 37.7324 67.2143 39.7199 66.7362 42.3433H60.202C59.9629 38.7659 58.6083 35.5064 56.4567 32.883L61.3973 27.9541C62.2738 28.4311 63.3097 28.6696 64.3456 28.6696C65.9394 28.6696 67.5331 28.0336 68.7284 26.8411C71.1189 24.4562 71.1189 20.4812 68.7284 18.0963C67.5331 16.9038 66.019 16.2678 64.3456 16.2678C62.6722 16.2678 61.1582 16.9038 59.9629 18.0963C57.7317 20.3222 57.5723 23.8997 59.5645 26.3641L54.863 31.0545C52.1537 28.5901 48.6475 27.0001 44.8226 26.7616V20.2428C47.6913 19.6863 49.7631 17.1423 49.7631 14.2009C49.7631 10.7824 46.9741 8 43.5477 8C40.1212 8 37.3322 10.7824 37.3322 14.2009C37.3322 17.1423 39.4837 19.6863 42.2727 20.2428V26.7616C38.6868 27.0001 35.34 28.4311 32.7104 30.5775L27.8496 25.7281C29.2042 23.5817 29.2042 20.7992 27.6902 18.7323C26.4949 17.1423 24.6621 16.1883 22.67 16.1883C20.9966 16.1883 19.4826 16.8243 18.2873 18.0168C15.8967 20.4017 15.8967 24.3767 18.2873 26.7616C19.4826 27.9541 20.9966 28.5901 22.67 28.5901H22.9887C24.1043 28.5106 25.2199 28.1131 26.1762 27.4771L30.9573 32.247C28.5667 34.95 26.973 38.3684 26.734 42.1843H20.1997C19.6419 39.3224 17.1717 37.2554 14.1436 37.2554C10.7171 37.2554 8.00781 40.0378 8.00781 43.4563C8.00781 46.8747 10.7968 49.6572 14.1436 49.6572C17.1717 49.6572 19.6419 47.5107 20.1997 44.7283H26.734C26.973 48.3852 28.4074 51.8036 30.8776 54.5066L26.6543 59.1175C25.5387 58.243 24.184 57.766 22.7497 57.766C20.9169 57.766 19.1638 58.561 17.9685 60.0714C16.0561 62.3769 16.1358 65.7953 18.1279 68.1008C19.2435 69.3727 20.8372 70.0882 22.5903 70.1677H22.7497C24.4231 70.1677 25.9371 69.5317 27.1324 68.3393C29.1245 66.3518 29.4433 63.4104 28.1683 61.0254L32.551 56.2555C32.6041 56.3085 32.6573 56.3615 32.7104 56.4145C35.4197 58.6405 38.7665 59.9919 42.193 60.2304V66.7493C39.3243 67.3058 37.2525 69.7702 37.2525 72.7912C37.2525 76.2096 40.0415 78.9921 43.468 78.9921C46.8945 78.9921 49.6835 76.2096 49.6835 72.7912C49.6835 69.7702 47.5319 67.3058 44.7429 66.7493V60.2304C48.2491 59.9919 51.5959 58.6405 54.2255 56.4145L54.3052 56.335L59.1661 60.4689C57.4927 62.8539 57.7317 66.1928 59.8832 68.3393C61.0785 69.5317 62.6722 70.0882 64.2659 70.0882C65.8597 70.0882 67.4534 69.4523 68.6487 68.2598C71.0392 65.8748 71.0392 61.8999 68.6487 59.515C67.4534 58.3225 65.9394 57.6865 64.2659 57.6865C63.0707 57.6865 61.8754 58.0045 60.9192 58.72L56.0583 54.586C58.5286 51.8036 59.9629 48.3852 60.2817 44.7283H66.8159C67.0549 45.7617 67.5331 46.7952 68.2502 47.5902C69.4455 48.9417 71.1189 49.6572 72.872 49.6572C76.2985 49.6572 79.0078 46.8747 79.0078 43.5358C78.9361 41.7789 78.2189 40.1094 76.8563 38.9169V38.9249Z" fill="white"/>
</g>
<defs>
<clipPath id="clip0_183_1927">
<rect width="71" height="71" fill="white" transform="translate(8 8)"/>
</clipPath>
</defs>
</svg>
