<svg width="88" height="88" viewBox="0 0 88 88" fill="none" xmlns="http://www.w3.org/2000/svg">
<g clip-path="url(#clip0_2174_2657)">
<path d="M66.3345 59.156H66.3129C65.6937 59.156 65.1969 59.6528 65.1897 60.272C65.1897 60.8912 65.6793 61.3952 66.2985 61.4096H66.3345C67.8393 61.4096 69.3225 59.7392 70.1361 58.3064C71.0217 56.7368 71.6769 54.4976 70.5897 53.324C70.1793 52.8776 69.4809 52.8416 69.0201 53.2448C68.5665 53.6408 68.5089 54.3392 68.8905 54.8072C68.9553 55.0376 68.8905 55.9376 68.1777 57.1976C67.4433 58.4936 66.5865 59.1272 66.3345 59.1632V59.156Z" fill="white"/>
<path d="M56.0961 73.2462H53.8497V57.4926H56.0961V73.2462ZM51.5961 73.2462H47.3769V57.4926H51.5961V73.2462ZM45.1233 73.2462H42.8769V57.4926H45.1233V73.2462ZM40.6233 73.2462H36.4041V57.4926H40.6233V73.2462ZM34.1577 73.2462H31.9113V57.4926H34.1577V73.2462ZM59.7465 57.4998C60.3657 57.4998 60.8697 56.9958 60.8697 56.3766C60.8697 55.7574 60.3657 55.2534 59.7465 55.2534H28.2465C27.6273 55.2534 27.1233 55.7574 27.1233 56.3766C27.1233 56.9958 27.6273 57.4998 28.2465 57.4998H29.6505V73.2534H28.2465C27.6273 73.2534 27.1233 73.7574 27.1233 74.3766C27.1233 74.9958 27.6273 75.4998 28.2465 75.4998H59.7465C60.3657 75.4998 60.8697 74.9958 60.8697 74.3766C60.8697 73.7574 60.3657 73.2534 59.7465 73.2534H58.3425V57.4998H59.7465Z" fill="white"/>
<path d="M24.8767 78.8766C24.8767 79.4958 25.3807 79.9998 25.9999 79.9998H61.9999C62.6191 79.9998 63.1231 79.4958 63.1231 78.8766C63.1231 78.2574 62.6191 77.7534 61.9999 77.7534H25.9999C25.3807 77.7534 24.8767 78.2574 24.8767 78.8766Z" fill="white"/>
<path d="M39.6871 35.7634C39.9967 35.6842 40.3063 35.6266 40.6231 35.5834V33.3154C40.1191 33.373 39.6223 33.4594 39.1327 33.5818C35.1943 34.6474 32.2927 37.9882 31.7887 42.0418C31.6591 43.1506 31.7023 44.2738 31.9183 45.3754L33.9991 43.8346C33.9703 43.309 33.9775 42.7834 34.0279 42.265C34.4455 39.1618 36.6703 36.6058 39.6871 35.7706V35.7634Z" fill="white"/>
<path d="M25.352 21.8456C25.0208 22.796 24.272 23.4944 22.8464 24.164C22.616 24.272 22.3784 24.38 22.148 24.488C20.5784 25.208 18.9584 25.9496 17.6264 27.5336C16.8344 28.4696 15.2072 29.7512 14.1416 29.708C13.9184 29.708 13.7024 29.6072 13.5512 29.4416C16.0208 24.308 19.7432 19.88 24.38 16.568C24.812 17.3312 25.136 18.152 25.3448 19.0088C25.5752 19.9376 25.5752 20.9168 25.3448 21.8528L25.352 21.8456ZM15.5816 41.9408C15.4448 43.568 15.4664 45.2024 15.6464 46.8224C15.9128 49.1552 17.5904 50.588 19.0664 51.8552C20.4056 53 21.5576 53.9936 21.6728 55.4552C21.6584 56.2976 21.4712 57.1328 21.1256 57.896C20.8952 58.4792 20.7152 59.0768 20.5712 59.6816L20.5424 59.8256C20.2544 60.8552 20.1824 61.9424 20.3264 63.0008C20.5496 64.2392 20.4056 65.348 19.9592 65.816C19.5704 66.1328 19.0664 66.2552 18.584 66.1472C12.1688 58.8536 9.24559 49.1408 10.556 39.5144C11.78 39.5936 15.452 39.9896 15.5816 41.9408ZM44 8C33.5096 8 23.5448 12.572 16.7048 20.528C9.86479 28.4768 6.83359 39.0248 8.40319 49.3928C9.97279 59.7608 15.992 68.9336 24.884 74.4992C24.884 74.456 24.8696 74.4128 24.8696 74.3696C24.8696 73.6064 25.1288 72.8648 25.604 72.2744C23.7536 71.0648 22.0184 69.6824 20.4416 68.1344C20.8664 67.9616 21.2552 67.7024 21.5792 67.364C22.9472 65.9168 22.6952 63.548 22.5296 62.5976C22.4504 61.82 22.5152 61.0352 22.7384 60.2864L22.7672 60.1424C22.8896 59.6384 23.048 59.1416 23.2352 58.6592C23.7032 57.5936 23.9336 56.4416 23.912 55.2824C23.8904 54.9728 23.84 54.6776 23.7608 54.3824C23.1416 53.828 22.7456 53.0576 22.6592 52.2296C22.0184 51.4664 21.3056 50.768 20.528 50.1416C19.196 49.004 18.0512 48.0176 17.8856 46.5632C17.72 45.0656 17.7056 43.5536 17.8352 42.0488C17.8352 42.0128 17.8352 41.9696 17.8352 41.9264C17.756 39.284 15.1856 37.5776 10.9232 37.2824C11.3192 35.324 11.8952 33.4088 12.6368 31.5512C13.076 31.796 13.5656 31.94 14.0624 31.9472C14.0984 31.9472 14.1416 31.9472 14.1848 31.9472C16.28 31.9472 18.4688 30.0104 19.3472 28.9736C20.3552 27.7784 21.6224 27.1952 23.084 26.5256C23.3216 26.4176 23.5664 26.3096 23.804 26.1944C25.0496 25.6112 26.7776 24.6032 27.476 22.58C27.8432 21.2912 27.872 19.9304 27.5624 18.62C27.3032 17.4536 26.8568 16.3304 26.252 15.3008C30.3848 12.7304 35.0288 11.096 39.8672 10.5056C39.8816 10.52 39.896 10.5344 39.9104 10.5488C39.9824 10.9808 40.0112 11.42 39.9896 11.852V12.0824C39.9896 13.1552 39.9608 13.8896 39.4712 14.2928C39.032 14.6024 38.5424 14.8472 38.0312 15.0056C37.7288 15.1208 37.4264 15.236 37.1384 15.3656C35.6912 15.9416 34.3664 16.784 33.2144 17.8352C32.3144 18.7496 32.0552 19.6496 32.444 20.5136C32.6888 21.0536 33.308 21.32 33.8624 21.1112C34.4168 20.9024 34.7192 20.2976 34.5464 19.7288C34.6256 19.6136 34.7192 19.5056 34.82 19.4048C35.7776 18.5552 36.8792 17.8784 38.0672 17.4032C38.312 17.288 38.5712 17.1944 38.8232 17.1008C39.572 16.856 40.2704 16.496 40.8968 16.0208C42.2504 14.9048 42.236 13.2632 42.2288 12.0608V11.8736C42.2432 11.348 42.2144 10.8224 42.1352 10.2968C42.7544 10.2608 43.3664 10.2464 43.9928 10.2464C47.1608 10.2464 50.3144 10.6928 53.3528 11.5784C52.5464 12.9032 52.8704 14.696 53.0864 15.8984C53.1152 16.064 53.144 16.2224 53.1728 16.3736C53.2592 16.8776 53.5112 18.404 53.1584 18.8432C53.1368 18.872 53.0864 18.9368 52.8344 18.9512C52.8056 18.9512 52.784 18.9512 52.7552 18.9512C51.8408 18.8792 45.692 18.5408 45.2384 22.1552C45.224 22.2272 45.224 22.292 45.2168 22.364C45.1952 22.8824 45.116 23.4008 44.9648 23.8976C45.4184 24.0344 45.8432 24.2648 46.2032 24.5816L46.8728 25.1648C47.2328 24.3152 47.4344 23.4152 47.4632 22.4936V22.4576V22.436C47.5928 21.3848 50.5952 21.032 52.6112 21.1976C52.64 21.1976 52.6688 21.1976 52.6904 21.1976C52.784 21.1976 52.8704 21.1976 52.964 21.1976C53.72 21.1832 54.4256 20.8376 54.908 20.2472C55.88 19.0232 55.5704 17.1368 55.3832 16.0064C55.3544 15.8408 55.3256 15.6752 55.2968 15.4952C54.9656 13.6664 54.944 12.7448 55.7072 12.392C55.7216 12.3848 55.736 12.3704 55.7576 12.3632C65.6576 16.0712 73.2536 24.1856 76.3136 34.3016C75.7736 34.4168 75.248 34.5608 74.7224 34.7336C73.6496 35.072 72.728 35.3672 71.5688 35.1224C71.108 34.9784 70.6832 34.748 70.2944 34.46C69.5744 33.8912 68.7104 33.5384 67.8032 33.4304C66.752 33.3656 65.7296 33.8048 65.0456 34.6112C64.3616 35.4176 64.1024 36.4976 64.3328 37.5272C64.4552 37.9592 64.628 38.3696 64.8584 38.7584C65.0168 39.0104 65.1392 39.284 65.2328 39.5648C65.1824 39.5936 65.0024 39.6584 64.3328 39.5936C64.0232 39.5432 63.728 39.464 63.4328 39.3488C62.6624 39.0032 61.8128 38.9024 60.992 39.0536C60.1136 39.248 59.372 39.8456 58.9904 40.6664C58.544 41.7248 58.5944 42.9272 59.12 43.9496C60.02 45.7352 61.3088 46.268 62.4464 46.736C62.9864 46.9304 63.5048 47.1968 63.9872 47.5136C64.0736 47.564 64.1456 47.636 64.2032 47.7224C64.2248 47.9384 63.7712 48.5144 63.4904 48.86C64.1816 49.2056 64.7432 49.7816 65.06 50.4944C65.0816 50.4656 65.1032 50.444 65.1248 50.4152C65.78 49.6232 66.5864 48.6296 66.4352 47.4344C66.32 46.7144 65.9096 46.0808 65.3048 45.6848C64.6856 45.26 64.0088 44.9144 63.3032 44.6552C62.3096 44.252 61.6544 43.9784 61.136 42.9488C60.92 42.5384 60.8768 42.056 61.0352 41.6168C61.1216 41.4224 61.3088 41.2784 61.5248 41.2424C61.928 41.228 62.3312 41.3072 62.6984 41.48C63.1592 41.66 63.6344 41.7824 64.124 41.84C64.7072 41.8976 66.0752 42.0272 66.9248 41.0624C68.0048 39.824 67.256 38.4416 66.8528 37.6928C66.7232 37.484 66.6224 37.2608 66.5432 37.0304C66.464 36.692 66.5504 36.3392 66.7736 36.08C67.004 35.8064 67.3424 35.6624 67.7024 35.684C68.2064 35.7992 68.6816 36.0224 69.0776 36.3536C69.6896 36.8072 70.3808 37.1384 71.1152 37.34C72.5624 37.5992 74.0528 37.4408 75.4208 36.8936C75.9032 36.728 76.4 36.5912 76.8968 36.4904C78.4448 43.2296 77.8832 50.2712 75.2912 56.672C72.692 63.0728 68.192 68.5232 62.396 72.2816C62.8712 72.8792 63.1304 73.6208 63.1304 74.3768C63.1304 74.42 63.116 74.4632 63.116 74.5064C72.0008 68.9408 78.02 59.768 79.5968 49.4C81.1664 39.0248 78.1424 28.484 71.3024 20.5352C64.4552 12.572 54.4904 8 44 8Z" fill="white"/>
<path d="M56.0961 33.1858L57.4713 34.381C57.7377 34.6186 57.9681 34.8922 58.1481 35.1946C58.2777 34.921 58.3569 34.633 58.3785 34.3378C58.5801 32.833 58.1049 31.321 57.0897 30.1978C55.5489 28.6066 53.0361 28.2826 50.4585 28.2754L53.3169 30.7666C54.1161 30.8746 54.8649 31.2274 55.4697 31.7602C55.8297 32.1562 56.0457 32.6602 56.0961 33.1858Z" fill="white"/>
<path d="M43.9999 42.0272L55.7791 50.7536H32.2207L43.9999 42.0272ZM45.1231 29.6L52.2439 35.8064H45.1231V29.6ZM25.9999 50.7536C25.3807 50.7536 24.8767 51.2576 24.8767 51.8768C24.8767 52.496 25.3807 53 25.9999 53H61.9999C62.6191 53 63.1231 52.496 63.1231 51.8768C63.1231 51.2576 62.6191 50.7536 61.9999 50.7536H59.5591L45.1231 40.0616V38.06H55.2463C55.7143 38.06 56.1319 37.7648 56.2975 37.3256C56.4631 36.8864 56.3335 36.3896 55.9807 36.08L44.7271 26.2736C44.3959 25.9784 43.9207 25.9136 43.5175 26.0936C43.1215 26.2736 42.8623 26.6768 42.8623 27.116V40.0544L28.4263 50.7464H25.9855L25.9999 50.7536Z" fill="white"/>
</g>
<defs>
<clipPath id="clip0_2174_2657">
<rect width="72" height="72" fill="white" transform="translate(8 8)"/>
</clipPath>
</defs>
</svg>
