<svg width="36" height="36" viewBox="0 0 36 36" fill="none" xmlns="http://www.w3.org/2000/svg">
<circle cx="18.1437" cy="17.7126" r="17.7126" fill="#928F8F"/>
<g clip-path="url(#clip0_138_1011)">
<path d="M15.5706 14.8917C15.4469 14.8917 15.3296 14.8594 15.2287 14.7947L10.1062 11.6721C9.81961 11.4974 9.7154 11.1447 9.86195 10.8535C10.65 9.12236 11.6042 7.64685 12.6104 6.592C13.0077 6.18105 13.4702 5.77658 14.1703 5.60832C15.6618 5.20385 17.1891 4.99677 18.6936 4.99677C18.8402 4.99677 18.99 4.99677 19.1365 5.00324C20.9048 5.05501 22.4321 5.10031 23.7575 6.21341C24.4153 6.76673 24.8289 7.43329 25.0796 7.98014L26.7502 6.97058C26.8512 6.9091 26.9684 6.87674 27.0856 6.87674C27.2452 6.87674 27.4015 6.93499 27.5188 7.04177C27.7272 7.2165 27.7956 7.52713 27.6718 7.78923L24.8647 13.866C24.754 14.0957 24.5228 14.2413 24.2688 14.2413L17.5799 13.8886C17.2933 13.8692 17.0556 13.6751 16.9872 13.4065C16.9123 13.1509 17.023 12.8564 17.264 12.7044L19.13 11.5136C18.9378 11.1059 18.7262 10.7079 18.5047 10.3164L18.3093 10.6658C17.5734 11.9828 16.7853 13.3903 16.134 14.5552C16.0396 14.7138 15.8995 14.8238 15.7302 14.8658C15.6618 14.882 15.6162 14.8853 15.5641 14.8853L15.5706 14.8917ZM15.3329 13.3515C15.3329 13.3515 17.2379 9.94101 17.7232 9.07383C17.0491 8.09339 16.4303 7.43977 15.9256 7.17767C15.6716 7.045 15.2482 6.82174 14.7858 6.82174C14.6783 6.82174 14.5709 6.83468 14.4667 6.85733L14.4276 6.86704C14.0531 6.97058 13.7958 7.21326 13.5451 7.47536C12.7407 8.31342 11.9591 9.48477 11.2753 10.8794L15.3329 13.3515ZM23.8715 12.9309L25.6137 9.15796L25.0796 9.48153C24.9787 9.54301 24.8614 9.57537 24.7442 9.57537C24.6628 9.57537 24.5846 9.56243 24.513 9.5333C24.3274 9.46535 24.1808 9.31004 24.1222 9.11589C23.9626 8.56581 23.624 7.78923 22.9173 7.19385C21.9859 6.41079 20.9113 6.34284 19.0974 6.28783C18.9541 6.2846 18.8108 6.28136 18.6676 6.28136C18.1302 6.28136 17.5831 6.31048 17.0393 6.37196C17.6548 6.84762 18.3126 7.6145 18.9997 8.65965L19.016 8.67259L19.0453 8.7276L19.0518 8.73407C19.625 9.61743 20.1297 10.5461 20.5466 11.5006C20.6736 11.7854 20.5694 12.1316 20.3023 12.2999L19.6575 12.7076L23.8682 12.9309H23.8715Z" fill="white"/>
<path d="M15.2253 28.1163C14.0628 28.1163 13.0011 28.003 12.0763 27.783C11.5552 27.6536 10.9593 27.4724 10.4448 26.932C9.2366 25.7445 8.22057 24.4081 7.43249 22.9617C6.58905 21.4021 5.86937 20.0722 6.17873 18.3799C6.33179 17.5321 6.70303 16.8461 7.05799 16.3575L5.34181 15.4256C5.09106 15.2897 4.95754 15.0114 5.01942 14.7299C5.07803 14.4517 5.30925 14.2446 5.59582 14.2187L12.314 13.5942H12.3596C12.6038 13.5942 12.822 13.7268 12.936 13.9436L15.9613 19.8586C16.0883 20.1078 16.0395 20.4087 15.8408 20.6061C15.7203 20.7258 15.5575 20.7937 15.3849 20.7937C15.2807 20.7937 15.1797 20.7679 15.0886 20.7226L13.1184 19.7098C12.8611 20.0819 12.6136 20.4605 12.3889 20.8455C14.0074 20.8196 17.2476 20.7646 17.2476 20.7646H17.2997C17.456 20.7646 17.6123 20.8326 17.7361 20.9523C17.8664 21.0882 17.9315 21.2565 17.9217 21.428L17.7621 27.3979C17.7459 27.728 17.5016 27.9868 17.176 28.0192C16.5149 28.0839 15.8571 28.1195 15.2253 28.1195V28.1163ZM11.4706 26.136C11.7343 26.3625 12.0502 26.4563 12.3791 26.5372C13.1998 26.7314 14.1539 26.8317 15.2156 26.8317C15.6226 26.8317 16.046 26.8155 16.4758 26.7864L16.6061 22.0589L11.679 22.1431C11.1677 23.1979 10.9007 24.078 10.9235 24.6378C10.9398 25.0002 10.9626 25.5859 11.3468 26.0163L11.4706 26.0842V26.136ZM8.3606 15.6101C8.53319 15.7007 8.65694 15.8754 8.68951 16.0728C8.72207 16.2734 8.6602 16.474 8.52017 16.6196C8.11962 17.037 7.6116 17.7198 7.44877 18.6128C7.23384 19.8068 7.73535 20.8132 8.56901 22.3534C8.89141 22.9455 9.2594 23.5247 9.66972 24.0813C9.77718 23.3047 10.1224 22.3437 10.702 21.2144L10.7932 21.0364C11.2622 20.1466 11.7962 19.2956 12.3889 18.4964C12.5094 18.3346 12.7048 18.2343 12.9099 18.2343C13.0109 18.2343 13.1151 18.2601 13.2063 18.3054L13.8869 18.6549L11.9721 14.9176L7.81025 15.3091L8.3606 15.6068V15.6101Z" fill="white"/>
<path d="M22.7677 30.2778C22.5593 30.2778 22.3607 30.1775 22.2402 30.006L18.3421 24.5505C18.1891 24.3305 18.1826 24.0489 18.3291 23.8257L21.9666 18.2699C22.0871 18.0854 22.2923 17.9787 22.5105 17.9787C22.5658 17.9787 22.6212 17.9851 22.6733 17.9981C22.8263 18.0369 22.9533 18.1275 23.0413 18.2505L22.1034 16.6941C22.0122 16.542 21.9894 16.3672 22.0318 16.199C22.0773 16.0307 22.1881 15.8884 22.3411 15.801L27.6362 12.947C27.7274 12.8953 27.8381 12.8694 27.9456 12.8694C28.154 12.8694 28.3494 12.9697 28.4699 13.138C29.5934 14.6976 30.4042 16.254 30.8146 17.6421C30.9741 18.1922 31.0946 18.7908 30.8895 19.4768C30.4629 21.1044 29.8051 22.6479 28.9356 24.0554C28.0042 25.5536 27.2031 26.8414 25.5716 27.4238C25.0473 27.6115 24.4904 27.7054 23.9108 27.7054C23.7317 27.7054 23.5525 27.6956 23.3702 27.6795L23.4158 29.6209C23.4223 29.9024 23.2464 30.1548 22.9729 30.2454C22.8915 30.2681 22.8296 30.2778 22.7677 30.2778ZM22.0708 27.55L22.0578 26.9288C22.0513 26.7314 22.1425 26.5372 22.302 26.411C22.4225 26.3204 22.5626 26.2719 22.7059 26.2719C22.758 26.2719 22.8101 26.2784 22.8622 26.2913C23.2106 26.3755 23.5656 26.4208 23.9108 26.4208C24.3406 26.4208 24.7542 26.3528 25.1352 26.2169C26.2848 25.8092 26.91 24.8741 27.8349 23.3824C28.1931 22.8032 28.5122 22.1981 28.7923 21.5703C28.0693 21.8648 27.0631 22.046 25.793 22.114C25.7735 22.114 25.7474 22.1172 25.7149 22.1172C25.4088 22.1334 25.0799 22.1431 24.7542 22.1431C24.0378 22.1431 23.3051 22.1043 22.5723 22.0234C22.2597 21.991 22.009 21.7257 21.9992 21.4118L21.9634 20.6514L19.661 24.1687L22.0773 27.5533L22.0708 27.55ZM23.2562 20.7938C23.7023 20.8294 24.1583 20.8488 24.6109 20.852L23.0836 18.3249C23.1259 18.4058 23.1487 18.4964 23.152 18.5902L23.2529 20.7905L23.2562 20.7938ZM23.5558 16.6099C24.2364 17.7327 25.0115 19.0173 25.7246 20.1984L26.0894 20.8035C27.2845 20.7096 28.1638 20.5058 28.6425 20.2049C28.9323 20.0237 29.4729 19.6871 29.6487 19.1079L29.665 19.0562C29.7562 18.6938 29.6715 18.354 29.5738 18.0078C29.2449 16.8947 28.6164 15.6392 27.7469 14.3546L23.5623 16.6099H23.5558Z" fill="white"/>
</g>
<defs>
<clipPath id="clip0_138_1011">
<rect width="26" height="25.2778" fill="white" transform="translate(5 5)"/>
</clipPath>
</defs>
</svg>
