<svg width="88" height="88" viewBox="0 0 88 88" fill="none" xmlns="http://www.w3.org/2000/svg">
<circle cx="44" cy="44" r="38" stroke="white" stroke-width="2"/>
<path d="M54 20H35V32H54V20Z" stroke="white" stroke-width="2" stroke-miterlimit="10"/>
<path d="M52 39H37V40H52V39Z" stroke="white" stroke-width="2" stroke-miterlimit="10"/>
<path d="M49 32H40V39H49V32Z" stroke="white" stroke-width="2" stroke-miterlimit="10"/>
<path d="M35 23H20V29H35V23Z" stroke="white" stroke-width="2" stroke-miterlimit="10"/>
<path d="M69 23H54V29H69V23Z" stroke="white" stroke-width="2" stroke-miterlimit="10"/>
<path d="M44 67.982H35.543C35.543 67.982 25.0005 68.7392 25.0005 60.4381C25.0005 60.4381 24.7451 51.3478 35.543 53.5813C36.5534 50.0348 40.6749 48.8269 40.6749 48.8269V40" stroke="white" stroke-width="2" stroke-miterlimit="10"/>
<path d="M43.5 67.982H53.457C53.457 67.982 63.9995 68.7392 63.9995 60.4381C63.9995 60.4381 64.2549 51.3478 53.457 53.5813C52.4466 50.0348 48.3251 48.8269 48.3251 48.8269V40" stroke="white" stroke-width="2" stroke-miterlimit="10"/>
</svg>
