<svg width="88" height="88" viewBox="0 0 88 88" fill="none" xmlns="http://www.w3.org/2000/svg">
<path d="M38.7856 65.7363C38.7856 66.4338 39.3517 67 40.0493 67H47.9507C48.6483 67 49.2144 66.4338 49.2144 65.7363V63.2859C50.8761 62.8385 52.4644 62.1801 53.9568 61.3208L55.6867 63.0508C55.9243 63.2884 56.2452 63.4211 56.5801 63.4211C56.915 63.4211 57.2372 63.2884 57.4735 63.0508L63.0587 57.4613C63.5515 56.9672 63.5515 56.1673 63.0587 55.6744L61.3313 53.9469C62.1906 52.4544 62.8502 50.8659 63.2963 49.2041H65.7364C66.4339 49.2041 67 48.6379 67 47.9403V40.0382C67 39.3406 66.4339 38.7745 65.7364 38.7745H63.295C62.8477 37.1139 62.1894 35.5254 61.3301 34.0316L63.0486 32.313C63.2862 32.0754 63.4189 31.7544 63.4189 31.4195C63.4189 31.0846 63.2849 30.7624 63.0486 30.526L57.4596 24.9403C56.9668 24.4475 56.1669 24.4475 55.6728 24.9403L53.9568 26.6565C52.4644 25.7971 50.8761 25.1375 49.2144 24.6914V22.2637C49.2144 21.5662 48.6483 21 47.9507 21H40.0493C39.3517 21 38.7856 21.5662 38.7856 22.2637V24.6914C37.1252 25.1387 35.5368 25.7971 34.0432 26.6565L32.3272 24.9403C31.8344 24.4475 31.0345 24.4462 30.5404 24.9403L24.9514 30.526C24.7138 30.7636 24.5811 31.0846 24.5811 31.4195C24.5811 31.7544 24.7138 32.0766 24.9514 32.313L26.6699 34.0316C25.8106 35.5241 25.151 37.1126 24.705 38.7745H22.2687C21.5712 38.7745 21.0051 39.3406 21.0051 40.0382L21 47.9403C21 48.2752 21.1327 48.5975 21.3702 48.8338C21.6078 49.0701 21.9288 49.2041 22.2636 49.2041H24.7037C25.151 50.8659 25.8094 52.4544 26.6687 53.9469L24.9413 55.6744C24.4485 56.1673 24.4472 56.9672 24.9413 57.4613L30.5265 63.0508C30.7641 63.2884 31.085 63.4211 31.4199 63.4211C31.7548 63.4211 32.077 63.2884 32.3133 63.0508L34.0419 61.3208C35.5356 62.1801 37.1239 62.8398 38.7844 63.2859V65.7363H38.7856Z" stroke="white" stroke-width="2" stroke-miterlimit="10"/>
<path d="M19.7185 63C15.5126 57.7364 13 51.0766 13 43.8339C13 26.8043 26.8867 13 44.018 13C46.4192 13 48.7558 13.2707 51 13.7843" stroke="white" stroke-width="2" stroke-miterlimit="10"/>
<path d="M68.2815 25C72.4874 30.2624 75 36.9221 75 44.1661C75 61.1945 61.1133 75 43.982 75C41.5808 75 39.2442 74.7293 37 74.2157" stroke="white" stroke-width="2" stroke-miterlimit="10"/>
<path d="M23 71C25.2091 71 27 69.2091 27 67C27 64.7909 25.2091 63 23 63C20.7909 63 19 64.7909 19 67C19 69.2091 20.7909 71 23 71Z" stroke="white" stroke-width="2" stroke-miterlimit="10"/>
<path d="M65 25C67.2091 25 69 23.2091 69 21C69 18.7909 67.2091 17 65 17C62.7909 17 61 18.7909 61 21C61 23.2091 62.7909 25 65 25Z" stroke="white" stroke-width="2" stroke-miterlimit="10"/>
<path d="M44 53C48.9706 53 53 48.9706 53 44C53 39.0294 48.9706 35 44 35C39.0294 35 35 39.0294 35 44C35 48.9706 39.0294 53 44 53Z" stroke="white" stroke-width="2" stroke-miterlimit="10"/>
</svg>
