<svg xmlns="http://www.w3.org/2000/svg" width="88" height="88" viewBox="0 0 88 88" fill="none">

<path fill-rule="evenodd" clip-rule="evenodd" d="M35.4196 35.4695C36.0087 33.5575 37.1551 31.9015 38.6597 30.6775C40.3554 29.3015 42.5128 28.4775 44.8534 28.4775C46.8197 28.4775 48.6587 29.0615 50.2032 30.0615C51.5645 30.9495 52.7029 32.1575 53.4911 33.5895C53.5468 33.5735 53.6025 33.5655 53.6583 33.5575C53.9926 33.5015 54.327 33.4695 54.6693 33.4695C56.1978 33.4695 57.591 34.0535 58.6419 35.0135C59.4937 35.7895 60.1147 36.8135 60.4013 37.9735H61.4123C63.4981 37.9735 65.3928 38.8295 66.7621 40.2055C68.1314 41.5815 68.9832 43.4855 68.9832 45.5815C68.9832 47.6775 68.1314 49.5815 66.7621 50.9575C65.3928 52.3335 63.4981 53.1895 61.4123 53.1895H58.9125C58.7613 55.0295 57.9493 56.6935 56.7153 57.9255C55.346 59.3015 53.4513 60.1575 51.3655 60.1575H25.6036C23.5178 60.1575 21.6231 59.3015 20.2538 57.9255C18.8845 56.5495 18.0327 54.6455 18.0327 52.5495C18.0327 50.4535 18.9004 48.4775 20.2936 47.1255C21.5116 45.9495 23.1357 45.1895 24.9269 44.9895C25.0225 42.3975 26.1052 40.0615 27.8088 38.3495C29.6 36.5495 32.068 35.4455 34.7906 35.4455C34.9976 35.4455 35.2046 35.4455 35.4036 35.4615L35.4196 35.4695ZM58.817 51.2695C58.5463 49.6855 57.79 48.2695 56.6994 47.1735C55.3301 45.7975 53.4354 44.9415 51.3496 44.9415H50.3385C50.0519 43.7815 49.431 42.7575 48.5791 41.9815C47.5283 41.0215 46.1351 40.4375 44.6066 40.4375C44.2643 40.4375 43.9299 40.4695 43.5955 40.5255C43.5398 40.5335 43.4841 40.5415 43.4284 40.5575C42.6402 39.1255 41.5097 37.9175 40.1404 37.0295C39.2807 36.4695 38.3253 36.0455 37.3143 35.7735C37.8079 34.3415 38.6915 33.0935 39.8459 32.1575C41.2072 31.0455 42.9507 30.3895 44.8534 30.3895C46.4456 30.3895 47.9263 30.8615 49.1762 31.6615C50.4579 32.4935 51.4929 33.6855 52.1218 35.1015C52.3367 35.5815 52.8861 35.7895 53.3637 35.5895C53.5548 35.5255 53.7538 35.4775 53.9688 35.4375C54.1917 35.3975 54.4225 35.3815 54.6614 35.3815C55.6963 35.3815 56.6437 35.7735 57.3522 36.4215C58.0687 37.0775 58.5543 37.9895 58.6498 39.0135C58.6976 39.5095 59.1116 39.8775 59.5972 39.8775H61.4043C62.9647 39.8775 64.3738 40.5175 65.4087 41.5495C66.4357 42.5815 67.0726 44.0055 67.0726 45.5735C67.0726 47.1415 66.4357 48.5575 65.4087 49.5975C64.3818 50.6295 62.9647 51.2695 61.4043 51.2695H58.817ZM26.8296 45.6135C26.8296 45.6135 26.8296 45.7095 26.8376 45.7815C26.8376 45.8215 26.8455 45.8615 26.8455 45.9015C26.8455 46.4295 26.4156 46.8615 25.8902 46.8615C24.2104 46.8615 22.6899 47.4695 21.6072 48.5095C20.5722 49.5095 19.9354 50.9095 19.9354 52.5495C19.9354 54.1895 20.5722 55.5335 21.5992 56.5735C22.6262 57.6055 24.0433 58.2455 25.6036 58.2455H51.3496C52.9099 58.2455 54.319 57.6055 55.354 56.5735C56.3809 55.5415 57.0178 54.1175 57.0178 52.5495C57.0178 50.9815 56.3809 49.5655 55.354 48.5255C54.327 47.4935 52.9099 46.8535 51.3496 46.8535H49.5424C49.0568 46.8535 48.6428 46.4775 48.5951 45.9815C48.4995 44.9575 48.0139 44.0455 47.2974 43.3895C46.5889 42.7415 45.6415 42.3495 44.6066 42.3495C44.3678 42.3495 44.1369 42.3655 43.914 42.4055C43.699 42.4455 43.492 42.4935 43.3089 42.5575C42.8313 42.7655 42.282 42.5495 42.067 42.0695C41.4301 40.6535 40.4032 39.4615 39.1214 38.6295C37.8795 37.8215 36.3908 37.3575 34.7986 37.3575C32.5934 37.3575 30.6031 38.2535 29.1622 39.7015C27.7212 41.1495 26.8296 43.1495 26.8296 45.3655V45.6055V45.6135ZM75.8297 35.4855C76.1402 36.6455 76.395 37.8295 76.586 39.0375C76.8567 40.7735 77 42.5335 77 44.3175C77 53.6135 73.2504 62.0295 67.192 68.1175C61.1337 74.2055 52.7587 77.9735 43.508 77.9735C34.2572 77.9735 25.8822 74.2055 19.8239 68.1175C13.7496 62.0295 10 53.6135 10 44.3175C10 35.0215 13.7496 26.6055 19.808 20.5175C25.8663 14.4295 34.2413 10.6615 43.492 10.6615C44.0175 10.6615 44.4474 11.0935 44.4474 11.6215C44.4474 12.1495 44.0175 12.5815 43.492 12.5815C34.7668 12.5815 26.8694 16.1335 21.1534 21.8775C15.4374 27.6215 11.9027 35.5575 11.9027 44.3255C11.9027 53.0935 15.4374 61.0295 21.1534 66.7735C26.8694 72.5175 34.7668 76.0695 43.492 76.0695C52.2173 76.0695 60.1147 72.5175 65.8307 66.7735C71.5467 61.0295 75.0814 53.0935 75.0814 44.3255C75.0814 42.6135 74.954 40.9495 74.6993 39.3415C74.5162 38.1415 74.2534 36.9575 73.935 35.7975C67.8448 35.2375 61.5238 33.1095 57.0656 29.6375C55.0992 28.1095 53.4831 26.3095 52.3925 24.2695C51.2859 22.1975 50.7206 19.8855 50.8799 17.3495C51.0789 14.0455 52.5119 10.3815 55.553 6.41349C55.6963 6.20549 55.9112 6.05349 56.1819 6.01349C56.6994 5.92549 57.193 6.27749 57.2805 6.79749C57.997 10.9175 61.4999 12.7735 65.2256 14.7495C71.3875 18.0135 78.0907 21.5655 76.0128 35.0215C75.9969 35.2055 75.9332 35.3655 75.8297 35.5015H75.8377L75.8297 35.4855ZM63.4424 24.2135C62.9966 23.9335 62.8612 23.3495 63.1319 22.9015C63.4105 22.4535 63.9917 22.3175 64.4375 22.5895C66.9134 24.1335 69.0867 25.8935 70.9655 27.8615C72.2632 29.2295 73.4096 30.7015 74.4206 32.2775C75.161 22.1495 69.5405 19.1735 64.3499 16.4215C60.7913 14.5335 57.4159 12.7495 55.9749 9.09349C53.9289 12.1335 52.9497 14.9255 52.7905 17.4455C52.6552 19.6055 53.1408 21.5815 54.0802 23.3495C55.0355 25.1495 56.4765 26.7415 58.2438 28.1095C62.1766 31.1655 67.6856 33.1175 73.115 33.7735C72.104 32.1255 70.9337 30.5895 69.5883 29.1815C67.8289 27.3255 65.7749 25.6695 63.4424 24.2135Z" fill="white"/>
</svg>