<svg xmlns="http://www.w3.org/2000/svg" width="88" height="88" viewBox="0 0 88 88" fill="none">
<g clip-path="url(#clip0_186_2662)">
<path fill-rule="evenodd" clip-rule="evenodd" d="M67.44 43.5633C66.8232 43.5633 66.3179 44.0693 66.3179 44.6868C66.3179 47.0975 65.9909 49.4933 65.3518 51.8221C63.9696 51.212 62.4907 50.8548 60.9822 50.773C58.0394 50.6316 55.1411 51.5542 52.8151 53.3697C45.473 58.935 43.5557 73.2874 45.4135 81.1369C45.5324 81.6429 45.9783 82 46.4911 82.0075H46.7512C54.829 82.0075 68.1609 77.0373 71.9508 68.7562C73.2142 66.0926 73.4891 63.057 72.7163 60.2148C71.9731 57.6181 70.4423 55.3265 68.3392 53.645C68.0271 53.392 67.7001 53.1539 67.3657 52.9381C68.1534 50.267 68.5547 47.4918 68.5621 44.7017C68.5621 44.0841 68.0568 43.5782 67.44 43.5782V43.5633ZM54.1751 55.1628C55.9289 53.7789 58.084 53.02 60.3134 53.0051C61.8145 53.0125 63.3008 53.3473 64.6681 53.9872C64.2222 55.2372 63.702 56.45 63.1075 57.6404L51.589 57.8934C52.3098 56.8592 53.1793 55.944 54.1751 55.1702V55.1628ZM60.1201 76.3751C62.1786 75.4153 64.1182 74.2026 65.8869 72.7666L63.4865 61.621C63.3676 61.8219 63.2487 62.0228 63.1224 62.2162C61.7922 64.3367 60.3431 66.3828 58.7751 68.3321L60.1276 76.3677L60.1201 76.3751ZM47.4943 68.9274C46.989 72.0002 46.8849 75.1177 47.197 78.2203C48.1185 77.1713 49.0697 76.1222 49.9912 75.0954C51.7376 73.1535 53.4988 71.1892 55.1857 69.1878L47.5017 68.9348L47.4943 68.9274ZM50.2142 60.1701L61.8814 59.9171C60.4174 62.3948 58.7751 64.7608 56.9693 66.9929L47.9179 66.6953C48.4084 64.4334 49.1812 62.246 50.2142 60.1701ZM51.6558 76.5909C53.4022 74.649 55.1709 72.6699 56.8801 70.6461L57.9948 77.2977C55.0966 78.4733 52.0497 79.262 48.9434 79.6266C49.8426 78.6072 50.7567 77.5879 51.6484 76.5909H51.6558ZM66.9347 55.3934C70.7321 58.31 71.9731 63.4885 69.9147 67.8113C69.3722 68.9571 68.6588 70.0137 67.7967 70.9511L65.1289 58.6002C65.6862 57.4767 66.1916 56.3235 66.63 55.1479C66.734 55.2297 66.8381 55.3041 66.9347 55.386V55.3934ZM14.5958 26.0637C22.3095 28.3776 33.776 37.2242 34.913 46.3683C35.3218 49.2924 34.6678 52.2611 33.0775 54.7461C32.2526 56.011 31.2048 57.1121 29.9861 58.005C31.6804 59.7163 33.5903 61.1969 35.671 62.4022C35.9386 62.5436 36.1392 62.7891 36.221 63.0867C36.3027 63.3769 36.2655 63.6894 36.1169 63.9572C35.9683 64.2176 35.7156 64.4111 35.4184 64.4855C35.1211 64.5599 34.809 64.5153 34.5563 64.3516C32.1486 62.9528 29.9489 61.2266 28.0242 59.2029C27.6675 59.3814 27.3033 59.5451 26.9243 59.6939C25.4009 60.2892 23.7809 60.5942 22.146 60.5942C18.1033 60.6091 14.3134 58.6151 12.0394 55.2669C6.71853 47.7522 9.19317 33.4817 13.3027 26.5622C13.5702 26.1158 14.0979 25.9074 14.5883 26.0562L14.5958 26.0637ZM30.3353 40.7062C29.0646 38.7717 27.556 37.0084 25.8468 35.4534L21.061 43.1541C22.094 45.8401 23.3201 48.4442 24.7247 50.9516L30.3353 40.7137V40.7062ZM11.3557 41.1973L18.9802 44.0395C19.8869 46.3758 20.9273 48.6525 22.094 50.8697C22.2054 51.078 22.3169 51.2789 22.4284 51.4873L11.5861 47.9977C11.2294 45.7508 11.1476 43.4666 11.3483 41.1973H11.3557ZM17.5386 33.0427C18.3486 35.5278 19.166 38.0352 20.0504 40.4979L24.1153 33.9579C21.715 31.9787 19.062 30.327 16.2306 29.0547C16.6765 30.3791 17.115 31.7258 17.5386 33.0427ZM14.135 29.8731C14.566 31.1603 14.9896 32.4624 15.4058 33.7421C16.2158 36.2272 17.0407 38.7494 17.9399 41.2419L11.6232 38.8834C12.0542 35.7807 12.9014 32.7451 14.135 29.8731ZM26.1069 57.5883C26.2258 57.5437 26.3447 57.499 26.4636 57.4395C25.6685 56.4723 24.9179 55.4604 24.2268 54.4187L12.2177 50.5572C12.5967 51.77 13.1541 52.9158 13.8749 53.9574C16.5874 57.9083 21.6853 59.4186 26.1143 57.5883H26.1069ZM28.4552 56.3235C27.6006 55.3116 26.8054 54.2476 26.0772 53.1465L31.621 43.0425C32.156 44.1809 32.5127 45.3936 32.6836 46.6436C33.2484 50.4159 31.6061 54.1732 28.4552 56.3235ZM77.8588 25.5057C73.9276 18.4745 62.8177 9.19646 53.6623 10.0521C50.7269 10.2902 47.9699 11.5699 45.8891 13.6607C44.0164 15.6026 42.7977 18.0728 42.3964 20.7438C42.3369 21.1456 42.2924 21.54 42.2701 21.9417C39.5651 22.5965 36.9641 23.6307 34.5489 25.022C34.103 25.275 33.8875 25.7958 34.0138 26.2869C34.1476 26.7779 34.6009 27.1202 35.1063 27.1202C35.3069 27.1202 35.4927 27.0681 35.6636 26.9714C37.7444 25.7661 39.9886 24.8509 42.3147 24.2408C42.4781 25.7437 42.9092 27.202 43.5928 28.5487C44.9453 31.1677 47.1896 33.2213 49.9243 34.3299C51.9011 35.1185 54.0116 35.5054 56.1369 35.4682C63.9547 35.4682 73.0804 31.1677 77.6432 26.8672C78.0148 26.5101 78.104 25.9521 77.8513 25.4982L77.8588 25.5057ZM66.0504 31.1826C68.956 30.0889 71.713 28.6157 74.2323 26.7928C72.8649 26.5175 71.4827 26.2199 70.1302 25.9372C67.5738 25.394 64.9951 24.8509 62.4239 24.3896L66.0429 31.1826H66.0504ZM57.1105 33.1989C59.4216 33.0576 61.703 32.6335 63.9027 31.9266L59.6371 23.9283C56.7983 23.4819 53.9298 23.2364 51.0613 23.2066L57.1105 33.1989ZM66.1767 16.5029C64.3189 15.1934 62.2975 14.122 60.1722 13.311L51.7302 20.9671C51.9605 20.9671 52.1983 20.9745 52.4361 20.9819C54.9331 21.0712 57.43 21.3168 59.9046 21.6962L66.1767 16.5029ZM74.5815 24.5607C73.2513 24.2929 71.9137 24.0101 70.5983 23.7274C68.042 23.1843 65.4484 22.6411 62.8474 22.1724L68.042 17.8719C70.5092 19.7989 72.7088 22.0459 74.5815 24.5533V24.5607ZM44.6184 21.0935C45.25 16.3466 49.1069 12.6785 53.8778 12.2991C54.1974 12.2693 54.5243 12.2544 54.8588 12.2544C55.7951 12.2619 56.7315 12.366 57.6455 12.5669L48.3043 21.0415C47.0484 21.1159 45.8074 21.2647 44.5664 21.4656C44.5812 21.3391 44.5961 21.2126 44.6184 21.0861V21.0935ZM44.5366 23.7572C45.8371 23.5191 47.1525 23.3628 48.4752 23.281L54.45 33.1394C53.1941 33.0353 51.968 32.7376 50.8012 32.2615C47.2565 30.8627 44.8265 27.5592 44.5441 23.7572H44.5366Z" fill="white"/>
</g>
<defs>
<clipPath id="clip0_186_2662">
<rect width="69" height="72" fill="white" transform="translate(9 10)"/>
</clipPath>
</defs>
</svg>