<svg  width="65" height="65" viewBox="0 0 65 65" fill="none" xmlns="http://www.w3.org/2000/svg">
<g  clip-path="url(#clip0_2347_1471)">
<path  d="M50.1929 44.1044H48.2004V20.7164H50.1929V44.1044ZM19.3328 36.5165L22.3215 35.6149C22.6806 35.5225 22.9528 35.1642 22.9528 34.7134V29.1134C22.9528 28.7551 22.6806 28.3911 22.3215 28.2119L19.3328 27.3104V20.7164H25.397V44.012H19.3328V36.5165ZM13.8071 35.2566V28.6627H17.4272L21.1399 29.8358V34.0777L17.4272 35.2509H13.8071V35.2566ZM34.0794 35.8866V37.9613H27.1984V26.8538H34.0794V28.9285C32.8109 29.3793 31.8147 30.7316 31.8147 32.3613C31.8147 33.991 32.8109 35.43 34.0794 35.8808V35.8866ZM46.3875 25.0507H38.603C38.0585 25.0507 37.6994 25.409 37.6994 25.9523V29.7434C37.6994 30.2866 38.0585 30.6449 38.603 30.6449C39.327 30.6449 39.9583 31.4598 39.9583 32.448C39.9583 33.4362 39.327 34.2511 38.603 34.2511C38.0585 34.2511 37.6994 34.6094 37.6994 35.1526V38.9437C37.6994 39.4869 38.0585 39.8452 38.603 39.8452H46.3875V44.1796H27.2042V39.8452H34.9887C35.5332 39.8452 35.8923 39.4869 35.8923 38.9437V35.1526C35.8923 34.6094 35.5332 34.2511 34.9887 34.2511C34.2647 34.2511 33.6334 33.4362 33.6334 32.448C33.6334 31.4598 34.2647 30.6449 34.9887 30.6449C35.5332 30.6449 35.8923 30.2866 35.8923 29.7434V25.9523C35.8923 25.409 35.5332 25.0507 34.9887 25.0507H27.2042V20.7164H46.3875V25.0507ZM39.5123 29.021V26.9463H46.3933V38.0537H39.5123V35.979C40.7808 35.5283 41.777 34.1759 41.777 32.5462C41.777 30.9165 40.7808 29.4775 39.5123 29.0268V29.021ZM51.0964 19H18.4234C17.8789 19 17.5198 19.3583 17.5198 19.9015V26.8538H12.9036C12.3591 26.8538 12 27.2121 12 27.7554V36.1524C12 36.6956 12.3591 37.0539 12.9036 37.0539H17.5198V45.0927C17.5198 45.6359 17.8789 45.9942 18.4234 45.9942H51.0964C51.6409 45.9942 52 45.6359 52 45.0927V19.9015C52 19.3583 51.5482 19 51.0964 19Z" fill="white"/>
</g>
<defs>
<clipPath id="clip0_2347_1471">
<rect width="40" height="27" fill="white" transform="translate(12 19)"/>
</clipPath>
</defs>
</svg>
