<svg width="65" height="65" viewBox="0 0 65 65" fill="none" xmlns="http://www.w3.org/2000/svg">
<g clip-path="url(#clip0_165_7322)">
<path d="M37.8222 44.9473C37.4452 44.7502 37.2935 44.2751 37.4844 43.886C37.5725 43.704 37.6362 43.512 37.6704 43.3098C38.1894 40.2573 39.8098 35.6987 41.3569 32.9343C42.0374 31.7163 42.4878 30.4427 42.6885 29.1692C43.1829 26.0409 42.7913 21.826 38.1355 19.5315C34.9093 17.9446 31.0613 17.9446 27.84 19.5315C23.1842 21.826 22.7926 26.0358 23.287 29.1692C23.4878 30.4478 23.9382 31.7163 24.6187 32.9343C26.1657 35.7038 27.7861 40.2624 28.3051 43.3098C28.3393 43.5069 28.403 43.699 28.4911 43.886C28.682 44.2751 28.5303 44.7502 28.1533 44.9473C27.7763 45.1444 27.3162 44.9877 27.1252 44.5985C26.9686 44.2801 26.856 43.9365 26.7972 43.5878C26.3028 40.6919 24.7606 36.3557 23.2919 33.7277C22.5184 32.3379 22.0093 30.8925 21.7743 29.4269C20.9861 24.4489 22.6947 20.3199 27.1791 18.1114C28.9562 17.2371 30.9683 16.7721 32.9853 16.7721C38.4586 16.7721 45.6308 20.33 44.1963 29.4269C43.9662 30.8976 43.4522 32.343 42.6787 33.7277C41.21 36.3608 39.6679 40.6919 39.1734 43.5878C39.1147 43.9415 39.0021 44.2801 38.8454 44.5985C38.6594 44.9877 38.1992 45.1444 37.8222 44.9473Z" fill="white"/>
<path d="M27.9869 44.9978C27.4288 44.9978 26.9784 45.4678 26.9784 46.0389C26.9784 46.61 27.4336 47.08 27.9869 47.08H37.9984C38.5566 47.08 39.007 46.61 39.007 46.0389C39.007 45.4678 38.5517 44.9978 37.9984 44.9978H27.9869ZM37.9984 48.6618H27.9869C26.5867 48.6618 25.446 47.4843 25.446 46.0389C25.446 44.5935 26.5867 43.416 27.9869 43.416H37.9984C39.3986 43.416 40.5393 44.5935 40.5393 46.0389C40.5393 47.4893 39.3986 48.6618 37.9984 48.6618Z" fill="white"/>
<path d="M36.3241 52.3309H29.6612C28.261 52.3309 27.1203 51.1534 27.1203 49.708C27.1203 48.2626 28.261 47.085 29.6612 47.085C30.0822 47.085 30.4249 47.4388 30.4249 47.8734C30.4249 48.3081 30.0822 48.6618 29.6612 48.6618C29.1031 48.6618 28.6527 49.1318 28.6527 49.7029C28.6527 50.274 29.108 50.744 29.6612 50.744H36.3241C36.8822 50.744 37.3326 50.274 37.3326 49.7029C37.3326 49.1318 36.8774 48.6618 36.3241 48.6618C35.9031 48.6618 35.5604 48.3081 35.5604 47.8734C35.5604 47.4388 35.9031 47.085 36.3241 47.085C37.7243 47.085 38.865 48.2626 38.865 49.708C38.865 51.1534 37.7243 52.3309 36.3192 52.3309H36.3241Z" fill="white"/>
<path d="M32.9951 56C31.0368 56 29.436 54.3525 29.436 52.3259V51.5425C29.436 51.1079 29.7787 50.7541 30.2046 50.7541C30.6305 50.7541 30.9683 51.1079 30.9683 51.5425V52.3259C30.9683 53.4781 31.8789 54.4181 32.9951 54.4181C34.1113 54.4181 35.0219 53.4781 35.0219 52.3259V51.5425C35.0219 51.1079 35.3646 50.7541 35.7856 50.7541C36.2067 50.7541 36.5493 51.1079 36.5493 51.5425V52.3259C36.5493 54.3474 34.9583 55.9949 32.9951 55.9949V56Z" fill="white"/>
<path d="M32.6867 35.9616H33.2986L33.8176 34.6375C34.1113 33.8945 34.9289 33.5458 35.6436 33.8541L36.9165 34.41L37.3473 33.9653L36.8088 32.6513C36.5053 31.9134 36.848 31.0644 37.5676 30.7662L38.8503 30.2305V29.5988L37.5676 29.0631C36.848 28.7598 36.5102 27.9159 36.8088 27.178L37.3473 25.864L36.9165 25.4193L35.6436 25.9752C34.9289 26.2885 34.1064 25.9348 33.8176 25.1918L33.2986 23.8677H32.6867L32.1677 25.1918C31.874 25.9348 31.0564 26.2835 30.3417 25.9752L29.0688 25.4193L28.638 25.864L29.1765 27.178C29.48 27.9159 29.1373 28.7649 28.4177 29.0631L27.135 29.5988V30.2305L28.4177 30.7662C29.1373 31.0694 29.4751 31.9134 29.1765 32.6513L28.638 33.9653L29.0688 34.41L30.3417 33.8541C31.0564 33.5408 31.8789 33.8945 32.1677 34.6375L32.6867 35.9616ZM33.3917 37.5434H32.5937C32.0258 37.5434 31.5215 37.1896 31.3061 36.6489L30.8019 35.3753L29.573 35.911C29.0492 36.1384 28.4519 36.0171 28.0505 35.6027L27.4875 35.0215C27.0861 34.6071 26.9686 33.9906 27.1889 33.4498L27.7078 32.1813L26.4741 31.6607C25.9503 31.4384 25.6076 30.9178 25.6076 30.3316V29.5078C25.6076 28.9216 25.9503 28.401 26.4741 28.1787L27.7078 27.6581L27.1889 26.3896C26.9686 25.8488 27.0861 25.2323 27.4875 24.8179L28.0505 24.2367C28.4519 23.8222 29.0492 23.701 29.573 23.9284L30.8019 24.4641L31.3061 23.1905C31.5215 22.6498 32.0258 22.296 32.5937 22.296H33.3917C33.9595 22.296 34.4638 22.6498 34.6792 23.1905L35.1835 24.4641L36.4123 23.9284C36.9361 23.701 37.5334 23.8222 37.9348 24.2367L38.4978 24.8179C38.8993 25.2323 39.0167 25.8488 38.7964 26.3896L38.2775 27.6581L39.5112 28.1787C40.035 28.401 40.3777 28.9216 40.3777 29.5078V30.3316C40.3777 30.9178 40.035 31.4384 39.5112 31.6607L38.2775 32.1813L38.7964 33.4498C39.0167 33.9906 38.8993 34.6071 38.4978 35.0215L37.9348 35.6027C37.5334 36.0171 36.9361 36.1384 36.4123 35.911L35.1835 35.3753L34.6792 36.6489C34.4638 37.1896 33.9595 37.5434 33.3917 37.5434Z" fill="white"/>
<path d="M32.9951 28.4162C32.1922 28.4162 31.546 29.0883 31.546 29.9121C31.546 30.7359 32.1971 31.4081 32.9951 31.4081C33.7931 31.4081 34.4442 30.7359 34.4442 29.9121C34.4442 29.0883 33.7931 28.4162 32.9951 28.4162ZM32.9951 32.995C31.3502 32.995 30.0137 31.6153 30.0137 29.9172C30.0137 28.2191 31.3502 26.8394 32.9951 26.8394C34.64 26.8394 35.9766 28.2191 35.9766 29.9172C35.9766 31.6153 34.64 32.995 32.9951 32.995Z" fill="white"/>
<path d="M32.9951 14.8921C32.5741 14.8921 32.2314 14.5383 32.2314 14.1037V10.7884C32.2314 10.3538 32.5741 10 32.9951 10C33.4161 10 33.7588 10.3538 33.7588 10.7884V14.1037C33.7588 14.5383 33.4161 14.8921 32.9951 14.8921Z" fill="white"/>
<path d="M43.0801 19.198C42.7815 18.8897 42.7815 18.3894 43.0801 18.0811L45.3517 15.7361C45.6503 15.4278 46.135 15.4278 46.4336 15.7361C46.7323 16.0444 46.7323 16.5447 46.4336 16.853L44.1621 19.198C43.8634 19.5063 43.3788 19.5063 43.0801 19.198Z" fill="white"/>
<path d="M51.2363 30.3973H48.0247C47.6037 30.3973 47.261 30.0435 47.261 29.6089C47.261 29.1743 47.6037 28.8205 48.0247 28.8205H51.2363C51.6573 28.8205 52 29.1743 52 29.6089C52 30.0435 51.6573 30.3973 51.2363 30.3973Z" fill="white"/>
<path d="M17.9753 30.4124H14.7637C14.3427 30.4124 14 30.0587 14 29.624C14 29.1894 14.3427 28.8356 14.7637 28.8356H17.9753C18.3963 28.8356 18.739 29.1894 18.739 29.624C18.739 30.0587 18.3963 30.4124 17.9753 30.4124Z" fill="white"/>
<path d="M21.833 19.2131L19.5615 16.8682C19.2628 16.5599 19.2628 16.0595 19.5615 15.7513C19.8601 15.443 20.3448 15.443 20.6434 15.7513L22.915 18.0962C23.2136 18.4045 23.2136 18.9049 22.915 19.2131C22.6163 19.5214 22.1317 19.5214 21.833 19.2131Z" fill="white"/>
</g>
<defs>
<clipPath id="clip0_165_7322">
<rect width="38" height="46" fill="white" transform="translate(14 10)"/>
</clipPath>
</defs>
</svg>
