<svg width="65" height="65" viewBox="0 0 65 65" fill="none" xmlns="http://www.w3.org/2000/svg">
<path d="M51.3461 28.9964C48.6593 28.9964 46.4615 26.8264 46.4615 24.1736C46.4615 21.5208 48.6593 19.3508 51.3461 19.3508C54.033 19.3508 56.2308 21.5208 56.2308 24.1736C56.2308 26.8264 54.033 28.9964 51.3461 28.9964ZM49.2692 40.4539L35.8407 48.5316V34.9096L40.1154 32.3164V36.2929C40.1154 36.5913 40.2967 36.8951 40.6044 37.0796C40.7253 37.1392 40.9066 37.1989 41.033 37.1989C41.2143 37.1989 41.3352 37.1392 41.522 37.0796L44.5714 35.273C44.8736 35.094 45 34.7902 45 34.4864V29.4249L46.3461 28.5841C47.1429 29.4249 48.1154 30.0922 49.2747 30.5099V40.4539H49.2692ZM19.967 26.7667L34.011 34.9041V48.5859L19.967 40.4485V26.7667ZM25.4615 22.4267L39.2582 30.6835L34.8626 33.3363L20.8187 25.1989L25.4615 22.4267ZM41.945 31.2315L43.1648 30.5099V34.009L41.945 34.7305V31.2315ZM28.6319 20.5606L42.4286 28.8173L41.0824 29.6582L27.2253 21.4014L28.6319 20.5606ZM34.6154 16.9421L44.7472 22.9692C44.6868 23.3924 44.6209 23.7559 44.6209 24.179C44.6209 25.2043 44.8681 26.17 45.2912 27.0705L44.1319 27.7324L30.3956 19.5352L34.6099 16.9421H34.6154ZM51.3461 17.5443C48.7198 17.5443 46.4011 19.0524 45.3022 21.2224L35.1044 15.1356C34.8022 14.9566 34.4341 14.9566 34.1264 15.1356L18.5604 24.4177C18.3791 24.5371 18.2582 24.7161 18.1923 24.9005V24.9602C18.1319 25.0796 18.1319 25.1392 18.1319 25.2586V40.9313C18.1319 41.2296 18.3132 41.5334 18.5604 41.7179L34.4341 50.8806C34.4945 50.9403 34.6813 51 34.9231 51C35.1044 51 35.2912 50.9403 35.3516 50.8806L50.6154 41.7179C50.8626 41.5389 51.0439 41.2351 51.0439 40.9313V30.8083H51.2857C55.011 30.8083 58 27.8517 58 24.179C58 20.5063 55.0659 17.5497 51.3461 17.5497V17.5443Z" fill="white"/>
<path d="M54.7033 23.8156L52.8077 21.944C52.4396 21.5805 51.8901 21.5805 51.5275 21.944C51.1593 22.3075 51.1593 22.85 51.5275 23.208L51.8956 23.5715H48.6593C48.1703 23.5715 47.7418 23.9946 47.7418 24.4774C47.7418 24.9603 48.1703 25.3834 48.6593 25.3834H51.8352L51.467 25.7469C51.0989 26.1104 51.0989 26.6529 51.467 27.0109C51.6484 27.1899 51.8956 27.255 52.1374 27.255C52.3791 27.255 52.6264 27.1953 52.8077 27.0109L54.7582 25.085C55.0604 24.7216 55.0604 24.1791 54.6978 23.8156H54.7033Z" fill="white"/>
<path d="M15.022 31.4105H8.91758C8.42857 31.4105 8 31.8337 8 32.3165C8 32.7993 8.42857 33.217 8.91209 33.217H15.0165C15.5055 33.217 15.9341 32.7939 15.9341 32.3111C15.9341 31.8282 15.5055 31.4105 15.022 31.4105Z" fill="white"/>
<path d="M15.022 27.792H10.7473C10.2583 27.792 9.82968 28.2151 9.82968 28.698C9.82968 29.1808 10.2583 29.6039 10.7473 29.6039H15.022C15.511 29.6039 15.9396 29.1808 15.9396 28.698C15.9396 28.2151 15.511 27.792 15.022 27.792Z" fill="white"/>
<path d="M15.022 35.0289H10.7473C10.2583 35.0289 9.82968 35.4521 9.82968 35.9295C9.82968 36.4069 10.2583 36.8354 10.7473 36.8354H15.022C15.511 36.8354 15.9396 36.4123 15.9396 35.9295C15.9396 35.4467 15.511 35.0289 15.022 35.0289Z" fill="white"/>
<path d="M26.8626 36.8354L31.2582 39.3689C31.3791 39.4286 31.5604 39.4882 31.7473 39.4882C32.0495 39.4882 32.3571 39.3092 32.544 39.0651C32.7912 38.6419 32.6648 38.0994 32.2418 37.8011L27.8462 35.2676C27.4176 35.0235 26.8681 35.1483 26.5659 35.566C26.3187 35.9891 26.4396 36.5316 26.8681 36.83L26.8626 36.8354Z" fill="white"/>
<path d="M32.1758 41.4141L27.7802 38.8807C27.3516 38.6365 26.8022 38.7613 26.5 39.179C26.2527 39.6022 26.3791 40.1447 26.8022 40.443L31.1978 42.9765C31.3187 43.0362 31.5 43.0958 31.6868 43.0958C31.989 43.0958 32.2967 42.9168 32.4835 42.6727C32.7857 42.1899 32.6648 41.6474 32.1758 41.4087V41.4141Z" fill="white"/>
</svg>
