<svg width="65" height="65" viewBox="0 0 65 65" fill="none" xmlns="http://www.w3.org/2000/svg">
<g clip-path="url(#clip0_165_7386)">
<path d="M50.2272 40.8338C51.3134 40.9653 52.2965 41.1455 53.1173 41.3548C54.0118 41.5886 54.7196 41.8661 55.1521 42.1339C55.5846 42.3968 55.6436 42.5867 55.6436 42.6111C55.6436 42.6354 55.5797 42.8253 55.1521 43.0883C54.7196 43.3512 54.0167 43.6336 53.1173 43.8673C51.3282 44.3348 48.7822 44.6366 45.9659 44.6366C43.1496 44.6366 40.6086 44.3348 38.8146 43.8673C37.92 43.6336 37.2123 43.3561 36.7798 43.0883C36.6323 42.9957 36.534 42.9178 36.4603 42.8497C36.475 42.8497 36.4849 42.8594 36.4996 42.8643C37.1975 43.0736 38.0577 43.1564 39.0702 43.1564C41.0951 43.1467 43.7148 42.7669 46.5213 42.017C47.8484 41.6665 49.0919 41.2623 50.2272 40.8338ZM15.7828 40.8338C16.9182 41.2623 18.1617 41.6665 19.4888 42.017C22.2952 42.762 24.9198 43.1467 26.9399 43.1564C27.9524 43.1564 28.8125 43.0785 29.5105 42.8691C29.5203 42.8691 29.535 42.8594 29.5449 42.8594C29.4711 42.9276 29.3679 43.0055 29.2254 43.098C28.7929 43.3609 28.09 43.6433 27.1906 43.8771C25.4015 44.3445 22.8506 44.6464 20.0392 44.6464C17.2278 44.6464 14.6819 44.3445 12.8879 43.8771C11.9934 43.6433 11.2856 43.3658 10.8531 43.098C10.4206 42.8302 10.3616 42.6452 10.3616 42.6208C10.3616 42.5965 10.4255 42.4066 10.8531 42.1436C11.2807 41.8807 11.9884 41.5983 12.8879 41.3646C13.7087 41.1503 14.6868 40.975 15.773 40.8436L15.7828 40.8338ZM45.9659 40.5855C46.1822 40.5855 46.3935 40.5855 46.6049 40.5855C46.4623 40.6293 46.3149 40.6634 46.1674 40.7072C43.4543 41.4279 40.9133 41.7931 39.0603 41.7979C38.5246 41.7979 38.0528 41.7736 37.6497 41.72C37.9839 41.5886 38.3771 41.4668 38.8146 41.35C40.6036 40.8825 43.1545 40.5806 45.9659 40.5806V40.5855ZM20.0441 40.5855C22.8555 40.5855 25.4015 40.8874 27.1955 41.3548C27.6329 41.4668 28.0212 41.5934 28.3554 41.72C27.9524 41.7736 27.4806 41.8028 26.9448 41.7979C25.0919 41.7979 22.5557 41.4279 19.8377 40.7072C19.6903 40.6634 19.5477 40.6293 19.4003 40.5904C19.6116 40.5904 19.823 40.5904 20.0392 40.5904L20.0441 40.5855ZM44.9829 36.8314C42.8056 38.0146 40.7363 38.8716 39.1291 39.3049C38.7753 39.4023 38.446 39.4754 38.1363 39.5289C38.2248 39.4754 38.3132 39.4267 38.4017 39.3731C39.9844 38.4772 42.319 37.5472 44.9829 36.8314ZM21.0272 36.8314C23.6911 37.5472 26.0208 38.4772 27.6084 39.3731C27.7017 39.4267 27.7902 39.4754 27.8787 39.5289C27.5739 39.4754 27.2446 39.4023 26.8858 39.3049C25.2737 38.8716 23.2045 38.0146 21.0272 36.8314ZM52.2178 35.7115C53.1418 35.7115 53.9037 35.7991 54.3853 35.9452C54.867 36.0913 54.98 36.2568 54.985 36.2812C54.985 36.3055 54.985 36.5052 54.636 36.8704C54.2919 37.2355 53.6776 37.6884 52.8764 38.1461C52.0998 38.5843 51.1414 39.0323 50.0552 39.4607C48.792 39.3195 47.4158 39.2465 45.9708 39.2465C44.919 39.2465 43.9065 39.2855 42.9481 39.3585C44.0491 38.8716 45.2139 38.2824 46.3935 37.6056C47.3126 37.0797 48.1728 36.5393 48.9739 35.9988C50.1879 35.8138 51.2938 35.7212 52.2227 35.7164L52.2178 35.7115ZM13.7923 35.7115C14.7212 35.7115 15.8271 35.8089 17.0411 35.9939C17.8373 36.5393 18.7073 37.0797 19.6215 37.6056C20.8011 38.2824 21.9659 38.8667 23.0669 39.3585C22.1085 39.2855 21.096 39.2465 20.0441 39.2465C18.5991 39.2465 17.218 39.3244 15.9598 39.4607C14.8736 39.0323 13.9102 38.5843 13.1336 38.1461C12.3276 37.6932 11.7181 37.2404 11.3741 36.8704C11.03 36.5052 11.0153 36.3104 11.0251 36.2812C11.03 36.2568 11.1382 36.0913 11.6247 35.9452C12.1064 35.7991 12.8633 35.7115 13.7923 35.7115ZM13.6104 29.7176C14.1166 29.703 14.8736 29.8052 15.7632 30.0487C17.3556 30.4772 19.4052 31.3244 21.5531 32.4881C23.4306 34.28 25.2934 35.7164 26.8858 36.6366C27.4167 36.9434 27.918 37.1917 28.3849 37.3816C28.9157 37.9318 29.2991 38.4285 29.5055 38.818C29.5645 38.9251 29.6038 39.0177 29.6333 39.0956C29.2451 38.7937 28.788 38.5015 28.267 38.2045C26.5123 37.2112 24.045 36.2422 21.2385 35.4973C19.9557 35.1564 18.7122 34.8935 17.5473 34.7036C16.3137 33.8466 15.2668 32.9945 14.4853 32.2252C13.8267 31.5825 13.3548 30.9884 13.114 30.5453C12.8781 30.1023 12.9174 29.9124 12.9272 29.888C12.942 29.8637 13.0894 29.7322 13.5957 29.7176H13.6104ZM52.1932 29.7176H52.3948C52.901 29.7322 53.0484 29.8637 53.0632 29.888C53.0779 29.9075 53.1173 30.1071 52.8764 30.5453C52.6405 30.9884 52.1637 31.5776 51.51 32.2252C50.7286 32.9945 49.6768 33.8466 48.448 34.7036C47.2831 34.8935 46.0396 35.1564 44.7568 35.4924C41.9504 36.2374 39.483 37.2063 37.7284 38.1996C37.2074 38.4967 36.7503 38.7888 36.362 39.0907C36.3915 39.0128 36.4308 38.9154 36.4898 38.8083C36.6962 38.4236 37.0796 37.9221 37.6104 37.3767C38.0822 37.1917 38.5787 36.9434 39.1095 36.6318C40.7019 35.7115 42.5746 34.2702 44.4472 32.4833C46.6 31.3195 48.6446 30.4772 50.2371 30.0487C51.0185 29.8393 51.6919 29.7273 52.1883 29.7176H52.1932ZM41.8275 27.4827C41.739 27.6433 41.6456 27.804 41.5473 27.9696C40.1416 30.3798 38.6032 32.4151 37.3008 33.72C37.0747 33.9489 36.8535 34.1534 36.6421 34.3335C36.8093 34.0852 36.9764 33.8174 37.1435 33.5301C37.4924 32.9215 37.8414 32.2301 38.1756 31.4705C39.0013 30.409 40.004 29.2745 41.1394 28.1497C41.3655 27.9257 41.5965 27.7018 41.8275 27.4875V27.4827ZM24.1826 27.4827C24.4087 27.6969 24.6397 27.916 24.8658 28.1449C26.0011 29.2696 27.0038 30.4041 27.8295 31.4656C28.1637 32.2252 28.5127 32.9215 28.8617 33.5253C29.0288 33.8125 29.1959 34.0803 29.363 34.3335C29.1517 34.1534 28.9305 33.9489 28.7044 33.72C27.4019 32.4151 25.8635 30.3798 24.4578 27.9696C24.3644 27.8089 24.2711 27.6433 24.1777 27.4827H24.1826ZM34.6811 24.9117V24.9264C34.6811 27.2002 34.4795 29.3037 34.1453 30.9641C34.0372 31.2757 33.9438 31.5776 33.8553 31.8698C33.8406 31.2027 33.7865 30.4772 33.6882 29.703C33.8652 28.325 34.1699 26.7718 34.6073 25.1601L34.6761 24.9069L34.6811 24.9117ZM39.021 24.3031C38.8883 24.9264 38.731 25.5642 38.5541 26.2167C38.097 27.9014 37.5514 29.4595 36.9813 30.7791C36.3767 31.563 35.8607 32.3226 35.4478 33.0237C35.1726 33.4912 34.9465 33.9294 34.7646 34.3481C34.7744 34.0998 34.8088 33.8077 34.8678 33.4863C34.9956 33.1406 35.1087 32.7705 35.2168 32.3664C35.3053 32.045 35.3839 31.6993 35.4576 31.339C36.0081 29.7565 36.8781 27.8771 38.0036 25.9489C38.3378 25.3792 38.677 24.829 39.021 24.3031ZM26.9841 24.3031C27.3282 24.829 27.6673 25.3792 28.0016 25.9489C28.5275 26.8497 28.9944 27.7407 29.4023 28.5928C29.535 29.9075 29.7316 31.1004 29.9872 32.1229C29.6972 31.6896 29.3728 31.2368 29.014 30.7742C28.4439 29.4547 27.8983 27.9014 27.4462 26.2167C27.2692 25.5642 27.1169 24.9264 26.9792 24.3031H26.9841ZM49.1656 22.7547C49.3425 22.7547 49.4113 22.7888 49.4261 22.8083C49.4457 22.8278 49.5342 23.003 49.4261 23.49C49.313 23.9769 49.0132 24.6732 48.5414 25.462C47.6075 27.0444 46.0249 29.0456 44.0343 31.0128C43.9016 31.1442 43.7738 31.2708 43.6411 31.3974C43.4199 31.5192 43.2037 31.6409 42.9825 31.7626C40.466 33.2039 38.3378 34.7718 36.8977 36.1789C36.883 36.1935 36.8633 36.2082 36.8486 36.2325C36.6962 36.2861 36.5586 36.325 36.4308 36.3542C36.2145 36.4078 36.0622 36.4127 35.954 36.4078C36.0523 36.364 36.1506 36.3201 36.2489 36.2666C36.8928 35.9257 37.5613 35.3804 38.2739 34.6695C39.6993 33.2428 41.277 31.1394 42.7318 28.6415C43.4199 27.4583 44.0196 26.2946 44.516 25.1893C45.3122 24.5806 46.0691 24.0694 46.7474 23.675C47.5485 23.2124 48.2465 22.9154 48.738 22.8034C48.9248 22.7596 49.0624 22.745 49.1705 22.745L49.1656 22.7547ZM16.8396 22.7547C16.9428 22.7547 17.0853 22.7693 17.2721 22.8083C17.7636 22.9203 18.4664 23.2222 19.2627 23.6799C19.9409 24.0743 20.6978 24.5855 21.4941 25.1942C21.9905 26.2995 22.5901 27.4632 23.2782 28.6464C24.7331 31.1394 26.3157 33.2477 27.7361 34.6744C28.4488 35.3853 29.1173 35.9306 29.7611 36.2715C29.8594 36.325 29.9528 36.3688 30.0511 36.4127C29.943 36.4127 29.7906 36.4029 29.5744 36.3591C29.4466 36.325 29.3089 36.2909 29.1566 36.2374C29.1369 36.2228 29.1222 36.2082 29.1074 36.1838C27.6673 34.7718 25.544 33.2088 23.0226 31.7675C22.8015 31.6409 22.5852 31.5192 22.364 31.4023C22.2313 31.2757 22.1035 31.1491 21.9708 31.0225C19.9803 29.0505 18.3976 27.059 17.4638 25.4717C16.9968 24.678 16.697 23.9866 16.584 23.4997C16.4709 23.0128 16.5594 22.8375 16.5742 22.818C16.5889 22.8034 16.6626 22.7645 16.8346 22.7645L16.8396 22.7547ZM30.6557 22.7547C30.9211 23.5192 31.1717 24.3274 31.3978 25.1698C31.8353 26.7864 32.14 28.3348 32.3169 29.7127C32.2235 30.4869 32.1695 31.2124 32.1498 31.8795C31.8303 30.7839 31.3536 29.5472 30.7392 28.2374C30.6409 27.2051 30.5918 26.0949 30.5918 24.941C30.5918 24.1911 30.6163 23.4607 30.6557 22.7596V22.7547ZM44.5111 18.65C44.5701 18.65 44.6045 18.65 44.6143 18.6598C44.6339 18.6744 44.7716 18.8205 44.7863 19.322C44.806 19.8235 44.6929 20.5685 44.4521 21.4547C44.2162 22.3019 43.8623 23.2855 43.4052 24.3372C42.3583 25.1552 41.2623 26.1193 40.176 27.1954C39.945 27.4242 39.7189 27.6579 39.4928 27.8868C39.6256 27.4534 39.7533 27.0152 39.8762 26.5673C40.3333 24.8777 40.6528 23.2562 40.8396 21.7955C41.3311 21.1869 41.8078 20.6464 42.2551 20.1984C42.9088 19.546 43.5084 19.0785 43.9508 18.8448C44.2309 18.6987 44.4079 18.6549 44.5111 18.65ZM21.4449 18.65C21.5285 18.65 21.7251 18.6646 22.0593 18.8448C22.5066 19.0785 23.1013 19.5508 23.755 20.1984C24.2022 20.6464 24.6839 21.1869 25.1705 21.7955C25.3573 23.2562 25.6768 24.8777 26.1339 26.5673C26.2567 27.0152 26.3845 27.4583 26.5172 27.8868C26.296 27.6579 26.07 27.4242 25.834 27.1954C24.7478 26.1193 23.6518 25.1552 22.6049 24.3372C22.1478 23.2855 21.789 22.3019 21.558 21.4547C21.3122 20.5685 21.209 19.8186 21.2238 19.322C21.2434 18.8205 21.3712 18.6744 21.3958 18.6598C21.4007 18.6598 21.4154 18.65 21.4449 18.65ZM39.0898 16.4346C39.1144 16.4443 39.2815 16.5514 39.429 17.0286C39.5764 17.5058 39.6649 18.2556 39.66 19.1759C39.6501 19.7991 39.6108 20.4954 39.5273 21.255C38.6229 22.4139 37.7038 23.7675 36.824 25.2721C36.5291 25.7736 36.2539 26.2702 35.9983 26.7669C36.0278 26.1729 36.0425 25.5593 36.0425 24.9361C36.0425 23.675 35.9835 22.4674 35.8754 21.3427C36.3079 20.2568 36.765 19.2976 37.2074 18.5234C37.6694 17.7249 38.1265 17.1211 38.4951 16.7803C38.8637 16.4346 39.0603 16.4248 39.0898 16.4346ZM26.9202 16.4346C26.9448 16.4346 27.1463 16.4346 27.515 16.7803C27.8836 17.1211 28.3407 17.7298 28.7978 18.5234C29.0485 18.9617 29.304 19.4583 29.5547 20.0037C29.3434 21.4839 29.2254 23.1589 29.2254 24.9361V25.3597C29.2057 25.3305 29.191 25.3013 29.1762 25.2721C28.3014 23.7724 27.3823 22.409 26.473 21.255C26.3894 20.4954 26.3452 19.7943 26.3403 19.1759C26.3354 18.2605 26.4287 17.5107 26.5713 17.0286C26.7187 16.5514 26.8858 16.4394 26.9104 16.4346H26.9202ZM32.6364 15.3488C32.661 15.3488 32.8527 15.4121 33.1181 15.8357C33.3835 16.2593 33.6686 16.9604 33.9045 17.8515C34.1502 18.7718 34.3517 19.9014 34.4845 21.1576C34.0519 22.2775 33.6489 23.5094 33.295 24.8192C33.1918 25.2039 33.0935 25.5837 33.005 25.9586C32.9166 25.5837 32.8183 25.2039 32.715 24.8192C32.2137 22.9592 31.6092 21.255 30.9653 19.8089C31.0784 19.0883 31.216 18.4309 31.3683 17.8515C31.6043 16.9653 31.8844 16.2642 32.1547 15.8357C32.4251 15.4072 32.6118 15.3488 32.6364 15.3488ZM32.6364 14C31.909 14 31.3831 14.5113 30.9948 15.1248C30.6065 15.7383 30.3067 16.5417 30.0462 17.5058C30.0167 17.6129 29.9921 17.72 29.9626 17.8271C29.4662 16.9702 28.9649 16.2788 28.439 15.7918C27.9082 15.3001 27.2643 14.9397 26.5615 15.1248C25.8586 15.3098 25.4851 15.9428 25.2737 16.6293C25.0624 17.3208 24.9788 18.1729 24.9837 19.1759C24.9837 19.2879 24.9887 19.3999 24.9887 19.5167C24.9002 19.4194 24.8068 19.3317 24.7183 19.2392C24.0056 18.5283 23.3372 17.9878 22.6933 17.647C22.0495 17.3061 21.3319 17.126 20.7077 17.4863C20.0786 17.8466 19.882 18.5526 19.8574 19.2733C19.8328 19.9939 19.9753 20.8363 20.2408 21.8052C20.3391 22.1509 20.4521 22.5161 20.5799 22.8959C20.3685 22.7596 20.1572 22.633 19.9508 22.5113C19.0759 22.0049 18.2895 21.6494 17.5817 21.4887C16.8691 21.3232 16.1318 21.3329 15.6206 21.8393C15.1095 22.3506 15.0996 23.0809 15.2618 23.787C15.429 24.4881 15.7828 25.2721 16.294 26.1339C16.9379 27.2295 17.8324 28.4565 18.9284 29.7225C17.9258 29.3037 16.9821 28.9775 16.1269 28.7486C15.1537 28.4857 14.2985 28.3445 13.5711 28.3688C12.8437 28.3932 12.131 28.5879 11.7673 29.2112C11.4036 29.8344 11.5854 30.5453 11.9295 31.1832C12.2735 31.8162 12.824 32.4833 13.5416 33.1893C13.9446 33.5837 14.4017 33.9878 14.903 34.4017C14.5197 34.3774 14.1511 34.3676 13.7972 34.3628C12.7847 34.3628 11.9246 34.4407 11.2266 34.65C10.5287 34.8594 9.89465 35.2343 9.70297 35.9257C9.51128 36.6172 9.87991 37.2599 10.3763 37.7858C10.8727 38.3116 11.5756 38.8131 12.4554 39.3098C12.7699 39.4851 13.1042 39.6652 13.463 39.8405C13.1435 39.9087 12.8338 39.9769 12.5438 40.0548C11.5658 40.308 10.7548 40.6099 10.1404 40.9945C9.52111 41.3792 9.00504 41.9002 9.00504 42.6208C9.00504 43.3414 9.52111 43.8624 10.1404 44.2471C10.7597 44.6318 11.5707 44.9288 12.5438 45.1869C14.5 45.6981 17.1345 46 20.0392 46C22.944 46 25.5785 45.6981 27.5346 45.1869C28.5127 44.9337 29.3237 44.6318 29.9381 44.2471C30.5574 43.8624 31.0734 43.3414 31.0734 42.6208C31.0734 42.3628 31.0046 42.129 30.8916 41.9148C30.9456 41.8174 30.9899 41.7103 31.0243 41.5934C31.1521 41.1309 31.0243 40.6878 30.7834 40.2934C30.8179 40.2495 30.8473 40.2057 30.8768 40.1522C31.2405 39.5289 31.0538 38.818 30.7146 38.185C30.6311 38.0341 30.5377 37.8783 30.4345 37.7225C30.7294 37.664 30.9997 37.5374 31.2258 37.3135C31.4666 37.0749 31.5944 36.7925 31.6485 36.4808C31.6829 36.4662 31.7124 36.4467 31.7468 36.4273C31.8156 36.3932 31.8746 36.3445 31.9336 36.3007C32.0466 36.3007 32.1597 36.2861 32.2776 36.2568C32.5676 36.1789 32.7986 36.028 32.9903 35.8284H33.0149C33.2066 36.028 33.4376 36.1838 33.7275 36.2617C33.8455 36.2958 33.9585 36.3055 34.0716 36.3055C34.1306 36.3494 34.1896 36.3932 34.2584 36.4321C34.2928 36.4516 34.3223 36.4662 34.3567 36.4857C34.4107 36.7925 34.5385 37.0797 34.7794 37.3183C35.0054 37.5423 35.2807 37.6689 35.5707 37.7273C35.4675 37.8831 35.3692 38.039 35.2905 38.1899C34.9465 38.8278 34.7646 39.5387 35.1283 40.157C35.1578 40.2106 35.1873 40.2544 35.2217 40.2982C34.976 40.6975 34.8531 41.1357 34.9809 41.6032C35.0104 41.72 35.0595 41.8271 35.1136 41.9245C35.0005 42.1339 34.9317 42.3676 34.9317 42.6257C34.9317 43.3463 35.4478 43.8673 36.0671 44.252C36.6864 44.6366 37.4924 44.9337 38.4705 45.1917C40.4267 45.703 43.0611 46.0049 45.9659 46.0049C48.8707 46.0049 51.5051 45.703 53.4613 45.1917C54.4394 44.9385 55.2504 44.6366 55.8647 44.252C56.484 43.8673 57.0001 43.3463 57.0001 42.6257C57.0001 41.9051 56.484 41.3841 55.8647 40.9994C55.2455 40.6147 54.4345 40.3177 53.4613 40.0596C53.1713 39.9817 52.8617 39.9136 52.5422 39.8454C52.901 39.6701 53.2352 39.4948 53.5498 39.3147C54.4296 38.818 55.1324 38.3165 55.6288 37.7906C56.1252 37.2648 56.489 36.6269 56.3022 35.9306C56.1154 35.2343 55.4765 34.8594 54.7834 34.6549C54.0855 34.4455 53.2254 34.3676 52.2129 34.3676C51.8639 34.3676 51.4953 34.3822 51.107 34.4066C51.6083 33.9927 52.0704 33.5886 52.4685 33.1893C53.1861 32.4833 53.7365 31.8211 54.0806 31.1881C54.4247 30.5502 54.6065 29.8393 54.2428 29.2209C53.8791 28.5977 53.1664 28.4029 52.439 28.3786C51.7116 28.3542 50.8613 28.4954 49.8832 28.7584C49.0329 28.9872 48.0843 29.3183 47.0816 29.7322C48.1728 28.4614 49.0673 27.2392 49.7112 26.1436C50.2223 25.2769 50.5762 24.4979 50.7433 23.7967C50.9104 23.0907 50.9006 22.3603 50.3845 21.8491C49.8733 21.3427 49.1312 21.3329 48.4234 21.4985C47.7107 21.664 46.9243 22.0146 46.0544 22.521C45.848 22.6427 45.6366 22.7693 45.4253 22.9057C45.5531 22.5307 45.6661 22.1656 45.7644 21.815C46.0298 20.8509 46.1723 20.0037 46.1478 19.283C46.1232 18.5624 45.9266 17.8564 45.2975 17.496C44.6684 17.1357 43.9508 17.3208 43.3118 17.6567C42.6679 17.9976 41.9995 18.5429 41.2868 19.2538C41.1984 19.3414 41.1099 19.434 41.0165 19.5265C41.0165 19.4145 41.0165 19.2976 41.0165 19.1856C41.0263 18.1826 40.9379 17.3305 40.7265 16.6391C40.5152 15.9477 40.1367 15.3195 39.4388 15.1345C38.7359 14.9495 38.0921 15.3098 37.5613 15.8016C37.0304 16.2934 36.5242 16.9945 36.0229 17.8612C35.8508 18.1582 35.6788 18.4796 35.5117 18.8156C35.4232 18.353 35.3249 17.9197 35.2168 17.5155C34.9612 16.5466 34.6565 15.7432 34.2682 15.1345C33.8897 14.5161 33.3589 14 32.6364 14Z" fill="white"/>
</g>
<defs>
<clipPath id="clip0_165_7386">
<rect width="48" height="32" fill="white" transform="translate(9 14)"/>
</clipPath>
</defs>
</svg>
