<svg width="65" height="65" viewBox="0 0 65 65" fill="none" xmlns="http://www.w3.org/2000/svg">
<path fill-rule="evenodd" clip-rule="evenodd" d="M44.5809 43.1642C45.7387 42.4315 47.1957 41.3618 48.432 40.1407C50.0361 38.5629 50.9339 37.0682 50.9339 35.9252C50.9339 34.3719 49.9233 33.2387 48.7852 32.8626C48.2259 32.677 47.6912 32.6965 47.2448 32.887C46.818 33.0677 46.3421 33.4634 45.9889 34.2742C45.8417 34.6064 45.5964 34.8604 45.2972 35.0167C45.253 35.0411 45.1991 35.0606 45.15 35.0851C44.9636 35.1583 44.7723 35.1925 44.5809 35.1925C44.3896 35.1925 44.1983 35.1583 44.0119 35.0851C43.9628 35.0655 43.9138 35.0411 43.8647 35.0167C43.5655 34.8604 43.3202 34.6064 43.173 34.2742C42.8149 33.4585 42.3439 33.0677 41.9122 32.887C41.4658 32.6965 40.9311 32.677 40.3718 32.8626C39.2337 33.2338 38.2231 34.3719 38.2231 35.9252C38.2231 37.0682 39.1159 38.558 40.725 40.1407C41.9613 41.3618 43.4134 42.4267 44.576 43.1642H44.5809ZM33.8128 25.902C35.0245 22.7514 37.9287 21.6279 40.6318 22.1897C43.3251 22.7465 45.6995 24.969 45.6995 28.6374V30.1614H45.8564C45.3904 30.3812 44.9636 30.6694 44.576 31.0308C44.1394 30.6254 43.6488 30.3079 43.1141 30.0783C41.8975 29.5654 40.5828 29.5801 39.4152 29.966C37.1046 30.7231 35.157 32.9651 35.157 35.9252C35.157 37.9084 36.2804 39.7645 37.5902 41.2739L36.7955 41.8454C35.2355 42.964 33.7 43.9116 32.3803 44.698C29.9324 43.2424 26.773 41.2446 24.1288 38.6899C21.1854 35.852 19.0661 32.506 19.0661 28.6374C19.0661 24.7688 21.4405 22.7465 24.1337 22.1897C26.8319 21.6279 29.7361 22.7514 30.9478 25.8873C30.9577 25.9118 30.9675 25.9411 30.9773 25.9655C31.1343 26.3269 31.4335 26.6249 31.8358 26.7763C32.0713 26.8691 32.3165 26.8936 32.5569 26.8691C32.6011 26.8643 32.6501 26.8594 32.6943 26.8496C32.8071 26.8252 32.9151 26.791 33.0181 26.747C33.3713 26.5858 33.6656 26.2928 33.8177 25.9069L33.8128 25.902ZM23.5107 19.2003C19.5321 20.0258 16 23.3864 16 28.6374C16 33.8883 18.7767 37.7765 21.9997 40.8831C25.213 43.98 29.0493 46.2855 31.5758 47.7704C31.6543 47.8193 31.7377 47.8584 31.826 47.8926C32.2184 48.0489 32.6698 48.0391 33.072 47.8388C33.1113 47.8193 33.1505 47.7997 33.1898 47.7753C34.6762 46.901 36.614 45.7433 38.5959 44.3219L39.8224 43.4427C41.2401 44.6492 42.7168 45.6359 43.796 46.2562C43.85 46.2855 43.899 46.3148 43.953 46.3392C44.1541 46.4321 44.3749 46.476 44.5858 46.476C44.7968 46.476 45.0176 46.4321 45.2187 46.3392C45.2727 46.3148 45.3217 46.2855 45.3757 46.2562C46.7787 45.4502 48.844 44.0288 50.5905 42.3094C52.2683 40.6584 54.0049 38.392 54.0049 35.9252C54.0049 32.9651 52.0573 30.7182 49.7467 29.966C49.4327 29.8634 49.104 29.7853 48.7754 29.7413V28.6423C48.7754 23.3913 45.2432 20.0307 41.2647 19.2052C38.1103 18.5506 34.6075 19.4885 32.3901 22.2776C30.1678 19.4836 26.6602 18.5457 23.5107 19.2003Z" fill="white"/>
</svg>
