<svg width="65" height="65" viewBox="0 0 65 65" fill="none" xmlns="http://www.w3.org/2000/svg">
<g clip-path="url(#clip0_165_8348)">
<path d="M50.1304 45.0729C47.4795 45.0729 45.2803 43.1185 44.8939 40.5833H55.3615C54.9805 43.124 52.7814 45.0729 50.1304 45.0729ZM56.2107 39.009H44.0501C43.6147 39.009 43.2608 39.3619 43.2608 39.7962C43.2608 43.5746 46.3418 46.6472 50.1304 46.6472C53.919 46.6472 57 43.5746 57 39.7962C57 39.3619 56.6462 39.009 56.2107 39.009Z" fill="white"/>
<path d="M15.8696 45.0729C13.2186 45.0729 11.0195 43.1185 10.633 40.5833H21.1007C20.7197 43.124 18.5151 45.0729 15.8696 45.0729ZM21.9499 39.009H9.78929C9.35382 39.009 9 39.3619 9 39.7962C9 43.5746 12.081 46.6472 15.8696 46.6472C19.6582 46.6472 22.7392 43.5746 22.7392 39.7962C22.7392 39.3619 22.3853 39.009 21.9499 39.009Z" fill="white"/>
<path d="M41.3447 27.3645C40.5609 27.3645 39.9295 26.7293 39.9295 25.953V23.4721C39.9295 22.6904 40.5609 22.0607 41.3447 22.0607C42.1286 22.0607 42.76 22.6958 42.76 23.4721V25.953C42.76 26.7293 42.1286 27.3645 41.3447 27.3645ZM38.3563 26.9628C38.3563 27.7445 37.7194 28.3742 36.941 28.3742C36.1626 28.3742 35.5257 27.7391 35.5257 26.9628V22.4515C35.5257 21.6698 36.1626 21.0401 36.941 21.0401C37.7194 21.0401 38.3563 21.6752 38.3563 22.4515V26.9628ZM32.5264 27.3645H31.1111V22.4515V21.0944C31.1111 20.4267 31.4922 19.8349 32.042 19.6558C32.5047 19.5038 32.9728 19.5689 33.3484 19.8404C33.7185 20.1064 33.9363 20.5352 33.9363 20.9912V25.7739C33.9363 25.7739 33.9363 25.7848 33.9363 25.7902C33.9363 25.7902 33.9363 25.801 33.9363 25.8065V27.7337C33.5171 27.5002 33.0381 27.3645 32.5264 27.3645ZM13.3166 26.5176C13.3166 26.0508 13.6977 25.6762 14.1604 25.6762H25.1288V26.9736C25.1288 27.1094 25.1669 27.2342 25.1887 27.3699H22.4561C22.4561 27.3699 22.4452 27.3699 22.4343 27.3699H14.1604C13.6922 27.3699 13.3166 26.9899 13.3166 26.5285V26.5176ZM27.6437 21.1161C28.1227 20.9695 28.5908 21.0455 28.9664 21.3224C29.3257 21.5884 29.538 22.001 29.538 22.4461V26.9628C29.538 27.0985 29.5162 27.2342 29.4781 27.3591H26.7673C26.7292 27.2342 26.7074 27.0985 26.7074 26.9628V24.8836V22.5221C26.7074 21.8598 27.0885 21.279 27.6437 21.1107V21.1161ZM52.6779 26.5176C52.6779 26.9845 52.2969 27.3591 51.8342 27.3591H44.3386V25.6708H51.8342C52.3023 25.6708 52.6779 26.0508 52.6779 26.5122V26.5176ZM44.3386 28.928H49.0635L44.8993 37.2664C44.7033 37.6573 44.8666 38.1296 45.2531 38.3196C45.3674 38.3739 45.4872 38.401 45.6015 38.401C45.89 38.401 46.1731 38.2381 46.3091 37.9667L50.125 30.3231L53.8918 37.8636C54.0279 38.1404 54.311 38.2979 54.5995 38.2979C54.7192 38.2979 54.839 38.2707 54.9478 38.2164C55.3398 38.021 55.4976 37.5487 55.3017 37.1633L51.1919 28.928H51.8342C53.1678 28.928 54.2565 27.8422 54.2565 26.5122C54.2565 25.1822 53.1678 24.0964 51.8342 24.0964H44.3386V23.4667C44.3386 21.8218 42.9941 20.4809 41.3447 20.4809C40.6807 20.4809 40.071 20.7035 39.5756 21.0727C39.0748 20.1226 38.0896 19.4658 36.9356 19.4658C36.3368 19.4658 35.7761 19.6504 35.308 19.9544C35.1012 19.4061 34.7582 18.912 34.2738 18.5646C33.4899 17.9946 32.4938 17.8535 31.5521 18.1575C30.7083 18.4343 30.066 19.1292 29.7557 19.9761C29.0045 19.4821 28.0846 19.3409 27.1864 19.6123C25.9726 19.9761 25.1288 21.1758 25.1288 22.5276V24.0964H14.1604C12.8267 24.0964 11.738 25.1822 11.738 26.5122C11.738 27.8422 12.8267 28.928 14.1604 28.928H14.8027L10.6929 37.1633C10.4969 37.5487 10.6602 38.0264 11.0467 38.2164C11.161 38.2707 11.2808 38.2979 11.3951 38.2979C11.6836 38.2979 11.9667 38.135 12.1027 37.8636L15.8696 30.3177L19.6854 37.9613C19.8215 38.2381 20.1046 38.3956 20.3931 38.3956C20.5128 38.3956 20.6326 38.3684 20.7414 38.3141C21.1334 38.1187 21.2912 37.6464 21.0953 37.261L16.931 28.9225H21.6559V32.31C21.6559 34.4924 22.565 36.5987 24.1436 38.1024C25.4173 39.3076 26.1413 41.0013 26.1413 42.7548V46.2074C26.1413 46.6417 26.4951 46.9946 26.9306 46.9946C27.3661 46.9946 27.7199 46.6417 27.7199 46.2074V42.7548C27.7199 40.5725 26.8108 38.4662 25.2323 36.9624C23.9585 35.7572 23.2291 34.0581 23.2291 32.31V28.928H32.5264C33.3103 28.928 33.9417 29.5631 33.9417 30.3394C33.9417 31.1157 33.3048 31.7509 32.5264 31.7509H29.108C28.6725 31.7509 28.3187 32.1037 28.3187 32.538C28.3187 32.9723 28.6725 33.3252 29.108 33.3252C30.2239 33.3252 31.1275 34.2264 31.1275 35.3392C31.1275 35.7735 31.4813 36.1264 31.9168 36.1264C32.3522 36.1264 32.7061 35.7735 32.7061 35.3392C32.7061 34.5901 32.4774 33.9006 32.0801 33.3252H32.5264C34.1758 33.3252 35.5203 31.9843 35.5203 30.3394C35.5203 30.0408 35.4659 29.764 35.3842 29.498C35.8415 29.7748 36.364 29.9431 36.941 29.9431C38.0896 29.9431 39.0803 29.2863 39.5811 28.3362C40.0764 28.7054 40.6861 28.928 41.3502 28.928C41.8673 28.928 42.3409 28.7868 42.7655 28.5534V32.2449C42.7655 33.9983 42.0361 35.6921 40.7677 36.8973C39.1837 38.401 38.2801 40.5128 38.2801 42.6897V46.1423C38.2801 46.5766 38.6339 46.9295 39.0694 46.9295C39.5049 46.9295 39.8587 46.5766 39.8587 46.1423V42.6897C39.8587 40.9362 40.5881 39.2425 41.8619 38.0373C43.4459 36.5335 44.3495 34.4218 44.3495 32.2449V28.9334L44.3386 28.928Z" fill="white"/>
</g>
<defs>
<clipPath id="clip0_165_8348">
<rect width="48" height="29" fill="white" transform="translate(9 18)"/>
</clipPath>
</defs>
</svg>
