<svg width="65" height="65" viewBox="0 0 65 65" fill="none" xmlns="http://www.w3.org/2000/svg">
<g clip-path="url(#clip0_165_8363)">
<path fill-rule="evenodd" clip-rule="evenodd" d="M22.7228 38.8503L19.3083 48.082L24.3846 46.6492C24.7773 46.5419 25.1796 46.7006 25.3855 47.0226L28.3355 51.2557L31.367 43.0648C31.1275 42.9341 30.8976 42.7895 30.6678 42.6448C30.2703 42.3927 29.8776 42.15 29.5567 42.0754C29.2263 42.0007 28.757 42.0567 28.2876 42.1174C27.4831 42.2154 26.6785 42.3134 25.8979 41.94C25.1125 41.5667 24.7055 40.8806 24.2936 40.2038C24.0638 39.8211 23.8339 39.4337 23.5849 39.2377C23.3885 39.0837 23.0724 38.967 22.7372 38.855L22.7228 38.8503ZM33 43.7136L29.4083 53.4306C29.346 53.5987 29.2359 53.748 29.073 53.8554C28.6708 54.1214 28.12 54.0187 27.847 53.6267L24.2649 48.4834L18.135 50.2149C17.9626 50.2663 17.771 50.2616 17.589 50.1963C17.1293 50.0376 16.8899 49.5429 17.0575 49.0948L21.0802 38.2203C20.8216 38.0709 20.5822 37.8796 20.381 37.6322C19.8399 36.9788 19.768 36.1947 19.6914 35.4106C19.6483 34.9626 19.6052 34.5145 19.4615 34.2298C19.3227 33.9545 18.9874 33.6418 18.6474 33.3291C18.0488 32.7783 17.4502 32.2229 17.249 31.3828C17.0479 30.5521 17.3256 29.796 17.5986 29.0259C17.7614 28.5779 17.9243 28.1298 17.9243 27.7658C17.9243 27.4017 17.7614 26.9537 17.5986 26.5056C17.3209 25.7402 17.0479 24.9795 17.249 24.1487C17.455 23.3086 18.0536 22.7532 18.6474 22.2025C18.9874 21.8898 19.3227 21.5771 19.4615 21.3017C19.6052 21.017 19.6483 20.569 19.6914 20.1209C19.768 19.3368 19.8399 18.5528 20.381 17.8994C20.9174 17.2459 21.6884 17.0079 22.4594 16.7652C22.8952 16.6299 23.3262 16.4945 23.5801 16.2985C23.8291 16.1025 24.059 15.7198 24.2888 15.3324C24.6959 14.651 25.1077 13.9696 25.8931 13.5962C26.6785 13.2228 27.4783 13.3208 28.2828 13.4189C28.7522 13.4749 29.2215 13.5355 29.5519 13.4609C29.8776 13.3862 30.2703 13.1388 30.663 12.8915C31.3717 12.4481 32.0901 11.9954 33.0048 11.9954C33.9195 11.9954 34.6378 12.4434 35.3466 12.8915C35.7441 13.1435 36.1368 13.3862 36.4576 13.4609C36.7881 13.5355 37.2574 13.4795 37.7267 13.4189C38.5313 13.3208 39.3358 13.2228 40.1164 13.5962C40.9018 13.9696 41.3089 14.6557 41.7207 15.3324C41.9506 15.7151 42.1805 16.1025 42.4295 16.2985C42.6785 16.4945 43.1143 16.6299 43.5501 16.7652C44.3212 17.0033 45.0874 17.2459 45.6285 17.8994C46.1697 18.5528 46.2415 19.3368 46.3182 20.1209C46.3613 20.569 46.4044 21.017 46.548 21.3017C46.6869 21.5771 47.0221 21.8898 47.3622 22.2025C47.9608 22.7532 48.5594 23.3086 48.7605 24.1487C48.9617 24.9795 48.6839 25.7356 48.4109 26.5056C48.2481 26.9537 48.0853 27.4017 48.0853 27.7658C48.0853 28.1298 48.2481 28.5779 48.4109 29.0259C48.6887 29.7913 48.9617 30.5521 48.7605 31.3828C48.5546 32.2229 47.956 32.7783 47.3622 33.3291C47.0221 33.6418 46.6869 33.9545 46.548 34.2298C46.4044 34.5145 46.3613 34.9626 46.3182 35.4106C46.2415 36.1947 46.1697 36.9788 45.6285 37.6322C45.4226 37.8796 45.188 38.0663 44.9294 38.2203L48.9521 49.0948C49.1149 49.5429 48.8755 50.0376 48.4205 50.1963C48.2385 50.2616 48.047 50.2616 47.8746 50.2149L41.7447 48.4834L38.1625 53.6267C37.8895 54.0187 37.3388 54.1214 36.9365 53.8554C36.7737 53.748 36.6636 53.5987 36.6013 53.4306L33.0096 43.7136H33ZM34.6378 43.0648L37.6693 51.2557L40.6193 47.0226C40.8252 46.7006 41.2275 46.5372 41.6202 46.6492L46.6965 48.082L43.2819 38.8503C42.9467 38.9577 42.6306 39.0744 42.4343 39.2331C42.1853 39.4291 41.9554 39.8118 41.7255 40.1992C41.3185 40.8806 40.9066 41.562 40.1212 41.9354C39.3358 42.3087 38.5361 42.2107 37.7315 42.1127C37.2622 42.0567 36.7929 41.996 36.4624 42.0707C36.1368 42.1454 35.7441 42.3927 35.3514 42.6401C35.1215 42.7848 34.8916 42.9295 34.6522 43.0602L34.6378 43.0648ZM34.384 14.3523C34.9108 14.6837 35.4328 15.0104 36.0506 15.1504C36.6923 15.2951 37.3149 15.2204 37.9374 15.1457C38.4882 15.0804 39.0341 15.0104 39.3358 15.155C39.6375 15.2997 39.9153 15.7571 40.1883 16.2145C40.5043 16.7372 40.8156 17.2646 41.3185 17.652C41.8213 18.044 42.4151 18.2307 43.0138 18.4174C43.5262 18.5761 44.0338 18.7348 44.2445 18.9915C44.4505 19.2435 44.5031 19.7662 44.551 20.2889C44.6085 20.8957 44.666 21.5024 44.9533 22.0718C45.2359 22.6365 45.686 23.0473 46.1314 23.4626C46.5337 23.836 46.9455 24.2141 47.0221 24.5501C47.1036 24.8908 46.9168 25.4135 46.7252 25.9362C46.5097 26.5243 46.2942 27.1217 46.2942 27.7704C46.2942 28.4192 46.5097 29.0119 46.7252 29.6047C46.9168 30.1274 47.1036 30.6501 47.0221 30.9908C46.9407 31.3315 46.5337 31.7096 46.1314 32.0783C45.6812 32.4936 45.2359 32.9044 44.9533 33.4691C44.666 34.0385 44.6085 34.6452 44.551 35.2519C44.4984 35.7747 44.4505 36.2974 44.2445 36.5494C44.0338 36.8015 43.5262 36.9648 43.0138 37.1235C42.4151 37.3102 41.8213 37.4969 41.3185 37.8889C40.8204 38.281 40.5043 38.8037 40.1883 39.3264C39.9153 39.7838 39.6375 40.2412 39.3358 40.3859C39.0341 40.5305 38.4882 40.4605 37.9374 40.3952C37.3149 40.3205 36.6875 40.2458 36.0506 40.3905C35.428 40.5305 34.906 40.8619 34.384 41.1886C33.8955 41.4966 33.3975 41.8047 33 41.8047C32.6025 41.8047 32.1045 41.492 31.616 41.1886C31.0892 40.8572 30.5672 40.5305 29.9494 40.3905C29.3077 40.2458 28.6851 40.3205 28.0626 40.3952C27.5118 40.4605 26.9659 40.5305 26.6642 40.3859C26.3625 40.2412 26.0847 39.7838 25.8117 39.3264C25.4957 38.8037 25.1844 38.2763 24.6815 37.8889C24.1787 37.4969 23.5849 37.3102 22.9862 37.1235C22.4738 36.9648 21.9662 36.8061 21.7555 36.5494C21.5495 36.2974 21.4969 35.7747 21.449 35.2519C21.3915 34.6452 21.334 34.0385 21.0467 33.4691C20.7641 32.9044 20.314 32.4936 19.8686 32.0783C19.4663 31.7049 19.0545 31.3268 18.9778 30.9908C18.8964 30.6501 19.0832 30.1274 19.2748 29.6047C19.4903 29.0166 19.7058 28.4192 19.7058 27.7704C19.7058 27.1217 19.4903 26.529 19.2748 25.9362C19.0832 25.4135 18.8964 24.8908 18.9778 24.5501C19.0593 24.2094 19.4663 23.8313 19.8686 23.4626C20.3188 23.0473 20.7641 22.6365 21.0467 22.0718C21.334 21.5024 21.3915 20.8957 21.449 20.2889C21.5016 19.7662 21.5495 19.2435 21.7555 18.9915C21.9662 18.7394 22.4738 18.5761 22.9862 18.4174C23.5849 18.2307 24.1787 18.044 24.6815 17.652C25.1796 17.2599 25.4957 16.7372 25.8117 16.2145C26.0847 15.7571 26.3625 15.2997 26.6642 15.155C26.9659 15.0104 27.5118 15.0804 28.0626 15.1457C28.6851 15.2204 29.3125 15.2951 29.9494 15.1504C30.572 15.0104 31.094 14.679 31.616 14.3523C32.1045 14.0443 32.6025 13.7362 33 13.7362C33.3975 13.7362 33.8955 14.0489 34.384 14.3523ZM33.7998 22.5012L35.179 25.3575L38.3972 25.7496C38.8857 25.8056 39.2305 26.2396 39.1682 26.711C39.1395 26.9397 39.0245 27.1357 38.8521 27.2711L36.5247 29.3993L37.1329 32.5076C37.2239 32.9744 36.9126 33.4271 36.4289 33.5158C36.2182 33.5578 36.0075 33.5158 35.8351 33.4224L32.9904 31.8962L30.1458 33.4224C29.7195 33.6511 29.1784 33.4971 28.9437 33.0817C28.8432 32.8997 28.8144 32.6943 28.8479 32.503L29.4561 29.3946L27.0856 27.2291C26.7312 26.9024 26.7121 26.3563 27.0473 26.0109C27.1957 25.8569 27.3873 25.7682 27.5837 25.7449L30.8019 25.3482L32.1811 22.4919C32.387 22.0578 32.9138 21.8758 33.3544 22.0765C33.5507 22.1652 33.6944 22.3145 33.7806 22.4919L33.7998 22.5012ZM33.7854 26.5243C33.9195 26.8043 34.1877 26.9817 34.4798 27.0144L36.3092 27.2431L34.9635 28.4752C34.7336 28.6852 34.6474 28.9839 34.7001 29.2686L35.0497 31.0375L33.431 30.1694C33.1532 30.02 32.8276 30.034 32.569 30.174L30.9599 31.0375L31.3095 29.2686C31.3717 28.9559 31.252 28.6479 31.0174 28.4519L29.6956 27.2431L31.525 27.019C31.865 26.977 32.138 26.753 32.2529 26.459L33.0096 24.8908L33.795 26.5243H33.7854ZM33 17.7033C35.8542 17.7033 38.4355 18.8281 40.3032 20.653C42.1709 22.4732 43.3298 24.9935 43.3298 27.7704C43.3298 30.5474 42.1757 33.0677 40.3032 34.8879C38.4355 36.7081 35.8494 37.8376 33 37.8376C30.1506 37.8376 27.5645 36.7128 25.6968 34.8879C23.8291 33.0677 22.6702 30.5474 22.6702 27.7704C22.6702 24.9935 23.8243 22.4732 25.6968 20.653C27.5645 18.8328 30.1506 17.7033 33 17.7033ZM39.0485 21.8758C37.5016 20.3683 35.361 19.4349 33 19.4349C30.639 19.4349 28.4984 20.3683 26.9515 21.8758C25.4047 23.3833 24.4469 25.4695 24.4469 27.7704C24.4469 30.0714 25.4047 32.1576 26.9515 33.6651C28.4984 35.1726 30.639 36.106 33 36.106C35.361 36.106 37.5016 35.1726 39.0485 33.6651C40.5953 32.1576 41.5531 30.0714 41.5531 27.7704C41.5531 25.4695 40.5953 23.3833 39.0485 21.8758Z" fill="white"/>
</g>
<defs>
<clipPath id="clip0_165_8363">
<rect width="32" height="42" fill="white" transform="translate(17 12)"/>
</clipPath>
</defs>
</svg>
