<svg width="65" height="65" viewBox="0 0 65 65" fill="none" xmlns="http://www.w3.org/2000/svg">
<g clip-path="url(#clip0_165_8377)">
<path d="M40.6284 39.9693C36.3789 44.5584 29.9231 46.7693 21.2569 46.4267C22.4477 44.897 24.1442 42.5188 25.6736 40.4792C28.9035 39.4594 34.1685 37.7584 37.3984 37.0813C37.3984 37.0813 32.3007 36.2328 28.0512 37.4198C28.2225 37.2485 28.3897 36.9099 28.5609 36.7386C31.4483 33.1693 40.4571 24.1625 40.4571 24.1625C36.3789 25.8635 32.8104 28.5802 29.5805 31.6396C29.242 29.6 28.2225 27.5604 28.2225 27.5604C28.5609 29.4287 28.2225 31.6396 27.884 33.1693C24.1442 37.7584 21.0856 42.3475 19.3891 45.2396C19.3891 40.4792 20.4086 30.7912 26.6972 24.6724C31.2852 20.4219 37.9123 18.7249 46.4072 19.7447C46.7457 23.1427 46.917 33.3406 40.6284 39.9693ZM49.633 17.8765L49.4618 16.6853L48.275 16.514C38.0795 14.9843 29.9231 16.8526 24.3155 22.2942C14.6298 31.4724 15.9878 47.6178 16.1591 48.299L16.3304 49.6574L17.6885 49.8287C19.2178 50 20.9184 50 22.4477 50C31.4524 50 38.422 47.4505 43.1772 42.3516C52.0147 33.0021 49.8043 18.5536 49.633 17.8765Z" fill="white"/>
</g>
<defs>
<clipPath id="clip0_165_8377">
<rect width="34" height="34" fill="white" transform="translate(16 16)"/>
</clipPath>
</defs>
</svg>
