<svg width="37" height="37" viewBox="0 0 37 37" fill="none" xmlns="http://www.w3.org/2000/svg">
<g id="Clip path group">
<mask id="mask0_2033_1012" style="mask-type:luminance" maskUnits="userSpaceOnUse" x="0" y="0" width="37" height="37">
<g id="clippath">
<path id="Vector" d="M36.8705 0H0V36.8705H36.8705V0Z" fill="white"/>
</g>
</mask>
<g mask="url(#mask0_2033_1012)">
<g id="Group">
<path id="Vector_2" d="M18.4581 0C8.26959 0 0 8.26959 0 18.4124C0 28.5552 8.26959 36.8248 18.4124 36.8248C28.5552 36.8248 36.8248 28.5552 36.8248 18.4124C36.8248 8.26959 28.6009 0 18.4581 0Z" fill="#DC3D3D"/>
<path id="Vector_3" d="M13.341 27.6415H8.86355V13.2953H13.341V27.6415ZM11.1023 11.3307C9.68594 11.3307 8.49805 10.1885 8.49805 8.72649C8.49805 7.26446 9.64026 6.12225 11.1023 6.12225C12.5643 6.12225 13.7065 7.26446 13.7065 8.72649C13.7065 10.1885 12.5643 11.3307 11.1023 11.3307ZM30.063 27.6415H25.5855V20.6512C25.5855 19.0064 25.5855 16.859 23.2554 16.859C20.9253 16.859 20.5598 18.6866 20.5598 20.5598V27.6872H16.0823V13.341H20.377V15.3056H20.4227C21.0167 14.1634 22.4787 12.9755 24.6717 12.9755C29.1949 12.9755 30.0173 15.9453 30.0173 19.8288V27.6872L30.063 27.6415Z" fill="white"/>
</g>
</g>
</g>
</svg>
