<svg width="37" height="37" viewBox="0 0 37 37" fill="none" xmlns="http://www.w3.org/2000/svg">
<g id="Clip path group">
<mask id="mask0_2033_1944" style="mask-type:luminance" maskUnits="userSpaceOnUse" x="0" y="0" width="37" height="37">
<g id="clippath">
<path id="Vector" d="M36.9135 0H0.0429688V36.8705H36.9135V0Z" fill="white"/>
</g>
</mask>
<g mask="url(#mask0_2033_1944)">
<g id="Group">
<path id="Vector_2" d="M23.344 16.7676L23.207 18.5038H19.9631V29.4233H15.577V18.5038H13.384V14.1177H15.5313V12.1531C15.5313 10.3713 16.3994 7.58427 20.1458 7.58427H23.5268V11.3307H21.0596C20.6484 11.3307 20.1002 11.5135 20.1002 12.3815V14.1177H23.5725L23.344 16.7676ZM18.5011 0C8.31256 0 0.0429688 8.26959 0.0429688 18.4124C0.0429688 28.5552 8.31256 36.8248 18.4554 36.8248C28.5982 36.8248 36.8678 28.5552 36.8678 18.4124C36.8678 8.26959 28.6439 0 18.5011 0Z" fill="#DC3D3D"/>
</g>
</g>
</g>
</svg>
