<svg width="37" height="37" viewBox="0 0 37 37" fill="none" xmlns="http://www.w3.org/2000/svg">
<g id="Clip path group">
<mask id="mask0_2033_2515" style="mask-type:luminance" maskUnits="userSpaceOnUse" x="0" y="0" width="37" height="37">
<g id="clippath">
<path id="Vector" d="M36.9569 0H0.0864258V36.8705H36.9569V0Z" fill="white"/>
</g>
</mask>
<g mask="url(#mask0_2033_2515)">
<g id="Group">
<path id="Vector_2" d="M18.5217 36.8705C28.6771 36.8705 36.9569 28.6364 36.9569 18.4353C36.9569 8.23411 28.6771 0 18.5217 0C8.36628 0 0.0864258 8.23411 0.0864258 18.4353C0.0864258 28.6364 8.32053 36.8705 18.5217 36.8705Z" fill="#DC3D3D"/>
<path id="Vector_3" fill-rule="evenodd" clip-rule="evenodd" d="M22.181 18.2065L16.2342 21.4087V14.9586L18.9331 16.4225L22.181 18.2065ZM29.3173 13.815C29.3173 13.815 29.0885 12.2597 28.4481 11.5277C27.6247 10.6128 26.6641 10.6128 26.2524 10.5671C23.1874 10.3384 18.5672 10.3384 18.5672 10.3384C18.5672 10.3384 13.9469 10.3384 10.882 10.5671C10.4703 10.6128 9.50967 10.6128 8.68626 11.5277C8.04583 12.2139 7.8171 13.815 7.8171 13.815C7.8171 13.815 7.58838 15.6905 7.58838 17.5203V19.2587C7.58838 21.1342 7.8171 22.964 7.8171 22.964C7.8171 22.964 8.04583 24.5651 8.68626 25.2513C9.50967 26.1662 10.6076 26.1204 11.1107 26.2577C12.8491 26.4406 18.6129 26.4864 18.6129 26.4864C18.6129 26.4864 23.2332 26.4864 26.2981 26.2577C26.7098 26.2119 27.6705 26.2119 28.4939 25.297C29.1343 24.6108 29.363 23.0098 29.363 23.0098C29.363 23.0098 29.5917 21.1342 29.5917 19.3044V17.5661C29.5917 15.6905 29.363 13.8607 29.363 13.8607" fill="white"/>
</g>
</g>
</g>
</svg>
