<svg width="37" height="37" viewBox="0 0 37 37" fill="none" xmlns="http://www.w3.org/2000/svg">
<g clip-path="url(#clip0_148_3268)">
<mask id="mask0_148_3268" style="mask-type:luminance" maskUnits="userSpaceOnUse" x="0" y="0" width="37" height="37">
<path d="M36.9999 0H0.129395V36.8705H36.9999V0Z" fill="white"/>
</mask>
<g mask="url(#mask0_148_3268)">
<path d="M18.5646 36.8705C28.72 36.8705 36.9999 28.6364 36.9999 18.4353C36.9999 8.23411 28.72 0 18.5646 0C8.40925 0 0.129395 8.23411 0.129395 18.4353C0.129395 28.6364 8.3635 36.8705 18.5646 36.8705Z" fill="#DC3D3D"/>
</g>
<path d="M27.6223 27.0353L20.5319 16.7427L28.4 7.59369H26.6159L25.0606 9.37775L19.7542 15.5533L14.6765 8.18837L14.2648 7.59369H8.04346L9.55304 9.78945L16.3233 19.5789L8.04346 29.2311H9.82751L17.101 20.7683L22.4989 28.6364L22.9106 29.2311H29.1319L27.6223 27.0353ZM23.6425 27.8587L18.0159 19.6704L17.2382 18.5268L10.6967 9.05753H13.4871L18.7478 16.7427L19.5712 17.8863L26.433 27.9045H23.6425V27.8587Z" fill="white"/>
</g>
<defs>
<clipPath id="clip0_148_3268">
<rect width="36.8705" height="36.8705" fill="white" transform="translate(0.129395)"/>
</clipPath>
</defs>
</svg>
