<svg width="27" height="26" viewBox="0 0 27 26" fill="none" xmlns="http://www.w3.org/2000/svg">
<g id="Group 33">
<path id="Vector" d="M6.15535 20.6038C8.09363 20.9507 15.5111 21.9161 20.4548 17.6285C24.1164 14.4496 25.6852 9.07217 25.1233 1.63584C17.687 1.07396 12.3096 2.64268 9.13064 6.30428C4.84306 11.2442 5.8122 18.6655 6.15535 20.6038ZM10.1978 22.493C7.49027 22.493 5.50675 22.0367 5.32574 21.999C5.04669 21.9349 4.82421 21.7087 4.75633 21.4296C4.66205 21.0299 2.50884 11.6025 7.96542 5.31252C11.578 1.15315 17.6115 -0.577719 25.9001 0.168931C26.2697 0.20287 26.56 0.493234 26.594 0.862788C27.3406 9.15136 25.6097 15.1849 21.4504 18.7937C17.9735 21.8029 13.5389 22.4968 10.2016 22.4968L10.1978 22.493Z" fill="#219CBB"/>
<path id="Vector_2" d="M1.54381 26C1.34772 26 1.1554 25.9283 1.00456 25.7775C0.702886 25.4796 0.702886 24.9932 1.00079 24.6952L19.0976 6.53053C19.3955 6.22886 19.882 6.22886 20.1799 6.53053C20.4816 6.82844 20.4816 7.31489 20.1837 7.6128L2.08683 25.7775C1.93599 25.9283 1.7399 26 1.54758 26H1.54381Z" fill="#219CBB"/>
<path id="Vector_3" d="M17.1253 17.7567H17.0913L10.0283 17.4437C9.63239 17.4286 9.32317 17.1156 9.29677 16.7197L8.94985 10.4373C8.92722 10.0149 9.25152 9.6529 9.67387 9.63405C10.0887 9.61142 10.4582 9.93573 10.4771 10.3581L10.7825 15.9504L17.1479 16.2295C17.5703 16.2483 17.8946 16.6066 17.8795 17.0251C17.8644 17.4399 17.525 17.7567 17.1215 17.7567H17.1253Z" fill="#219CBB"/>
<path id="Vector_4" d="M21.8579 12.6018H14.8967C14.4819 12.6018 14.1425 12.2699 14.1312 11.8551L13.9879 5.43696C13.9804 5.01462 14.3122 4.66392 14.7346 4.65638C15.1569 4.64506 15.5076 4.98068 15.5152 5.40303L15.6396 11.0708H21.8504C22.2727 11.0708 22.6159 11.4139 22.6159 11.8363C22.6159 12.2586 22.2727 12.6056 21.8504 12.6056L21.8579 12.6018Z" fill="#219CBB"/>
</g>
</svg>
