<svg width="26" height="26" viewBox="0 0 26 26" fill="none" xmlns="http://www.w3.org/2000/svg">
<g id="Layer_1" clip-path="url(#clip0_137_1378)">
<path id="Vector" d="M10.5706 10.614C10.4469 10.614 10.3296 10.5816 10.2287 10.5169L5.10619 7.39437C4.81961 7.21964 4.7154 6.86694 4.86195 6.57572C5.65002 4.84459 6.60418 3.36908 7.61044 2.31422C8.00774 1.90328 8.47016 1.49881 9.17031 1.33055C10.6618 0.926083 12.1891 0.718994 13.6936 0.718994C13.8402 0.718994 13.99 0.718994 14.1365 0.725466C15.9048 0.777238 17.4321 0.822539 18.7575 1.93564C19.4153 2.48896 19.8289 3.15552 20.0796 3.70237L21.7502 2.69281C21.8512 2.63133 21.9684 2.59897 22.0856 2.59897C22.2452 2.59897 22.4015 2.65722 22.5188 2.764C22.7272 2.93873 22.7956 3.24936 22.6718 3.51146L19.8647 9.58822C19.754 9.81796 19.5228 9.96357 19.2688 9.96357L12.5799 9.61087C12.2933 9.59145 12.0556 9.39731 11.9872 9.12874C11.9123 8.87311 12.023 8.57866 12.264 8.42658L14.13 7.23582C13.9378 6.82811 13.7262 6.43011 13.5047 6.03859L13.3093 6.38805C12.5734 7.705 11.7853 9.11256 11.134 10.2774C11.0396 10.436 10.8995 10.546 10.7302 10.5881C10.6618 10.6042 10.6162 10.6075 10.5641 10.6075L10.5706 10.614ZM10.3329 9.07373C10.3329 9.07373 12.2379 5.66324 12.7232 4.79605C12.0491 3.81562 11.4303 3.16199 10.9256 2.8999C10.6716 2.76723 10.2482 2.54396 9.78579 2.54396C9.67833 2.54396 9.57086 2.55691 9.46666 2.57956L9.42758 2.58926C9.05308 2.69281 8.79581 2.93549 8.54506 3.19759C7.7407 4.03565 6.95914 5.207 6.27527 6.60161L10.3329 9.07373ZM18.8715 8.65308L20.6137 4.88018L20.0796 5.20376C19.9787 5.26524 19.8614 5.2976 19.7442 5.2976C19.6628 5.2976 19.5846 5.28465 19.513 5.25553C19.3274 5.18758 19.1808 5.03227 19.1222 4.83812C18.9626 4.28804 18.624 3.51146 17.9173 2.91608C16.9859 2.13302 15.9113 2.06507 14.0974 2.01006C13.9541 2.00683 13.8108 2.00359 13.6676 2.00359C13.1302 2.00359 12.5831 2.03271 12.0393 2.09419C12.6548 2.56985 13.3126 3.33673 13.9997 4.38188L14.016 4.39482L14.0453 4.44983L14.0518 4.4563C14.625 5.33966 15.1297 6.26833 15.5466 7.22288C15.6736 7.50762 15.5694 7.85385 15.3023 8.02211L14.6575 8.42982L18.8682 8.65308H18.8715Z" fill="#219CBB"/>
<path id="Vector_2" d="M10.2253 23.8385C9.06275 23.8385 8.00113 23.7253 7.07628 23.5052C6.55524 23.3758 5.95929 23.1946 5.44477 22.6542C4.2366 21.4667 3.22057 20.1303 2.43249 18.6839C1.58905 17.1243 0.869365 15.7944 1.17873 14.1021C1.33179 13.2543 1.70303 12.5683 2.05799 12.0797L0.34181 11.1478C0.0910588 11.0119 -0.0424582 10.7337 0.0194155 10.4522C0.0780327 10.1739 0.309245 9.96679 0.595818 9.94091L7.314 9.31641H7.35959C7.60383 9.31641 7.82202 9.44907 7.936 9.66587L10.9613 15.5808C11.0883 15.83 11.0395 16.1309 10.8408 16.3283C10.7203 16.448 10.5575 16.516 10.3849 16.516C10.2807 16.516 10.1797 16.4901 10.0886 16.4448L8.11836 15.432C7.8611 15.8041 7.6136 16.1827 7.3889 16.5678C9.00739 16.5419 12.2476 16.4869 12.2476 16.4869H12.2997C12.456 16.4869 12.6123 16.5548 12.7361 16.6745C12.8664 16.8104 12.9315 16.9787 12.9217 17.1502L12.7621 23.1202C12.7459 23.4502 12.5016 23.7091 12.176 23.7414C11.5149 23.8062 10.8571 23.8417 10.2253 23.8417V23.8385ZM6.47057 21.8582C6.73434 22.0847 7.05023 22.1786 7.37913 22.2595C8.19977 22.4536 9.15393 22.5539 10.2156 22.5539C10.6226 22.5539 11.046 22.5377 11.4758 22.5086L11.6061 17.7812L6.67898 17.8653C6.16771 18.9201 5.90068 19.8003 5.92347 20.3601C5.93976 20.7225 5.96255 21.3081 6.34682 21.7385L6.47057 21.8065V21.8582ZM3.3606 11.3323C3.53319 11.4229 3.65694 11.5976 3.68951 11.795C3.72207 11.9956 3.6602 12.1962 3.52017 12.3418C3.11962 12.7593 2.6116 13.442 2.44877 14.3351C2.23384 15.5291 2.73535 16.5354 3.56901 18.0756C3.89141 18.6678 4.2594 19.247 4.66972 19.8035C4.77718 19.0269 5.12237 18.0659 5.70203 16.9366L5.79321 16.7587C6.26215 15.8688 6.79622 15.0178 7.3889 14.2186C7.50939 14.0568 7.70479 13.9565 7.90995 13.9565C8.0109 13.9565 8.11511 13.9824 8.20629 14.0277L8.8869 14.3771L6.97207 10.6398L2.81025 11.0314L3.3606 11.3291V11.3323Z" fill="#219CBB"/>
<path id="Vector_3" d="M17.7677 26C17.5593 26 17.3607 25.8997 17.2402 25.7282L13.3421 20.2727C13.1891 20.0527 13.1826 19.7712 13.3291 19.5479L16.9666 13.9921C17.0871 13.8076 17.2923 13.7009 17.5105 13.7009C17.5658 13.7009 17.6212 13.7073 17.6733 13.7203C17.8263 13.7591 17.9533 13.8497 18.0413 13.9727L17.1034 12.4163C17.0122 12.2642 16.9894 12.0895 17.0318 11.9212C17.0773 11.7529 17.1881 11.6106 17.3411 11.5232L22.6362 8.66926C22.7274 8.61748 22.8381 8.5916 22.9456 8.5916C23.154 8.5916 23.3494 8.69191 23.4699 8.86017C24.5934 10.4198 25.4042 11.9762 25.8146 13.3643C25.9741 13.9144 26.0946 14.513 25.8895 15.199C25.4629 16.8266 24.8051 18.3701 23.9356 19.7776C23.0042 21.2758 22.2031 22.5636 20.5716 23.1461C20.0473 23.3337 19.4904 23.4276 18.9108 23.4276C18.7317 23.4276 18.5525 23.4179 18.3702 23.4017L18.4158 25.3431C18.4223 25.6247 18.2464 25.877 17.9729 25.9676C17.8915 25.9903 17.8296 26 17.7677 26ZM17.0708 23.2723L17.0578 22.651C17.0513 22.4536 17.1425 22.2595 17.302 22.1333C17.4225 22.0427 17.5626 21.9941 17.7059 21.9941C17.758 21.9941 17.8101 22.0006 17.8622 22.0135C18.2106 22.0977 18.5656 22.143 18.9108 22.143C19.3406 22.143 19.7542 22.075 20.1352 21.9391C21.2848 21.5314 21.91 20.5963 22.8349 19.1046C23.1931 18.5254 23.5122 17.9203 23.7923 17.2926C23.0693 17.587 22.0631 17.7682 20.793 17.8362C20.7735 17.8362 20.7474 17.8394 20.7149 17.8394C20.4088 17.8556 20.0799 17.8653 19.7542 17.8653C19.0378 17.8653 18.3051 17.8265 17.5723 17.7456C17.2597 17.7132 17.009 17.4479 16.9992 17.134L16.9634 16.3736L14.661 19.8909L17.0773 23.2755L17.0708 23.2723ZM18.2562 16.516C18.7023 16.5516 19.1583 16.571 19.6109 16.5742L18.0836 14.0471C18.1259 14.128 18.1487 14.2186 18.152 14.3124L18.2529 16.5127L18.2562 16.516ZM18.5558 12.3321C19.2364 13.4549 20.0115 14.7395 20.7246 15.9206L21.0894 16.5257C22.2845 16.4319 23.1638 16.228 23.6425 15.9271C23.9323 15.7459 24.4729 15.4093 24.6487 14.8301L24.665 14.7784C24.7562 14.416 24.6715 14.0762 24.5738 13.73C24.2449 12.6169 23.6164 11.3614 22.7469 10.0768L18.5623 12.3321H18.5558Z" fill="#219CBB"/>
</g>
<defs>
<clipPath id="clip0_137_1378">
<rect width="26" height="25.2778" fill="white" transform="translate(0 0.722229)"/>
</clipPath>
</defs>
</svg>
