<svg width="80" height="81" viewBox="0 0 80 81" fill="none" xmlns="http://www.w3.org/2000/svg">
<g id="Group 26">
<path id="Vector" fill-rule="evenodd" clip-rule="evenodd" d="M39.9948 80C39.3008 80 38.7456 79.4448 38.7456 78.7508V1.24917C38.7456 0.555185 39.3008 0 39.9948 0C40.6888 0 41.2439 0.555185 41.2439 1.24917V78.7508C41.2439 79.4341 40.6781 80 39.9948 80Z" fill="white"/>
<path id="Vector_2" fill-rule="evenodd" clip-rule="evenodd" d="M55.8279 15.7906C54.7069 15.7906 53.6499 16.2284 52.8491 17.0291C52.0484 17.8299 51.6106 18.8762 51.6106 20.0079C51.6106 21.1396 52.0484 22.1859 52.8491 22.9867C53.6499 23.7874 54.6962 24.2252 55.8279 24.2252C56.9596 24.2252 58.0059 23.7874 58.8067 22.9867C59.6074 22.1859 60.0452 21.1396 60.0452 20.0079C60.0452 18.8762 59.6074 17.8299 58.8067 17.0291C58.0059 16.2284 56.9596 15.7906 55.8279 15.7906ZM55.8279 26.7128C54.0342 26.7128 52.3473 26.0188 51.0768 24.7483C49.8063 23.4778 49.1123 21.7909 49.1123 19.9972C49.1123 18.2035 49.8063 16.5166 51.0768 15.2461C52.3473 13.9756 54.0342 13.2816 55.8279 13.2816C57.6216 13.2816 59.3085 13.9756 60.579 15.2461C61.8495 16.5166 62.5435 18.2035 62.5435 19.9972C62.5435 21.7909 61.8495 23.4778 60.579 24.7483C59.3085 26.0082 57.6216 26.7128 55.8279 26.7128Z" fill="white"/>
<path id="Vector_3" fill-rule="evenodd" clip-rule="evenodd" d="M24.1721 55.7854C23.0511 55.7854 21.9941 56.2231 21.1934 57.0239C20.3926 57.8246 19.9549 58.8709 19.9549 60.0026C19.9549 61.1344 20.3926 62.1807 21.1934 62.9814C21.9941 63.7822 23.0404 64.2199 24.1721 64.2199C25.3039 64.2199 26.3502 63.7822 27.1509 62.9814C27.9517 62.1807 28.3894 61.1344 28.3894 60.0026C28.3894 58.8709 27.9517 57.8246 27.1509 57.0239C26.3502 56.2231 25.2932 55.7854 24.1721 55.7854ZM24.1721 66.7076C22.3785 66.7076 20.6916 66.0136 19.421 64.7431C18.1505 63.4725 17.4565 61.7856 17.4565 59.992C17.4565 58.1983 18.1505 56.5114 19.421 55.2409C20.6916 53.9703 22.3785 53.2764 24.1721 53.2764C25.9658 53.2764 27.6527 53.9703 28.9232 55.2409C30.1938 56.5114 30.8877 58.1983 30.8877 59.992C30.8877 61.7856 30.1938 63.4725 28.9232 64.7431C27.6527 66.0136 25.9658 66.7076 24.1721 66.7076Z" fill="white"/>
<path id="Vector_4" fill-rule="evenodd" clip-rule="evenodd" d="M39.9947 2.49833C19.3247 2.49833 2.49833 19.314 2.49833 39.9947C2.49833 60.6753 19.314 77.491 39.9947 77.491C60.6753 77.491 77.491 60.6753 77.491 39.9947C77.491 19.314 60.6753 2.49833 39.9947 2.49833ZM39.9947 80C34.5923 80 29.3607 78.943 24.4281 76.8504C19.6664 74.8325 15.385 71.9498 11.7123 68.2771C8.0395 64.6043 5.15681 60.323 3.13893 55.5612C1.05699 50.6393 0 45.397 0 40.0053C0 34.6136 1.05699 29.3714 3.14961 24.4388C5.16749 19.677 8.05018 15.3957 11.7229 11.7229C15.3957 8.05018 19.677 5.16749 24.4388 3.14961C29.3607 1.05699 34.603 0 39.9947 0C45.3864 0 50.6286 1.05699 55.5612 3.14961C60.323 5.16749 64.6043 8.05018 68.2771 11.7229C71.9498 15.3957 74.8325 19.677 76.8504 24.4388C78.9323 29.3714 80 34.6136 80 40.0053C80 45.397 78.943 50.6393 76.8504 55.5719C74.8325 60.3336 71.9498 64.615 68.2771 68.2877C64.6043 71.9605 60.323 74.8432 55.5612 76.8611C50.6286 78.9537 45.3864 80.0107 39.9947 80.0107V80Z" fill="white"/>
<path id="Vector_5" fill-rule="evenodd" clip-rule="evenodd" d="M60.7394 18.8656C60.2056 18.8656 59.7145 18.5239 59.5436 17.9901C59.3301 17.3281 59.6931 16.6342 60.3551 16.4206C63.2911 15.4811 65.9496 14.36 68.2664 13.0682C68.8643 12.7265 69.633 12.9507 69.964 13.5486C70.295 14.1465 70.0815 14.9152 69.4836 15.2462C67.0279 16.6235 64.2093 17.8193 61.1131 18.8015C60.985 18.8442 60.8569 18.8549 60.7287 18.8549L60.7394 18.8656Z" fill="white"/>
<path id="Vector_6" fill-rule="evenodd" clip-rule="evenodd" d="M39.9945 21.8765C34.2398 21.8765 28.6986 21.2679 23.5098 20.0721C18.5558 18.9297 14.1784 17.3069 10.5056 15.2569C9.90775 14.9153 9.68355 14.1572 10.0252 13.5594C10.3669 12.9615 11.1249 12.7373 11.7228 13.0789C15.182 15.0114 19.3352 16.5488 24.065 17.6378C29.0723 18.7909 34.432 19.3781 39.9945 19.3781C43.4644 19.3781 46.8916 19.1432 50.1907 18.6841C50.874 18.5881 51.5039 19.0685 51.6 19.7518C51.6961 20.4351 51.2156 21.065 50.5323 21.1611C47.1158 21.6309 43.5712 21.8765 39.9838 21.8765H39.9945Z" fill="white"/>
<path id="Vector_7" fill-rule="evenodd" clip-rule="evenodd" d="M68.875 67.0812C68.6721 67.0812 68.4586 67.0278 68.2664 66.9211C64.8072 64.9886 60.654 63.4512 55.9242 62.3622C50.9169 61.2091 45.5572 60.6219 39.9947 60.6219C36.5248 60.6219 33.0976 60.8568 29.7985 61.3158C29.1152 61.4119 28.4853 60.9315 28.3892 60.2482C28.2931 59.5649 28.7735 58.935 29.4569 58.8389C32.8734 58.3584 36.418 58.1235 40.0054 58.1235C45.7601 58.1235 51.3012 58.7321 56.4901 59.9279C61.444 61.0703 65.8215 62.6931 69.4942 64.743C70.0921 65.0847 70.3163 65.8427 69.9747 66.4406C69.7505 66.8463 69.3234 67.0812 68.8857 67.0812H68.875Z" fill="white"/>
<path id="Vector_8" fill-rule="evenodd" clip-rule="evenodd" d="M11.1142 67.0813C10.6765 67.0813 10.2494 66.8571 10.0252 66.4407C9.68355 65.8428 9.90775 65.0741 10.5056 64.7431C12.9613 63.3658 15.7799 62.17 18.8761 61.1878C19.5381 60.9743 20.2321 61.3373 20.4456 61.9992C20.6591 62.6612 20.2961 63.3551 19.6342 63.5687C16.6981 64.5082 14.0396 65.6293 11.7228 66.9211C11.5306 67.0386 11.3171 67.0813 11.1142 67.0813Z" fill="white"/>
<path id="Vector_9" fill-rule="evenodd" clip-rule="evenodd" d="M78.7402 41.2438H1.24917C0.555185 41.2438 0 40.6886 0 39.9946C0 39.3007 0.555185 38.7455 1.24917 38.7455H78.7508C79.4448 38.7455 80 39.3007 80 39.9946C80 40.6886 79.4341 41.2438 78.7402 41.2438Z" fill="white"/>
<path id="Vector_10" fill-rule="evenodd" clip-rule="evenodd" d="M39.9944 80C38.3822 80 36.77 79.6477 35.2326 78.9537C33.7592 78.2917 32.3179 77.3095 30.9619 76.039C28.3462 73.594 26.0827 70.1562 24.2143 65.8321C23.9367 65.2022 24.2357 64.4655 24.8656 64.1879C25.4955 63.9103 26.2322 64.2093 26.5098 64.8392C29.9797 72.8894 34.9016 77.5017 39.9944 77.5017C42.9091 77.5017 45.8131 75.9749 48.4182 73.0922C51.0554 70.1562 53.3402 65.8962 55.0164 60.7714C57.0236 54.6003 58.0913 47.4256 58.0913 40.016C58.0913 34.9233 57.6001 29.9907 56.6286 25.3463C56.4898 24.6737 56.9168 24.0118 57.6001 23.8623C58.2834 23.7128 58.9347 24.1506 59.0842 24.8339C60.0878 29.649 60.6003 34.7525 60.6003 40.016C60.6003 47.6925 59.4899 55.1341 57.408 61.5508C55.625 67.0172 53.1693 71.5868 50.2973 74.7791C47.2118 78.2063 43.6565 80.0214 40.0157 80.0214L39.9944 80Z" fill="white"/>
<path id="Vector_11" fill-rule="evenodd" clip-rule="evenodd" d="M22.1434 56.1698C21.5668 56.1698 21.0437 55.764 20.9262 55.1768C19.9226 50.3617 19.4102 45.2582 19.4102 39.9947C19.4102 32.3182 20.5205 24.8766 22.6025 18.4599C24.3855 12.9935 26.8411 8.42386 29.7131 5.23155C32.8093 1.81503 36.354 0 39.9947 0C41.6175 0 43.219 0.352329 44.7672 1.04631C46.2405 1.70826 47.6819 2.69051 49.0378 3.96103C51.6536 6.40598 53.917 9.84385 55.7854 14.1679C56.063 14.7978 55.7641 15.5345 55.1342 15.8121C54.5042 16.0897 53.7676 15.7907 53.49 15.1608C50.0201 7.11064 45.0981 2.48765 40.0054 2.48765C37.0907 2.48765 34.1866 4.01441 31.5815 6.8971C28.9444 9.83318 26.6596 14.0932 24.9834 19.2179C22.9762 25.389 21.9085 32.5637 21.9085 39.9733C21.9085 45.0661 22.3996 49.9987 23.3712 54.643C23.51 55.3156 23.0829 55.9776 22.3996 56.127C22.3035 56.1484 22.2288 56.1591 22.1434 56.1591V56.1698Z" fill="white"/>
</g>
</svg>
