<svg width="80" height="81" viewBox="0 0 80 81" fill="none" xmlns="http://www.w3.org/2000/svg">
<g id="Group 27">
<path id="Vector" d="M30.0804 73.2355C30.0804 73.8569 29.5697 74.3676 28.9483 74.3676H19.9855C19.3641 74.3676 18.8534 73.8569 18.8534 73.2355C18.8534 72.6142 19.3641 72.1035 19.9855 72.1035H28.9483C29.5697 72.1035 30.0804 72.6142 30.0804 73.2355ZM55.6581 74.4357C55.6581 75.057 55.1474 75.5677 54.526 75.5677H47.4698C46.8485 75.5677 46.3378 75.057 46.3378 74.4357C46.3378 73.8143 46.8485 73.3036 47.4698 73.3036H54.526C55.1474 73.3036 55.6581 73.8143 55.6581 74.4357ZM58.518 77.4488C58.518 77.6021 58.3903 77.7382 58.2286 77.7382H36.5067C36.5578 77.5255 36.5919 77.2956 36.5919 77.0658V52.9777H41.5457V61.0723C41.5457 61.5319 41.818 61.9405 42.2436 62.1193C42.6692 62.298 43.1544 62.1959 43.4778 61.8724L45.9462 59.421L48.4146 61.8724C48.6274 62.0852 48.9168 62.2044 49.2147 62.2044C49.3594 62.2044 49.5126 62.1703 49.6488 62.1193C50.0744 61.9405 50.3468 61.5319 50.3468 61.0723V52.9777H58.2201C58.3733 52.9777 58.5095 53.1053 58.5095 53.2671V77.4488H58.518ZM2.93654 77.7382C2.57054 77.7382 2.26412 77.4403 2.26412 77.0658V46.347C2.26412 45.981 2.56203 45.6746 2.93654 45.6746H12.7761V56.2632C12.7761 56.7228 13.0485 57.1314 13.474 57.3101C13.8996 57.4889 14.3848 57.3867 14.7082 57.0633L18.0619 53.7352L21.4155 57.0633C21.6283 57.2761 21.9177 57.3952 22.2156 57.3952C22.3603 57.3952 22.5135 57.3612 22.6497 57.3101C23.0753 57.1314 23.3476 56.7228 23.3476 56.2632V45.6746H33.6638C34.0298 45.6746 34.3362 45.9725 34.3362 46.347V77.0658C34.3362 77.4318 34.0383 77.7382 33.6638 77.7382H2.93654ZM15.0487 45.6831H21.0835V53.5565L18.862 51.3519C18.4193 50.9093 17.7044 50.9093 17.2618 51.3519L15.0402 53.5565V45.6831H15.0487ZM43.8183 52.9862H48.0912V58.3656L46.7548 57.0463C46.3122 56.6037 45.5972 56.6037 45.1546 57.0463L43.8183 58.3656V52.9862ZM58.2286 50.7136H36.5919V46.347C36.5919 44.7298 35.2725 43.4105 33.6553 43.4105H2.93654C1.31932 43.4105 0 44.7298 0 46.3556V77.0743C0 78.6916 1.31932 80.0109 2.93654 80.0109H33.6553C33.7915 80.0109 33.9107 79.9853 34.0468 79.9683V80.0109H58.2286C59.6331 80.0109 60.7821 78.8703 60.7821 77.4574V53.2756C60.7821 51.8626 59.6416 50.7221 58.2286 50.7221V50.7136ZM76.316 20.5991L27.6716 33.6305C24.718 34.4221 22.4709 32.1836 21.3559 29.8343L13.3464 13.0067L18.8024 13.3557L26.6757 19.5607C26.9566 19.782 27.3226 19.8586 27.6716 19.765L63.7953 10.0872C69.9152 8.4444 76.0096 12.0278 77.6779 18.2414C77.9503 19.2628 77.3459 20.3182 76.3245 20.5991H76.316ZM50.4404 41.3507L45.0014 44.7894L48.4487 30.4131L56.6454 28.2171L50.4404 41.3507ZM33.6383 2.37554L40.0646 2.6309L52.0066 10.9043L43.8098 13.1003L33.6383 2.37554ZM79.8654 17.6626C77.8736 10.2233 70.5536 5.93344 63.208 7.90816L54.8665 10.1382L41.086 0.579574C40.9073 0.46041 40.703 0.383804 40.4817 0.383804L30.9401 0.000777382C30.4719 -0.016246 30.0549 0.247617 29.8591 0.664691C29.6718 1.08176 29.7569 1.57544 30.0719 1.9074L41.3158 13.7642L27.646 17.4242L19.9429 11.3554C19.7642 11.2107 19.5429 11.1256 19.3131 11.1171L11.5759 10.6149C11.1759 10.5893 10.7928 10.7766 10.563 11.1086C10.3332 11.4405 10.3077 11.8661 10.4779 12.2321L19.3131 30.7961C20.8963 34.1242 23.603 36.0479 26.5055 36.0479C27.0843 36.0479 27.6801 35.9713 28.2674 35.8095L45.9632 31.0685L42.15 46.9599C42.0479 47.411 42.2181 47.8792 42.5926 48.143C42.7884 48.2792 43.0182 48.3558 43.248 48.3558C43.4608 48.3558 43.6651 48.2962 43.8523 48.1771L51.93 43.0785C52.1087 42.9594 52.2619 42.7977 52.347 42.6019L59.5054 27.434L76.8948 22.7696C77.9758 22.4802 78.8695 21.7822 79.4313 20.8119C79.9931 19.8416 80.1463 18.718 79.8569 17.637L79.8654 17.6626Z" fill="white"/>
</g>
</svg>
