<svg width="80" height="80" viewBox="0 0 80 80" fill="none" xmlns="http://www.w3.org/2000/svg">
<g id="Group 28">
<path id="Vector" d="M77.1994 11.4662H66.015V8.62923C66.015 5.47397 68.4974 2.89157 71.6072 2.7188C74.717 2.89157 77.1994 5.47397 77.1994 8.62923V11.4662ZM63.3326 67.5153V71.3708C63.3326 74.5442 60.8229 77.1357 57.6949 77.2812C54.5579 77.1357 52.0573 74.5442 52.0573 71.3708V67.3789C52.0573 66.6333 51.4571 66.0332 50.7115 66.0332H13.012V8.62014C13.012 5.35576 15.6672 2.69152 18.9407 2.69152H65.7058C64.2328 4.23733 63.3326 6.31962 63.3326 8.62014V67.388C63.3326 67.4335 63.3326 67.4699 63.3326 67.5153ZM8.62014 77.2994C5.35576 77.2994 2.69152 74.6442 2.69152 71.3708V68.7338H49.3567V71.3799C49.3567 73.6804 50.266 75.7627 51.7299 77.3085H8.62014V77.2994ZM72.371 0.0818368C72.2346 0.0363719 72.0891 0 71.9345 0C71.8254 0 71.7163 0.00909298 71.5981 0.018186C71.489 0.018186 71.3799 0 71.2617 0H18.9407C14.185 0 10.3205 3.86451 10.3205 8.62014V66.0423H1.34576C0.600136 66.0423 0 66.6424 0 67.388V71.3799C0 76.1355 3.86451 80 8.62014 80H57.404C57.504 80 57.5949 79.9818 57.6858 79.9818C57.7768 79.9818 57.8768 80 57.9677 80C58.0859 80 58.2041 79.9818 58.3133 79.9545C62.6415 79.4999 66.0241 75.8263 66.0241 71.389L66.0605 14.1669H78.5451C79.2907 14.1669 79.8909 13.5667 79.8909 12.8211V8.63833C79.8909 4.25551 76.6083 0.636508 72.371 0.0909298V0.0818368Z" fill="white"/>
<path id="Vector_2" d="M27.1701 17.4859L21.5961 23.0599L19.141 20.6593C18.6136 20.141 17.7588 20.1501 17.2405 20.6775C16.7222 21.2049 16.7313 22.0597 17.2587 22.578L20.6686 25.9151C20.9323 26.1697 21.2687 26.297 21.6052 26.297C21.9416 26.297 22.2962 26.1606 22.5599 25.906L29.0705 19.3863C29.5979 18.8589 29.5979 18.0042 29.0705 17.4859C28.5431 16.9676 27.6975 16.9585 27.1701 17.4859Z" fill="white"/>
<path id="Vector_3" d="M27.1701 34.0713L21.5961 39.6453L19.141 37.2448C18.6136 36.7265 17.7588 36.7356 17.2405 37.263C16.7222 37.7904 16.7313 38.6451 17.2587 39.1634L20.6686 42.5005C20.9323 42.7551 21.2687 42.8824 21.6052 42.8824C21.9416 42.8824 22.2962 42.746 22.5599 42.4914L29.0705 35.9718C29.5979 35.4444 29.5979 34.5896 29.0705 34.0713C28.5431 33.5439 27.6975 33.5439 27.1701 34.0713Z" fill="white"/>
<path id="Vector_4" d="M27.1701 50.6568L21.5961 56.2308L19.141 53.8302C18.6136 53.3119 17.7588 53.321 17.2405 53.8484C16.7222 54.3758 16.7313 55.2305 17.2587 55.7488L20.6686 59.086C20.9323 59.3406 21.2687 59.4679 21.6052 59.4679C21.9416 59.4679 22.2962 59.3315 22.5599 59.0769L29.0705 52.5572C29.5979 52.0298 29.5979 51.1751 29.0705 50.6568C28.5431 50.1294 27.6975 50.1294 27.1701 50.6568Z" fill="white"/>
<path id="Vector_5" d="M51.1572 17.0947H34.5626C33.8169 17.0947 33.2168 17.6949 33.2168 18.4405C33.2168 19.1861 33.8169 19.7862 34.5626 19.7862H51.1572C51.9029 19.7862 52.503 19.1861 52.503 18.4405C52.503 17.6949 51.9029 17.0947 51.1572 17.0947Z" fill="white"/>
<path id="Vector_6" d="M34.5626 26.306H44.4921C45.2377 26.306 45.8378 25.7059 45.8378 24.9603C45.8378 24.2146 45.2377 23.6145 44.4921 23.6145H34.5626C33.8169 23.6145 33.2168 24.2146 33.2168 24.9603C33.2168 25.7059 33.8169 26.306 34.5626 26.306Z" fill="white"/>
<path id="Vector_7" d="M51.1572 33.4985H34.5626C33.8169 33.4985 33.2168 34.0987 33.2168 34.8443C33.2168 35.5899 33.8169 36.1901 34.5626 36.1901H51.1572C51.9029 36.1901 52.503 35.5899 52.503 34.8443C52.503 34.0987 51.9029 33.4985 51.1572 33.4985Z" fill="white"/>
<path id="Vector_8" d="M34.5626 42.7098H44.4921C45.2377 42.7098 45.8378 42.1097 45.8378 41.3641C45.8378 40.6184 45.2377 40.0183 44.4921 40.0183H34.5626C33.8169 40.0183 33.2168 40.6184 33.2168 41.3641C33.2168 42.1097 33.8169 42.7098 34.5626 42.7098Z" fill="white"/>
<path id="Vector_9" d="M51.1572 49.9932H34.5626C33.8169 49.9932 33.2168 50.5933 33.2168 51.3389C33.2168 52.0845 33.8169 52.6847 34.5626 52.6847H51.1572C51.9029 52.6847 52.503 52.0845 52.503 51.3389C52.503 50.5933 51.9029 49.9932 51.1572 49.9932Z" fill="white"/>
<path id="Vector_10" d="M44.4921 56.5127H34.5626C33.8169 56.5127 33.2168 57.1128 33.2168 57.8585C33.2168 58.6041 33.8169 59.2042 34.5626 59.2042H44.4921C45.2377 59.2042 45.8378 58.6041 45.8378 57.8585C45.8378 57.1128 45.2377 56.5127 44.4921 56.5127Z" fill="white"/>
</g>
</svg>
