<svg width="0" height="0" class="hidden">
  <symbol fill="none" xmlns="http://www.w3.org/2000/svg" viewBox="0 0 37 37" id="x">
    <g clip-path="url(#clip0_148_3268)">
      <mask id="mask0_148_3268" maskUnits="userSpaceOnUse" x="0" y="0" width="37" height="37">
        <path d="M36.9999 0H0.129395V36.8705H36.9999V0Z" fill="white"></path>
      </mask>
      <g mask="url(#mask0_148_3268)">
        <path class="bg" d="M18.5646 36.8705C28.72 36.8705 36.9999 28.6364 36.9999 18.4353C36.9999 8.23411 28.72 0 18.5646 0C8.40925 0 0.129395 8.23411 0.129395 18.4353C0.129395 28.6364 8.3635 36.8705 18.5646 36.8705Z" fill="#DC3D3D"></path>
      </g>
      <path d="M27.6223 27.0353L20.5319 16.7427L28.4 7.59369H26.6159L25.0606 9.37775L19.7542 15.5533L14.6765 8.18837L14.2648 7.59369H8.04346L9.55304 9.78945L16.3233 19.5789L8.04346 29.2311H9.82751L17.101 20.7683L22.4989 28.6364L22.9106 29.2311H29.1319L27.6223 27.0353ZM23.6425 27.8587L18.0159 19.6704L17.2382 18.5268L10.6967 9.05753H13.4871L18.7478 16.7427L19.5712 17.8863L26.433 27.9045H23.6425V27.8587Z" fill="white"></path>
    </g>
    <defs>
      <clipPath id="clip0_148_3268">
        <rect width="36.8705" height="36.8705" fill="white" transform="translate(0.129395)"></rect>
      </clipPath>
    </defs>
  </symbol>
  <symbol fill="none" xmlns="http://www.w3.org/2000/svg" viewBox="0 0 37 37" id="yt">
    <g id="Clip path group">
      <mask id="mask0_2033_2515" maskUnits="userSpaceOnUse" x="0" y="0" width="37" height="37">
        <g id="clippath">
          <path id="Vector" d="M36.9569 0H0.0864258V36.8705H36.9569V0Z" fill="white"></path>
        </g>
      </mask>
      <g mask="url(#mask0_2033_2515)">
        <g id="Group">
          <path class="bg" d="M18.5217 36.8705C28.6771 36.8705 36.9569 28.6364 36.9569 18.4353C36.9569 8.23411 28.6771 0 18.5217 0C8.36628 0 0.0864258 8.23411 0.0864258 18.4353C0.0864258 28.6364 8.32053 36.8705 18.5217 36.8705Z" fill="#DC3D3D"></path>
          <path id="Vector_3" fill-rule="evenodd" clip-rule="evenodd" d="M22.181 18.2065L16.2342 21.4087V14.9586L18.9331 16.4225L22.181 18.2065ZM29.3173 13.815C29.3173 13.815 29.0885 12.2597 28.4481 11.5277C27.6247 10.6128 26.6641 10.6128 26.2524 10.5671C23.1874 10.3384 18.5672 10.3384 18.5672 10.3384C18.5672 10.3384 13.9469 10.3384 10.882 10.5671C10.4703 10.6128 9.50967 10.6128 8.68626 11.5277C8.04583 12.2139 7.8171 13.815 7.8171 13.815C7.8171 13.815 7.58838 15.6905 7.58838 17.5203V19.2587C7.58838 21.1342 7.8171 22.964 7.8171 22.964C7.8171 22.964 8.04583 24.5651 8.68626 25.2513C9.50967 26.1662 10.6076 26.1204 11.1107 26.2577C12.8491 26.4406 18.6129 26.4864 18.6129 26.4864C18.6129 26.4864 23.2332 26.4864 26.2981 26.2577C26.7098 26.2119 27.6705 26.2119 28.4939 25.297C29.1343 24.6108 29.363 23.0098 29.363 23.0098C29.363 23.0098 29.5917 21.1342 29.5917 19.3044V17.5661C29.5917 15.6905 29.363 13.8607 29.363 13.8607" fill="white"></path>
        </g>
      </g>
    </g>
  </symbol>
  <symbol fill="none" xmlns="http://www.w3.org/2000/svg" viewBox="0 0 37 37" id="fb">
  <g clip-path="url(#clip0_148_3270)"><circle cx="17.7409" cy="17.6978" r="14.7482" fill="white">
  </circle><mask id="mask0_148_3270" maskUnits="userSpaceOnUse" x="0" y="0" width="37" height="37"><path d="M36.9135 0H0.0429688V36.8705H36.9135V0Z" fill="white"></path></mask><g mask="url(#mask0_148_3270)"><path class="bg" d="M23.344 16.7676L23.207 18.5038H19.9631V29.4233H15.577V18.5038H13.384V14.1177H15.5313V12.1531C15.5313 10.3713 16.3994 7.58427 20.1458 7.58427H23.5268V11.3307H21.0596C20.6484 11.3307 20.1002 11.5135 20.1002 12.3815V14.1177H23.5725L23.344 16.7676ZM18.5011 0C8.31256 0 0.0429688 8.26959 0.0429688 18.4124C0.0429688 28.5552 8.31256 36.8248 18.4554 36.8248C28.5982 36.8248 36.8678 28.5552 36.8678 18.4124C36.8678 8.26959 28.6439 0 18.5011 0Z" fill="#DC3D3D"></path></g></g><defs><clipPath id="clip0_148_3270"><rect width="36.8705" height="36.8705" fill="white" transform="translate(0.0429688)"></rect></clipPath></defs>
  </symbol>
  <symbol fill="none" xmlns="http://www.w3.org/2000/svg" viewBox="0 0 37 37" id="in">
    <g id="Clip path group">
      <mask id="mask0_2033_1012" maskUnits="userSpaceOnUse" x="0" y="0" width="37" height="37">
        <g id="clippath">
          <path id="Vector" d="M36.8705 0H0V36.8705H36.8705V0Z" fill="white"></path>
        </g>
      </mask>
      <g mask="url(#mask0_2033_1012)">
        <g id="Group">
          <path class="bg" d="M18.4581 0C8.26959 0 0 8.26959 0 18.4124C0 28.5552 8.26959 36.8248 18.4124 36.8248C28.5552 36.8248 36.8248 28.5552 36.8248 18.4124C36.8248 8.26959 28.6009 0 18.4581 0Z" fill="#DC3D3D"></path>
          <path id="Vector_3" d="M13.341 27.6415H8.86355V13.2953H13.341V27.6415ZM11.1023 11.3307C9.68594 11.3307 8.49805 10.1885 8.49805 8.72649C8.49805 7.26446 9.64026 6.12225 11.1023 6.12225C12.5643 6.12225 13.7065 7.26446 13.7065 8.72649C13.7065 10.1885 12.5643 11.3307 11.1023 11.3307ZM30.063 27.6415H25.5855V20.6512C25.5855 19.0064 25.5855 16.859 23.2554 16.859C20.9253 16.859 20.5598 18.6866 20.5598 20.5598V27.6872H16.0823V13.341H20.377V15.3056H20.4227C21.0167 14.1634 22.4787 12.9755 24.6717 12.9755C29.1949 12.9755 30.0173 15.9453 30.0173 19.8288V27.6872L30.063 27.6415Z" fill="white"></path>
        </g>
      </g>
    </g>
  </symbol>
  <symbol fill="none" xmlns="http://www.w3.org/2000/svg" viewBox="0 0 64 64" id="play">
		<g id="Layer_1" clip-path="url(#clip0_1_252)">
			<path id="Vector" d="M31.9967 7.68985C18.5927 7.68985 7.68985 18.5927 7.68985 31.9967C7.68985 45.4007 18.5927 56.3035 31.9967 56.3035C45.4007 56.3035 56.3035 45.4007 56.3035 31.9967C56.3035 18.5927 45.4007 7.68985 31.9967 7.68985ZM31.9967 64C14.3553 64 0 49.6381 0 31.9967C0 14.3553 14.3553 0 31.9967 0C49.6381 0 64 14.3553 64 31.9967C64 49.6381 49.6447 63.9933 31.9967 63.9933V64Z" fill="white" fill-opacity="1"></path>
			<path id="Vector_2" d="M22.1116 17.8344L46.6512 31.9967L22.1116 46.1657V17.8344Z" fill="white" fill-opacity="1"></path>
		</g>
		<defs>
			<clipPath id="clip0_1_252">
				<rect width="64" height="64" fill="white"></rect>
			</clipPath>
		</defs>
	</symbol>
</svg>