<svg xmlns="http://www.w3.org/2000/svg" width="190" height="62" viewBox="0 0 190 62" fill="none">
  <path d="M31.2094 61.5693C30.3398 61.5693 29.6177 61.218 29.1092 60.5677C28.4681 59.7529 28.4238 58.8037 28.4238 58.5346L31.2315 37.9267L34.0392 58.5047V58.557C34.0318 59.7754 33.2801 61.5693 31.2389 61.5693H31.2094Z" fill="white"/>
  <path d="M50.7156 53.4144C50.6125 53.4144 50.5093 53.4144 50.4061 53.3994C49.3818 53.2798 48.6891 52.6445 48.4975 52.4501L35.9699 36.088L52.4548 48.4063L52.4842 48.4437C53.3243 49.3108 54.0465 51.1271 52.5874 52.5996C52.0495 53.1378 51.4157 53.4144 50.7156 53.4144Z" fill="white"/>
  <path d="M31.2168 35.5946C28.6744 35.5946 26.6037 33.5017 26.6037 30.9155C26.6037 28.3292 28.6744 26.2363 31.2168 26.2363C33.7591 26.2363 35.8225 28.3367 35.8225 30.9155C35.8225 33.4942 33.7518 35.5946 31.2168 35.5946Z" fill="white"/>
  <path d="M3.98761 28.0751C3.72232 28.0751 2.78643 28.1274 1.97582 28.7702C1.3347 29.286 0.988346 30.026 0.988346 30.9005C0.980977 32.1413 1.59999 32.829 2.13057 33.1952C2.63905 33.5466 3.31701 33.7559 3.95813 33.7633H4.01708L24.3118 30.9155L3.98761 28.0676V28.0751Z" fill="white"/>
  <path d="M12.0274 8.42401C11.9242 8.40906 11.8211 8.40906 11.7179 8.40906C11.0178 8.40906 10.3914 8.68563 9.85348 9.22381C8.38701 10.6889 9.1092 12.5127 9.95665 13.3798L9.9935 13.4171L26.3826 25.9672L13.936 9.3733C13.7444 9.17896 13.0517 8.54361 12.0274 8.42401Z" fill="white"/>
  <path d="M9.05024 50.3722C8.96181 51.1944 9.2271 51.9568 9.83875 52.5847C10.3841 53.1453 11.0399 53.4368 11.7474 53.4368C12.6538 53.4368 13.4718 52.9435 13.9286 52.48L13.9655 52.4501L26.2499 35.8488L9.98613 48.4437C9.79453 48.638 9.17552 49.3406 9.05024 50.3796" fill="white"/>
  <path d="M61.1946 32.1563C61.3273 31.8797 61.4231 31.5732 61.4599 31.2518C61.5484 30.3623 61.5926 29.5252 61.5926 28.4413V28.0676C61.5778 27.0361 61.5189 25.9971 61.4231 24.9805C61.1946 22.7157 60.8114 20.7274 60.244 18.8886C59.2786 15.667 57.7901 12.7295 55.8741 10.2478C55.2256 9.35088 54.5255 8.51371 53.7739 7.75129C50.9515 4.85857 47.2521 2.64605 43.0812 1.36787C41.2683 0.792321 39.3008 0.403635 37.0753 0.171919C36.0731 0.0672725 35.0487 0.0149494 34.0318 0H33.6707C32.6022 0 31.7768 0.0373736 30.8999 0.134545C30.583 0.164444 30.2809 0.261615 30.0082 0.403635C29.9272 0.441009 29.8608 0.485857 29.7871 0.530705C29.7208 0.568079 29.6619 0.612927 29.5955 0.657776C29.5219 0.717573 29.4482 0.769897 29.3745 0.837169C29.2639 0.941815 29.1534 1.05394 29.0576 1.18101C29.0576 1.18101 29.0576 1.19596 29.0502 1.19596C28.9471 1.3305 28.866 1.47252 28.7923 1.62202C28.7702 1.66686 28.7481 1.71171 28.7333 1.76403C28.7039 1.83131 28.6744 1.90605 28.6523 1.9808C28.5049 2.37696 28.4238 2.78807 28.4238 3.14686V3.19918L31.2315 23.7771L33.7149 5.52382C33.7149 5.52382 33.7812 5.52382 33.8181 5.52382C33.8623 5.52382 33.9065 5.52382 33.9507 5.52382C34.7982 5.54625 35.6604 5.59857 36.5078 5.69574C38.1217 5.87513 39.8019 6.2115 41.4968 6.7123C42.1526 6.90665 42.7938 7.13836 43.4201 7.3925C46.0141 8.47634 48.3133 10.0161 50.1335 11.8998C52.3295 14.1497 54.0023 17.1171 54.975 20.4957C55.4688 22.2149 55.8004 23.9191 55.9772 25.5561C56.073 26.4231 56.1246 27.2902 56.1467 28.1498C56.1467 28.1947 56.1467 28.2395 56.1467 28.2769C56.1467 28.3143 56.1467 28.3516 56.1467 28.389L38.1512 30.908L58.4386 33.7559H58.4901C58.8439 33.7559 59.2492 33.6736 59.6397 33.5241C59.7134 33.5017 59.7797 33.4718 59.8534 33.4419C59.8977 33.4195 59.9419 33.4045 59.9861 33.3821C60.1335 33.3074 60.2808 33.2251 60.4061 33.1205C60.4061 33.1205 60.4209 33.113 60.4282 33.1055C60.5461 33.0084 60.6641 32.9037 60.7672 32.7841C60.8262 32.7169 60.8851 32.6421 60.9441 32.5599C60.9883 32.5001 61.0325 32.4403 61.0694 32.373C61.1136 32.2983 61.1578 32.231 61.1946 32.1488" fill="white"/>
  <path d="M105.904 45.9397H104.43V54.5057H105.904V45.9397Z" fill="white"/>
  <path d="M115.528 45.9397H114.054V54.5057H115.528V45.9397Z" fill="white"/>
  <path d="M173.405 46.9039H171.172V54.5057H169.986V46.9039H167.753V45.9397H173.405V46.9039Z" fill="white"/>
  <path d="M77.429 54.5057H76.2499V46.0667C76.9721 45.9471 77.9448 45.8574 78.8807 45.8574C80.7082 45.8574 82.1968 46.2312 82.1968 48.4811C82.1968 50.731 80.863 51.157 78.9765 51.157C78.5343 51.157 77.8269 51.1271 77.429 51.1047V54.5132V54.5057ZM77.429 50.133C77.9817 50.1928 78.4312 50.2002 78.8807 50.2002C80.2514 50.2002 81.0251 49.8564 81.0251 48.4736C81.0251 47.2776 80.4798 46.7992 78.9249 46.7992C78.4901 46.7992 77.9448 46.8291 77.429 46.8964V50.133Z" fill="white"/>
  <path d="M83.6928 54.5057V46.0667C84.4223 45.9471 85.3877 45.8574 86.3236 45.8574C88.1364 45.8574 89.6397 46.2087 89.6397 48.4437C89.6397 50.0657 88.8807 50.7384 87.7163 50.9776L89.7429 54.5132H88.3648L86.4857 51.0897H86.4267C85.9772 51.0897 85.2845 51.0598 84.8792 51.0374V54.5206H83.7001L83.6928 54.5057ZM84.8792 50.0582C85.4319 50.118 85.874 50.1255 86.3309 50.1255C87.6942 50.1255 88.4754 49.7817 88.4754 48.4362C88.4754 47.2552 87.9153 46.7918 86.3752 46.7918C85.933 46.7918 85.3951 46.8217 84.8866 46.8964V50.0582H84.8792Z" fill="white"/>
  <path d="M108.357 48.0251C108.357 49.1015 108.932 49.2584 110.185 49.6172C111.629 50.0209 112.514 50.5964 112.514 52.1362C112.514 53.9376 111.423 54.5954 109.47 54.5954C108.564 54.5954 107.893 54.5132 107.215 54.3711L107.333 53.4069C107.982 53.5041 108.8 53.5713 109.433 53.5713C110.524 53.5713 111.29 53.3247 111.29 52.1736C111.29 51.157 110.553 50.9253 109.566 50.6188C108.063 50.1629 107.178 49.7443 107.178 48.1821C107.178 46.418 108.225 45.85 110.104 45.85C110.9 45.85 111.725 45.9471 112.329 46.0667L112.219 47.0011C111.696 46.9263 111.077 46.8516 110.487 46.8516C109.5 46.8516 108.357 46.9487 108.357 48.0251Z" fill="white"/>
  <path d="M117.009 50.2227C117.009 47.1207 117.738 45.85 120.31 45.85C122.882 45.85 123.612 47.1207 123.612 50.2227C123.612 53.3247 122.882 54.5954 120.31 54.5954C117.738 54.5954 117.009 53.3247 117.009 50.2227ZM122.41 50.2227C122.41 48.2344 122.337 46.8441 120.31 46.8441C118.284 46.8441 118.21 48.2344 118.21 50.2227C118.21 52.2109 118.276 53.6087 120.31 53.6087C122.344 53.6087 122.41 52.2109 122.41 50.2227Z" fill="white"/>
  <path d="M130.811 52.9734V45.9397H131.88V53.7283C131.88 54.3263 131.6 54.5954 131.15 54.5954C130.701 54.5954 130.421 54.3711 130.104 53.818L126.464 47.457V54.5057H125.395V46.717C125.395 46.1116 125.682 45.8574 126.125 45.8574C126.567 45.8574 126.861 46.0891 127.171 46.6273L130.819 52.9808L130.811 52.9734Z" fill="white"/>
  <path d="M140.487 54.5057H139.308V46.0667C140.03 45.9471 141.003 45.8574 141.939 45.8574C143.766 45.8574 145.255 46.2312 145.255 48.4811C145.255 50.731 143.929 51.157 142.035 51.157C141.592 51.157 140.885 51.1271 140.487 51.1047V54.5132V54.5057ZM140.487 50.133C141.032 50.1928 141.482 50.2002 141.939 50.2002C143.31 50.2002 144.083 49.8564 144.083 48.4736C144.083 47.2776 143.538 46.7992 141.983 46.7992C141.541 46.7992 141.003 46.8291 140.487 46.8964V50.133Z" fill="white"/>
  <path d="M151.57 54.4833C150.915 54.5057 150.141 54.5281 149.566 54.5281C148.107 54.5281 146.744 54.4534 146.744 52.5772V45.9397H147.93V52.0615C147.93 53.2873 148.158 53.5489 149.536 53.5489H151.57V54.4833Z" fill="white"/>
  <path d="M183.14 54.3786C182.602 54.4982 181.909 54.5954 181.128 54.5954C178.379 54.5954 177.709 53.2649 177.709 50.2227C177.709 47.1805 178.387 45.85 181.128 45.85C181.909 45.85 182.609 45.9397 183.14 46.0592L183.037 46.9861C182.543 46.9114 181.998 46.8516 181.475 46.8516C179.035 46.8516 178.91 48.1447 178.91 50.2227C178.91 52.3006 179.057 53.5863 181.475 53.5863C182.012 53.5863 182.536 53.5265 183.037 53.4517L183.14 54.3786Z" fill="white"/>
  <path d="M185.557 48.0251C185.557 49.1015 186.132 49.2584 187.385 49.6172C188.829 50.0209 189.713 50.5964 189.713 52.1362C189.713 53.9376 188.623 54.5954 186.67 54.5954C185.763 54.5954 185.093 54.5132 184.422 54.3711L184.54 53.4069C185.189 53.5041 186.007 53.5713 186.633 53.5713C187.724 53.5713 188.49 53.3247 188.49 52.1736C188.49 51.157 187.753 50.9253 186.773 50.6188C185.262 50.1629 184.385 49.7443 184.385 48.1821C184.385 46.418 185.432 45.85 187.311 45.85C188.114 45.85 188.94 45.9471 189.536 46.0667L189.426 47.0011C188.91 46.9263 188.284 46.8516 187.694 46.8516C186.707 46.8516 185.564 46.9487 185.564 48.0251" fill="white"/>
  <path d="M152.698 54.5057L155.454 46.6722C155.646 46.1116 155.985 45.85 156.434 45.85C156.884 45.85 157.23 46.1116 157.422 46.6722L160.133 54.5057H158.881L158.085 52.1287H154.702L153.914 54.5057H152.698ZM157.768 51.2093L156.382 47.0758L155.004 51.2093H157.768Z" fill="white"/>
  <path d="M162.514 48.0251C162.514 49.1015 163.088 49.2584 164.341 49.6172C165.786 50.0209 166.67 50.5964 166.67 52.1362C166.67 53.9376 165.579 54.5954 163.626 54.5954C162.72 54.5954 162.049 54.5132 161.371 54.3711L161.489 53.4069C162.138 53.5041 162.956 53.5713 163.582 53.5713C164.673 53.5713 165.439 53.3247 165.439 52.1736C165.439 51.157 164.702 50.9253 163.715 50.6188C162.211 50.1629 161.327 49.7443 161.327 48.1821C161.327 46.418 162.374 45.85 164.253 45.85C165.056 45.85 165.881 45.9471 166.478 46.0667L166.368 47.0011C165.844 46.9263 165.225 46.8516 164.636 46.8516C163.641 46.8516 162.506 46.9487 162.506 48.0251" fill="white"/>
  <path d="M96.2204 46.8964H94.0391C92.6611 46.8964 92.4326 47.158 92.4326 48.3914V49.6695H96.0583V50.6263H92.4326V52.0689C92.4326 53.3023 92.6611 53.5564 94.0391 53.5564H96.2204V54.4833C95.5719 54.5057 94.695 54.5356 94.076 54.5356C92.6095 54.5356 91.2462 54.4608 91.2462 52.5847V47.8831C91.2462 46.0069 92.6095 45.9322 94.076 45.9322C94.636 45.9322 95.5645 45.9621 96.2204 45.9845V46.9114V46.8964Z" fill="white"/>
  <path d="M103.066 54.3786C102.528 54.4982 101.836 54.5954 101.055 54.5954C98.3059 54.5954 97.6279 53.2649 97.6279 50.2227C97.6279 47.1805 98.3059 45.85 101.055 45.85C101.836 45.85 102.528 45.9397 103.066 46.0592L102.963 46.9861C102.469 46.9114 101.924 46.8516 101.401 46.8516C98.9617 46.8516 98.8364 48.1447 98.8364 50.2227C98.8364 52.3006 98.9838 53.5863 101.401 53.5863C101.939 53.5863 102.462 53.5265 102.963 53.4517L103.066 54.3786Z" fill="white"/>
  <path d="M176.257 45.9397H174.783V54.5057H176.257V45.9397Z" fill="white"/>
  <path d="M82.1305 38.0688H76.0362V8.08018C78.6449 7.59432 82.2189 7.24301 85.8225 7.24301C92.5211 7.24301 97.9079 8.58846 97.9079 16.9377C97.9079 25.287 93.0516 26.7969 86.1467 26.7969C84.8276 26.7969 83.2948 26.7296 82.1305 26.6549V38.0762V38.0688ZM82.1305 21.7514C83.3685 21.9084 84.5992 21.9234 85.852 21.9234C89.6987 21.9234 91.8578 20.9143 91.8578 16.9377C91.8578 13.462 90.4208 12.0866 85.9846 12.0866C84.7687 12.0866 83.3759 12.1763 82.1379 12.3482V21.7514H82.1305Z" fill="white"/>
  <path d="M102.138 5.74059H107.886V31.7078C107.886 33.7932 108.335 35.206 109.485 36.8205L104.422 39.2274C102.934 37.4857 102.138 35.3928 102.138 32.1413V5.74059Z" fill="white"/>
  <path d="M112.506 30.9454C112.506 26.8193 114.29 24.263 118.873 23.5379C121.276 23.1417 123.707 23.052 126.235 22.9474C126.235 20.264 125.012 19.0456 122.013 19.0456C119.242 19.0456 116.22 19.3446 113.892 19.651L113.427 15.3307C115.845 14.9121 119.072 14.4412 122.455 14.4412C127.576 14.4412 131.843 15.8987 131.843 21.9458V31.8049C131.843 33.3896 131.777 34.735 131.651 36.23C128.991 37.7997 125.535 38.3902 121.371 38.3902C115.019 38.3902 112.514 35.8936 112.514 30.9528M126.228 26.7446C124.511 26.8343 122.521 26.8866 120.922 27.2678C118.903 27.7537 118.136 28.4189 118.136 30.8706C118.136 33.3223 119.529 33.9726 122.035 33.9726C123.31 33.9726 124.85 33.8829 126.088 33.3447C126.191 32.4029 126.228 31.2593 126.228 30.2128V26.7446Z" fill="white"/>
  <path d="M142.241 20.9666C142.241 23.0072 144.629 23.3585 146.5 24.0088C150.332 25.3318 153.538 26.1167 153.538 31.3266C153.538 36.8504 149.559 38.3827 144.474 38.3827C141.85 38.3827 138.652 38.0164 136.279 37.3736L136.825 33.0458C138.542 33.3746 141.305 33.7559 143.088 33.7559C144.872 33.7559 147.746 33.8157 147.746 31.5134C147.746 29.2112 145.697 29.0916 143.781 28.5011C140.192 27.3874 136.552 26.2363 136.552 21.2058C136.552 16.1753 140.178 14.4262 144.776 14.4262C148.055 14.4262 150.34 14.7252 153.206 15.3905L152.661 19.6361C150.841 19.2698 148.888 18.9559 146.825 18.9559C145.012 18.9559 142.241 18.9708 142.241 20.9591" fill="white"/>
  <path d="M157.466 26.4007C157.466 17.9393 160.089 14.4337 167.783 14.4337C176.176 14.4337 177.9 18.8961 177.9 25.9597C177.9 26.5726 177.871 27.2005 177.827 27.8284C175.203 28.3143 170.104 28.8225 166.943 28.9945L163.162 29.1888C163.368 32.829 165.277 33.7185 168.593 33.7185C171.688 33.7185 174.518 33.4045 176.884 33.0981L177.363 37.4857C174.938 37.8894 171.762 38.3752 167.304 38.3752C159.507 38.3752 157.466 33.3074 157.466 26.3932M166.935 25.0179C168.431 24.9432 170.752 24.7413 172.101 24.5619C172.138 24.3003 172.153 23.8967 172.153 23.6351C172.153 20.5704 171.032 18.8961 167.775 18.8961C163.553 18.8961 162.985 21.5646 162.985 25.2197L166.935 25.0254V25.0179Z" fill="white"/>
  <path d="M182.514 5.74059H188.262V31.7078C188.262 33.7932 188.711 35.206 189.861 36.8205L184.798 39.2274C183.309 37.4857 182.514 35.3928 182.514 32.1413V5.74059Z" fill="white"/>
</svg>