<svg width="171" height="55" viewBox="0 0 171 55" fill="none" xmlns="http://www.w3.org/2000/svg">
<g id="Plasel Logo">
<path d="M27.3614 55C26.5741 55 25.9203 54.6862 25.4599 54.1053C24.8795 53.3774 24.8394 52.5294 24.8394 52.2891L27.3814 33.8801L29.9234 52.2623V52.3091C29.9167 53.3975 29.2362 55 27.3881 55H27.3614Z" fill="#219CBB"/>
<path d="M45.0218 47.7152C44.9284 47.7152 44.835 47.7152 44.7416 47.7018C43.8142 47.595 43.1871 47.0274 43.0136 46.8538L31.6714 32.2375L46.5964 43.2415L46.6231 43.2749C47.3837 44.0494 48.0375 45.672 46.7165 46.9874C46.2294 47.4681 45.6556 47.7152 45.0218 47.7152Z" fill="#E53818"/>
<path d="M27.3681 31.7968C25.0663 31.7968 23.1915 29.9272 23.1915 27.6168C23.1915 25.3065 25.0663 23.4369 27.3681 23.4369C29.6699 23.4369 31.538 25.3132 31.538 27.6168C31.538 29.9205 29.6632 31.7968 27.3681 31.7968Z" fill="#E53818"/>
<path d="M2.71551 25.0795C2.47532 25.0795 1.62799 25.1263 0.894089 25.7005C0.313637 26.1612 5.90018e-05 26.8223 5.90018e-05 27.6035C-0.00661286 28.7119 0.553824 29.3262 1.0342 29.6534C1.49456 29.9672 2.10837 30.1542 2.68882 30.1609H2.7422L21.1165 27.6168L2.71551 25.0728V25.0795Z" fill="#E53818"/>
<path d="M9.99452 7.52519C9.90111 7.51184 9.8077 7.51184 9.7143 7.51184C9.08047 7.51184 8.51336 7.75889 8.02632 8.23965C6.69861 9.54838 7.35246 11.1776 8.11972 11.9522L8.15308 11.9856L22.9913 23.1966L11.7225 8.37319C11.5491 8.19959 10.9219 7.63203 9.99452 7.52519Z" fill="#E53818"/>
<path d="M7.29908 44.9976C7.21902 45.7321 7.45921 46.4131 8.01297 46.974C8.50669 47.4748 9.10049 47.7352 9.74099 47.7352C10.5616 47.7352 11.3022 47.2945 11.7159 46.8805L11.7492 46.8538L22.8712 32.0238L8.14641 43.2749C7.97294 43.4485 7.4125 44.0761 7.29908 45.0042" fill="#E53818"/>
<path d="M54.5092 28.7253C54.6293 28.4782 54.716 28.2044 54.7494 27.9173C54.8295 27.1227 54.8695 26.3749 54.8695 25.4067V25.0728C54.8561 24.1514 54.8028 23.2233 54.716 22.3152C54.5092 20.292 54.1623 18.5158 53.6485 16.8733C52.7745 13.9954 51.4268 11.3713 49.6921 9.15443C49.105 8.35316 48.4712 7.60532 47.7906 6.92424C45.2353 4.34017 41.886 2.36372 38.1098 1.22193C36.4685 0.707782 34.6871 0.360568 32.6722 0.153575C31.7648 0.0600947 30.8374 0.0133544 29.9167 0H29.5898C28.6224 0 27.8751 0.033386 27.0812 0.120189C26.7943 0.146898 26.5207 0.233702 26.2739 0.360568C26.2005 0.393954 26.1404 0.434017 26.0737 0.47408C26.0137 0.507466 25.9603 0.547529 25.9002 0.587593C25.8335 0.64101 25.7668 0.68775 25.7001 0.747845C25.6 0.841326 25.4999 0.941484 25.4132 1.055C25.4132 1.055 25.4132 1.06835 25.4065 1.06835C25.3131 1.18854 25.2397 1.31541 25.173 1.44895C25.153 1.48901 25.133 1.52908 25.1196 1.57582C25.093 1.63591 25.0663 1.70268 25.0462 1.76945C24.9128 2.12335 24.8394 2.49059 24.8394 2.8111V2.85784L27.3814 21.2401L29.6298 4.93444C29.6298 4.93444 29.6899 4.93444 29.7232 4.93444C29.7633 4.93444 29.8033 4.93444 29.8433 4.93444C30.6106 4.95447 31.3912 5.00121 32.1585 5.08802C33.6196 5.24827 35.1408 5.54874 36.6753 5.99612C37.2691 6.16972 37.8496 6.37671 38.4167 6.60374C40.7652 7.57193 42.8468 8.94743 44.4947 10.6301C46.483 12.6399 47.9975 15.2908 48.8782 18.3089C49.3252 19.8446 49.6254 21.367 49.7855 22.8293C49.8723 23.6039 49.919 24.3784 49.939 25.1463C49.939 25.1864 49.939 25.2264 49.939 25.2598C49.939 25.2932 49.939 25.3266 49.939 25.36L33.6463 27.6102L52.0139 30.1542H52.0606C52.3809 30.1542 52.7478 30.0807 53.1014 29.9472C53.1682 29.9272 53.2282 29.9004 53.2949 29.8737C53.335 29.8537 53.375 29.8404 53.415 29.8203C53.5485 29.7536 53.6819 29.6801 53.7953 29.5866C53.7953 29.5866 53.8087 29.5799 53.8153 29.5733C53.9221 29.4865 54.0288 29.393 54.1222 29.2861C54.1756 29.2261 54.229 29.1593 54.2824 29.0858C54.3224 29.0324 54.3624 28.979 54.3958 28.9189C54.4358 28.8521 54.4758 28.792 54.5092 28.7186" fill="#219CBB"/>
<path d="M94.9874 41.038H93.653V48.6901H94.9874V41.038Z" fill="#191718"/>
<path d="M103.701 41.038H102.366V48.6901H103.701V41.038Z" fill="#191718"/>
<path d="M156.102 41.8994H154.08V48.6901H153.006V41.8994H150.984V41.038H156.102V41.8994Z" fill="#191718"/>
<path d="M69.2073 48.6901H68.1398V41.1515C68.7937 41.0447 69.6744 40.9646 70.5217 40.9646C72.1763 40.9646 73.524 41.2984 73.524 43.3082C73.524 45.3181 72.3164 45.6987 70.6084 45.6987C70.2081 45.6987 69.5676 45.672 69.2073 45.6519V48.6967V48.6901ZM69.2073 44.7839C69.7077 44.8373 70.1147 44.844 70.5217 44.844C71.7626 44.844 72.4632 44.5368 72.4632 43.3016C72.4632 42.2332 71.9695 41.8059 70.5617 41.8059C70.1681 41.8059 69.6744 41.8326 69.2073 41.8927V44.7839Z" fill="#191718"/>
<path d="M74.8784 48.6901V41.1515C75.5389 41.0447 76.4129 40.9646 77.2603 40.9646C78.9016 40.9646 80.2626 41.2784 80.2626 43.2749C80.2626 44.7238 79.5754 45.3248 78.5213 45.5384L80.356 48.6967H79.1084L77.4071 45.6386H77.3537C76.9467 45.6386 76.3195 45.6119 75.9526 45.5918V48.7034H74.8851L74.8784 48.6901ZM75.9526 44.7171C76.453 44.7705 76.8533 44.7772 77.2669 44.7772C78.5012 44.7772 79.2085 44.4701 79.2085 43.2682C79.2085 42.2132 78.7014 41.7992 77.307 41.7992C76.9067 41.7992 76.4196 41.8259 75.9593 41.8927V44.7171H75.9526Z" fill="#191718"/>
<path d="M97.2092 42.9009C97.2092 43.8624 97.7296 44.0027 98.8638 44.3232C100.171 44.6837 100.972 45.1979 100.972 46.5734C100.972 48.1826 99.9847 48.7702 98.2166 48.7702C97.396 48.7702 96.7888 48.6967 96.175 48.5699L96.2818 47.7085C96.8689 47.7953 97.6095 47.8554 98.1833 47.8554C99.1707 47.8554 99.8645 47.6351 99.8645 46.6068C99.8645 45.6987 99.1974 45.4917 98.3033 45.2179C96.9423 44.8106 96.1417 44.4367 96.1417 43.0412C96.1417 41.4653 97.0891 40.9579 98.7904 40.9579C99.5109 40.9579 100.258 41.0447 100.805 41.1515L100.705 41.9862C100.232 41.9194 99.6711 41.8526 99.1373 41.8526C98.2433 41.8526 97.2092 41.9394 97.2092 42.9009Z" fill="#191718"/>
<path d="M105.042 44.864C105.042 42.093 105.702 40.9579 108.031 40.9579C110.359 40.9579 111.02 42.093 111.02 44.864C111.02 47.6351 110.359 48.7702 108.031 48.7702C105.702 48.7702 105.042 47.6351 105.042 44.864ZM109.932 44.864C109.932 43.0879 109.866 41.8459 108.031 41.8459C106.196 41.8459 106.129 43.0879 106.129 44.864C106.129 46.6402 106.189 47.8888 108.031 47.8888C109.872 47.8888 109.932 46.6402 109.932 44.864Z" fill="#191718"/>
<path d="M117.538 47.3212V41.038H118.506V47.9956C118.506 48.5298 118.252 48.7702 117.845 48.7702C117.438 48.7702 117.185 48.5699 116.898 48.0758L113.602 42.3935V48.6901H112.635V41.7324C112.635 41.1916 112.895 40.9646 113.295 40.9646C113.695 40.9646 113.962 41.1715 114.242 41.6523L117.545 47.3279L117.538 47.3212Z" fill="#191718"/>
<path d="M126.298 48.6901H125.231V41.1515C125.885 41.0447 126.766 40.9646 127.613 40.9646C129.267 40.9646 130.615 41.2984 130.615 43.3082C130.615 45.3181 129.414 45.6987 127.7 45.6987C127.299 45.6987 126.659 45.672 126.298 45.6519V48.6967V48.6901ZM126.298 44.7839C126.792 44.8373 127.199 44.844 127.613 44.844C128.854 44.844 129.554 44.5368 129.554 43.3016C129.554 42.2332 129.061 41.8059 127.653 41.8059C127.253 41.8059 126.766 41.8326 126.298 41.8927V44.7839Z" fill="#191718"/>
<path d="M136.333 48.67C135.739 48.6901 135.039 48.7101 134.518 48.7101C133.197 48.7101 131.963 48.6433 131.963 46.9673V41.038H133.037V46.5066C133.037 47.6017 133.244 47.8354 134.492 47.8354H136.333V48.67Z" fill="#191718"/>
<path d="M164.915 48.5765C164.428 48.6834 163.801 48.7702 163.094 48.7702C160.605 48.7702 159.998 47.5816 159.998 44.864C159.998 42.1464 160.612 40.9579 163.094 40.9579C163.801 40.9579 164.435 41.038 164.915 41.1448L164.822 41.9728C164.375 41.906 163.881 41.8526 163.407 41.8526C161.199 41.8526 161.086 43.0078 161.086 44.864C161.086 46.7203 161.219 47.8688 163.407 47.8688C163.894 47.8688 164.368 47.8153 164.822 47.7486L164.915 48.5765Z" fill="#191718"/>
<path d="M167.104 42.9009C167.104 43.8624 167.624 44.0027 168.758 44.3232C170.066 44.6837 170.867 45.1979 170.867 46.5734C170.867 48.1826 169.879 48.7702 168.111 48.7702C167.29 48.7702 166.683 48.6967 166.076 48.5699L166.183 47.7085C166.77 47.7953 167.511 47.8554 168.078 47.8554C169.065 47.8554 169.759 47.6351 169.759 46.6068C169.759 45.6987 169.092 45.4917 168.204 45.2179C166.837 44.8106 166.043 44.4367 166.043 43.0412C166.043 41.4653 166.99 40.9579 168.692 40.9579C169.419 40.9579 170.166 41.0447 170.706 41.1515L170.606 41.9862C170.139 41.9194 169.572 41.8526 169.038 41.8526C168.144 41.8526 167.11 41.9394 167.11 42.9009" fill="#191718"/>
<path d="M137.354 48.6901L139.849 41.6924C140.023 41.1916 140.329 40.9579 140.736 40.9579C141.143 40.9579 141.457 41.1916 141.63 41.6924L144.086 48.6901H142.951L142.231 46.5667H139.169L138.455 48.6901H137.354ZM141.944 45.7454L140.69 42.0529L139.442 45.7454H141.944Z" fill="#191718"/>
<path d="M146.241 42.9009C146.241 43.8624 146.761 44.0027 147.895 44.3232C149.203 44.6837 150.004 45.1979 150.004 46.5734C150.004 48.1826 149.016 48.7702 147.248 48.7702C146.428 48.7702 145.82 48.6967 145.207 48.5699L145.313 47.7085C145.9 47.7953 146.641 47.8554 147.208 47.8554C148.196 47.8554 148.889 47.6351 148.889 46.6068C148.889 45.6987 148.222 45.4917 147.328 45.2179C145.967 44.8106 145.167 44.4367 145.167 43.0412C145.167 41.4653 146.114 40.9579 147.815 40.9579C148.542 40.9579 149.29 41.0447 149.83 41.1515L149.73 41.9862C149.256 41.9194 148.696 41.8526 148.162 41.8526C147.262 41.8526 146.234 41.9394 146.234 42.9009" fill="#191718"/>
<path d="M86.2206 41.8927H84.2457C82.9981 41.8927 82.7912 42.1264 82.7912 43.2281V44.3699H86.0738V45.2246H82.7912V46.5133C82.7912 47.615 82.9981 47.842 84.2457 47.842H86.2206V48.67C85.6335 48.6901 84.8395 48.7168 84.2791 48.7168C82.9514 48.7168 81.7171 48.65 81.7171 46.974V42.7741C81.7171 41.0981 82.9514 41.0313 84.2791 41.0313C84.7861 41.0313 85.6268 41.058 86.2206 41.0781V41.906V41.8927Z" fill="#191718"/>
<path d="M92.4188 48.5765C91.9317 48.6834 91.3046 48.7702 90.5973 48.7702C88.1087 48.7702 87.4949 47.5816 87.4949 44.864C87.4949 42.1464 88.1087 40.9579 90.5973 40.9579C91.3046 40.9579 91.9317 41.038 92.4188 41.1448L92.3253 41.9728C91.8783 41.906 91.3846 41.8526 90.9109 41.8526C88.7025 41.8526 88.5891 43.0078 88.5891 44.864C88.5891 46.7203 88.7225 47.8688 90.9109 47.8688C91.398 47.8688 91.8717 47.8153 92.3253 47.7486L92.4188 48.5765Z" fill="#191718"/>
<path d="M158.684 41.038H157.349V48.6901H158.684V41.038Z" fill="#191718"/>
<path d="M73.464 34.0069H67.9463V7.21804C70.3082 6.78402 73.5441 6.4702 76.8066 6.4702C82.8713 6.4702 87.7485 7.67209 87.7485 15.1305C87.7485 22.5889 83.3517 23.9377 77.1002 23.9377C75.9059 23.9377 74.5181 23.8776 73.464 23.8109V34.0136V34.0069ZM73.464 19.4306C74.5849 19.5708 75.6991 19.5842 76.8333 19.5842C80.316 19.5842 82.2709 18.6828 82.2709 15.1305C82.2709 12.0256 80.9698 10.797 76.9534 10.797C75.8525 10.797 74.5915 10.8771 73.4707 11.0307V19.4306H73.464Z" fill="#191718"/>
<path d="M91.5781 5.12808H96.7822V28.3246C96.7822 30.1876 97.1891 31.4496 98.2299 32.8918L93.6464 35.0419C92.2987 33.4861 91.5781 31.6165 91.5781 28.7119V5.12808Z" fill="#191718"/>
<path d="M100.965 27.6436C100.965 23.9577 102.58 21.6742 106.73 21.0265C108.905 20.6726 111.107 20.5924 113.395 20.499C113.395 18.1019 112.288 17.0135 109.572 17.0135C107.063 17.0135 104.328 17.2806 102.22 17.5543L101.799 13.6949C103.988 13.321 106.91 12.9003 109.972 12.9003C114.609 12.9003 118.472 14.2024 118.472 19.6042V28.4114C118.472 29.827 118.412 31.0289 118.299 32.3643C115.89 33.7665 112.761 34.294 108.992 34.294C103.241 34.294 100.972 32.0639 100.972 27.6502M113.388 23.891C111.834 23.9711 110.032 24.0178 108.585 24.3584C106.757 24.7924 106.063 25.3867 106.063 27.5768C106.063 29.7669 107.324 30.3478 109.592 30.3478C110.746 30.3478 112.141 30.2677 113.262 29.7869C113.355 28.9456 113.388 27.924 113.388 26.9892V23.891Z" fill="#191718"/>
<path d="M127.886 18.7295C127.886 20.5524 130.048 20.8662 131.743 21.4471C135.212 22.629 138.114 23.3301 138.114 27.9841C138.114 32.9185 134.512 34.2874 129.908 34.2874C127.533 34.2874 124.637 33.9602 122.489 33.3859L122.983 29.5198C124.537 29.8136 127.039 30.1542 128.654 30.1542C130.268 30.1542 132.87 30.2076 132.87 28.151C132.87 26.0945 131.016 25.9876 129.281 25.4601C126.032 24.4652 122.736 23.4369 122.736 18.9432C122.736 14.4494 126.018 12.887 130.182 12.887C133.15 12.887 135.219 13.1541 137.814 13.7483L137.32 17.541C135.672 17.2138 133.904 16.9333 132.036 16.9333C130.395 16.9333 127.886 16.9467 127.886 18.7228" fill="#191718"/>
<path d="M141.67 23.5838C141.67 16.0253 144.046 12.8937 151.011 12.8937C158.61 12.8937 160.172 16.8799 160.172 23.1899C160.172 23.7374 160.145 24.2983 160.105 24.8592C157.73 25.2932 153.113 25.7472 150.25 25.9008L146.828 26.0744C147.015 29.3262 148.743 30.1208 151.745 30.1208C154.547 30.1208 157.109 29.8404 159.251 29.5666L159.685 33.4861C157.489 33.8467 154.614 34.2807 150.577 34.2807C143.519 34.2807 141.67 29.7535 141.67 23.5771M150.244 22.3485C151.598 22.2818 153.7 22.1015 154.921 21.9412C154.954 21.7075 154.968 21.347 154.968 21.1133C154.968 18.3756 153.953 16.8799 151.004 16.8799C147.181 16.8799 146.668 19.2637 146.668 22.5288L150.244 22.3552V22.3485Z" fill="#191718"/>
<path d="M164.348 5.12808H169.552V28.3246C169.552 30.1876 169.959 31.4496 171 32.8918L166.416 35.0419C165.069 33.4861 164.348 31.6165 164.348 28.7119V5.12808Z" fill="#191718"/>
</g>
</svg>
